<svg width="44" height="43" viewBox="0 0 44 43" fill="none" xmlns="http://www.w3.org/2000/svg">
<circle cx="21.5039" cy="21.5" r="21.5" fill="white"/>
<path d="M21.4626 22.8407C24.8617 22.8407 27.6186 20.0837 27.6186 16.6847C27.6186 13.2857 24.8616 10.5476 21.4626 10.5476C18.0636 10.5476 15.3066 13.3046 15.3066 16.6847C15.3066 20.0649 18.0636 22.8407 21.4626 22.8407ZM21.4626 12.1527C23.9552 12.1527 25.9947 14.1921 25.9947 16.6847C25.9947 19.1774 23.9552 21.2167 21.4626 21.2167C18.97 21.2167 16.9306 19.1773 16.9306 16.6847C16.9306 14.1921 18.97 12.1527 21.4626 12.1527Z" fill="#A0A0A0"/>
<path d="M10.812 32.4524H32.188C32.6412 32.4524 33 32.0936 33 31.6404C33 27.3916 29.5443 23.9171 25.2767 23.9171H17.7233C13.4746 23.9171 10 27.3727 10 31.6404C10 32.0936 10.3588 32.4524 10.812 32.4524ZM17.7233 25.541H25.2767C28.3735 25.541 30.9228 27.8448 31.3194 30.8284H11.6806C12.0772 27.8637 14.6265 25.541 17.7233 25.541Z" fill="#A0A0A0"/>
</svg>
