<svg width="67" height="67" viewBox="0 0 67 67" fill="none" xmlns="http://www.w3.org/2000/svg">
<path d="M61.4181 6.28125H52.3438V2.09375C52.3438 0.935906 51.4078 0 50.25 0C49.0922 0 48.1562 0.935906 48.1562 2.09375V6.28125H35.5938V2.09375C35.5938 0.935906 34.6558 0 33.5 0C32.3442 0 31.4062 0.935906 31.4062 2.09375V6.28125H18.8438V2.09375C18.8438 0.935906 17.9058 0 16.75 0C15.5942 0 14.6562 0.935906 14.6562 2.09375V6.28125H5.58403C2.49994 6.28125 0 8.77909 0 11.8632V61.416C0 64.5001 2.49994 67 5.58403 67H61.4181C64.5022 67 67 64.5001 67 61.416V11.8632C67 8.77909 64.5022 6.28125 61.4181 6.28125ZM62.8125 61.416C62.8125 62.1865 62.1865 62.8125 61.4181 62.8125H5.58403C4.81353 62.8125 4.1875 62.1865 4.1875 61.416V11.8632C4.1875 11.0948 4.81353 10.4688 5.58403 10.4688H14.6562V14.6562C14.6562 15.8141 15.5942 16.75 16.75 16.75C17.9058 16.75 18.8438 15.8141 18.8438 14.6562V10.4688H31.4062V14.6562C31.4062 15.8141 32.3442 16.75 33.5 16.75C34.6558 16.75 35.5938 15.8141 35.5938 14.6562V10.4688H48.1562V14.6562C48.1562 15.8141 49.0922 16.75 50.25 16.75C51.4078 16.75 52.3438 15.8141 52.3438 14.6562V10.4688H61.4181C62.1865 10.4688 62.8125 11.0948 62.8125 11.8632V61.416Z" fill="#AB2656"/>
<path d="M23.0312 25.125H14.6562V31.4062H23.0312V25.125Z" fill="#AB2656"/>
<path d="M23.0312 35.5938H14.6562V41.875H23.0312V35.5938Z" fill="#AB2656"/>
<path d="M23.0312 46.0625H14.6562V52.3438H23.0312V46.0625Z" fill="#AB2656"/>
<path d="M37.6875 46.0625H29.3125V52.3438H37.6875V46.0625Z" fill="#AB2656"/>
<path d="M37.6875 35.5938H29.3125V41.875H37.6875V35.5938Z" fill="#AB2656"/>
<path d="M37.6875 25.125H29.3125V31.4062H37.6875V25.125Z" fill="#AB2656"/>
<path d="M52.3438 46.0625H43.9688V52.3438H52.3438V46.0625Z" fill="#AB2656"/>
<path d="M52.3438 35.5938H43.9688V41.875H52.3438V35.5938Z" fill="#AB2656"/>
<path d="M52.3438 25.125H43.9688V31.4062H52.3438V25.125Z" fill="#AB2656"/>
</svg>
