<svg width="91" height="73" viewBox="0 0 91 73" fill="none" xmlns="http://www.w3.org/2000/svg">
<path fill-rule="evenodd" clip-rule="evenodd" d="M88.7719 2.23344C87.287 0.744426 85.5019 0 83.4169 0H7.58328C5.49792 0 3.7132 0.744259 2.22729 2.23344C0.742209 3.72279 0 5.51245 0 7.60373V65.3954C0 67.4872 0.742209 69.277 2.22729 70.7662C3.7132 72.2554 5.49792 73 7.58328 73H83.4169C85.5019 73 87.2868 72.2554 88.7719 70.7662C90.2568 69.2772 91 67.4874 91 65.3954V7.60373C91 5.51245 90.2568 3.72279 88.7719 2.23344ZM84.9327 65.3966C84.9327 65.8091 84.7828 66.1645 84.4826 66.4665C84.1827 66.7661 83.8271 66.9164 83.4169 66.9164H7.58328C7.17275 66.9164 6.81716 66.7661 6.51703 66.4653C6.21706 66.1635 6.06682 65.8079 6.06682 65.3954V36.5H84.9328V65.3966H84.9327ZM6.06666 18.2491H84.9325V7.60306C84.9325 7.19123 84.7826 6.8355 84.4825 6.53387C84.1825 6.23307 83.8269 6.08308 83.4167 6.08308H7.58311C7.17275 6.08308 6.81716 6.23373 6.51686 6.53387C6.21639 6.8355 6.06666 7.19123 6.06666 7.60306V18.2491Z" fill="white"/>
</svg>
