<svg width="42" height="70" viewBox="0 0 42 70" fill="none" xmlns="http://www.w3.org/2000/svg">
<path d="M8.09589 0H34.3973C38.5895 0 42 3.41055 42 7.60274V33.5874C42 34.5473 41.9686 35.519 41.9068 36.4758L40.0045 65.9627C39.8585 68.2266 37.967 70 35.6985 70H6.7948C4.52617 70 2.63479 68.2266 2.48863 65.9627L0.586301 36.4759C0.52452 35.5192 0.493151 34.5473 0.493151 33.5875V7.60274C0.493151 3.41055 3.9037 0 8.09589 0ZM2.54795 33.5874C2.54795 34.5033 2.57781 35.4305 2.63671 36.3434L4.53904 65.8304C4.61562 67.0163 5.60644 67.9452 6.79466 67.9452H35.6985C36.8867 67.9452 37.8775 67.0163 37.9541 65.8304L39.8564 36.3434C39.9153 35.4305 39.9452 34.5033 39.9452 33.5874V7.60274C39.9452 4.54356 37.4564 2.05479 34.3973 2.05479H8.09589C5.03671 2.05479 2.54795 4.54356 2.54795 7.60274V33.5874Z" fill="#9D0F3E"/>
<path d="M8.09604 63.5616H34.3974C34.9648 63.5616 35.4248 64.0216 35.4248 64.589C35.4248 65.1564 34.9648 65.6164 34.3974 65.6164H8.09604C7.52864 65.6164 7.06864 65.1564 7.06864 64.589C7.06864 64.0216 7.52864 63.5616 8.09604 63.5616Z" fill="#9D0F3E"/>
<path d="M23.4384 18.4932C22.871 18.4932 22.411 18.0332 22.411 17.4658V15.274C22.411 14.7066 22.871 14.2466 23.4384 14.2466C24.0058 14.2466 24.4658 14.7066 24.4658 15.274V17.4658C24.4658 18.0332 24.0058 18.4932 23.4384 18.4932Z" fill="#9D0F3E"/>
<path d="M27.8222 18.4932C27.2548 18.4932 26.7948 18.0332 26.7948 17.4658V15.274C26.7948 14.7066 27.2548 14.2466 27.8222 14.2466C28.3896 14.2466 28.8496 14.7066 28.8496 15.274V17.4658C28.8496 18.0332 28.3896 18.4932 27.8222 18.4932Z" fill="#9D0F3E"/>
<path d="M19.0551 18.4932C18.4877 18.4932 18.0277 18.0332 18.0277 17.4658V15.274C18.0277 14.7066 18.4877 14.2466 19.0551 14.2466C19.6225 14.2466 20.0825 14.7066 20.0825 15.274V17.4658C20.0825 18.0332 19.6225 18.4932 19.0551 18.4932Z" fill="#9D0F3E"/>
<path d="M14.6713 18.4932C14.1039 18.4932 13.6439 18.0332 13.6439 17.4658V15.274C13.6439 14.7066 14.1039 14.2466 14.6713 14.2466C15.2387 14.2466 15.6987 14.7066 15.6987 15.274V17.4658C15.6987 18.0332 15.2387 18.4932 14.6713 18.4932Z" fill="#9D0F3E"/>
<path d="M32.7536 41.5068H29.4659C27.993 41.5068 26.7947 40.3085 26.7947 38.8356C26.7947 37.3627 27.993 36.1644 29.4659 36.1644H32.7536C34.2264 36.1644 35.4248 37.3627 35.4248 38.8356C35.4248 40.3085 34.2264 41.5068 32.7536 41.5068ZM32.7536 38.2192H29.4659C29.126 38.2192 28.8495 38.4957 28.8495 38.8356C28.8495 39.1755 29.126 39.452 29.4659 39.452H32.7536C33.0934 39.452 33.37 39.1755 33.37 38.8356C33.37 38.4957 33.0934 38.2192 32.7536 38.2192Z" fill="#9D0F3E"/>
<path d="M22.8905 41.5068H19.6029C18.13 41.5068 16.9316 40.3085 16.9316 38.8356C16.9316 37.3627 18.13 36.1644 19.6029 36.1644H22.8905C24.3634 36.1644 25.5618 37.3627 25.5618 38.8356C25.5618 40.3085 24.3634 41.5068 22.8905 41.5068ZM22.8905 38.2192H19.6029C19.263 38.2192 18.9864 38.4957 18.9864 38.8356C18.9864 39.1755 19.263 39.452 19.6029 39.452H22.8905C23.2304 39.452 23.507 39.1755 23.507 38.8356C23.507 38.4957 23.2304 38.2192 22.8905 38.2192Z" fill="#9D0F3E"/>
<path d="M9.73983 36.1644H13.0275C14.5004 36.1644 15.6987 37.3627 15.6987 38.8356C15.6987 40.3085 14.5004 41.5068 13.0275 41.5068H9.73983C8.26695 41.5068 7.06859 40.3085 7.06859 38.8356C7.06859 37.3627 8.26695 36.1644 9.73983 36.1644ZM9.73983 39.452H13.0275C13.3674 39.452 13.6439 39.1755 13.6439 38.8356C13.6439 38.4957 13.3674 38.2192 13.0275 38.2192H9.73983C9.39996 38.2192 9.12339 38.4957 9.12339 38.8356C9.12339 39.1755 9.39996 39.452 9.73983 39.452Z" fill="#9D0F3E"/>
<path d="M32.7536 48.0822H29.4659C27.993 48.0822 26.7947 46.8838 26.7947 45.4109C26.7947 43.9381 27.993 42.7397 29.4659 42.7397H32.7536C34.2264 42.7397 35.4248 43.9381 35.4248 45.4109C35.4248 46.8838 34.2264 48.0822 32.7536 48.0822ZM32.7536 44.7945H29.4659C29.126 44.7945 28.8495 45.0711 28.8495 45.4109C28.8495 45.7508 29.126 46.0274 29.4659 46.0274H32.7536C33.0934 46.0274 33.37 45.7508 33.37 45.4109C33.37 45.0711 33.0934 44.7945 32.7536 44.7945Z" fill="#9D0F3E"/>
<path d="M22.8905 48.0822H19.6029C18.13 48.0822 16.9316 46.8838 16.9316 45.4109C16.9316 43.9381 18.13 42.7397 19.6029 42.7397H22.8905C24.3634 42.7397 25.5618 43.9381 25.5618 45.4109C25.5618 46.8838 24.3634 48.0822 22.8905 48.0822ZM22.8905 44.7945H19.6029C19.263 44.7945 18.9864 45.0711 18.9864 45.4109C18.9864 45.7508 19.263 46.0274 19.6029 46.0274H22.8905C23.2304 46.0274 23.507 45.7508 23.507 45.4109C23.507 45.0711 23.2304 44.7945 22.8905 44.7945Z" fill="#9D0F3E"/>
<path d="M9.73983 42.7397H13.0275C14.5004 42.7397 15.6987 43.9381 15.6987 45.4109C15.6987 46.8838 14.5004 48.0822 13.0275 48.0822H9.73983C8.26695 48.0822 7.06859 46.8838 7.06859 45.4109C7.06859 43.9381 8.26695 42.7397 9.73983 42.7397ZM9.73983 46.0274H13.0275C13.3674 46.0274 13.6439 45.7508 13.6439 45.4109C13.6439 45.0711 13.3674 44.7945 13.0275 44.7945H9.73983C9.39996 44.7945 9.12339 45.0711 9.12339 45.4109C9.12339 45.7508 9.39996 46.0274 9.73983 46.0274Z" fill="#9D0F3E"/>
<path d="M32.7536 54.6575H29.4659C27.993 54.6575 26.7947 53.4592 26.7947 51.9863C26.7947 50.5134 27.993 49.3151 29.4659 49.3151H32.7536C34.2264 49.3151 35.4248 50.5134 35.4248 51.9863C35.4248 53.4592 34.2264 54.6575 32.7536 54.6575ZM32.7536 51.3699H29.4659C29.126 51.3699 28.8495 51.6464 28.8495 51.9863C28.8495 52.3262 29.126 52.6027 29.4659 52.6027H32.7536C33.0934 52.6027 33.37 52.3262 33.37 51.9863C33.37 51.6464 33.0934 51.3699 32.7536 51.3699Z" fill="#9D0F3E"/>
<path d="M22.8905 54.6575H19.6029C18.13 54.6575 16.9316 53.4592 16.9316 51.9863C16.9316 50.5134 18.13 49.3151 19.6029 49.3151H22.8905C24.3634 49.3151 25.5618 50.5134 25.5618 51.9863C25.5618 53.4592 24.3634 54.6575 22.8905 54.6575ZM22.8905 51.3699H19.6029C19.263 51.3699 18.9864 51.6464 18.9864 51.9863C18.9864 52.3262 19.263 52.6027 19.6029 52.6027H22.8905C23.2304 52.6027 23.507 52.3262 23.507 51.9863C23.507 51.6464 23.2304 51.3699 22.8905 51.3699Z" fill="#9D0F3E"/>
<path d="M9.73983 49.3151H13.0275C14.5004 49.3151 15.6987 50.5134 15.6987 51.9863C15.6987 53.4592 14.5004 54.6575 13.0275 54.6575H9.73983C8.26695 54.6575 7.06859 53.4592 7.06859 51.9863C7.06859 50.5134 8.26695 49.3151 9.73983 49.3151ZM9.73983 52.6027H13.0275C13.3674 52.6027 13.6439 52.3262 13.6439 51.9863C13.6439 51.6464 13.3674 51.3699 13.0275 51.3699H9.73983C9.39996 51.3699 9.12339 51.6464 9.12339 51.9863C9.12339 52.3262 9.39996 52.6027 9.73983 52.6027Z" fill="#9D0F3E"/>
<path d="M32.7536 61.2329H29.4659C27.993 61.2329 26.7947 60.0345 26.7947 58.5616C26.7947 57.0888 27.993 55.8904 29.4659 55.8904H32.7536C34.2264 55.8904 35.4248 57.0888 35.4248 58.5616C35.4248 60.0345 34.2264 61.2329 32.7536 61.2329ZM32.7536 57.9452H29.4659C29.126 57.9452 28.8495 58.2218 28.8495 58.5616C28.8495 58.9015 29.126 59.1781 29.4659 59.1781H32.7536C33.0934 59.1781 33.37 58.9015 33.37 58.5616C33.37 58.2218 33.0934 57.9452 32.7536 57.9452Z" fill="#9D0F3E"/>
<path d="M22.8905 61.2329H19.6029C18.13 61.2329 16.9316 60.0345 16.9316 58.5616C16.9316 57.0888 18.13 55.8904 19.6029 55.8904H22.8905C24.3634 55.8904 25.5618 57.0888 25.5618 58.5616C25.5618 60.0345 24.3634 61.2329 22.8905 61.2329ZM22.8905 57.9452H19.6029C19.263 57.9452 18.9864 58.2218 18.9864 58.5616C18.9864 58.9015 19.263 59.1781 19.6029 59.1781H22.8905C23.2304 59.1781 23.507 58.9015 23.507 58.5616C23.507 58.2218 23.2304 57.9452 22.8905 57.9452Z" fill="#9D0F3E"/>
<path d="M9.73983 55.8904H13.0275C14.5004 55.8904 15.6987 57.0888 15.6987 58.5616C15.6987 60.0345 14.5004 61.2329 13.0275 61.2329H9.73983C8.26695 61.2329 7.06859 60.0345 7.06859 58.5616C7.06859 57.0888 8.26695 55.8904 9.73983 55.8904ZM9.73983 59.1781H13.0275C13.3674 59.1781 13.6439 58.9015 13.6439 58.5616C13.6439 58.2218 13.3674 57.9452 13.0275 57.9452H9.73983C9.39996 57.9452 9.12339 58.2218 9.12339 58.5616C9.12339 58.9015 9.39996 59.1781 9.73983 59.1781Z" fill="#9D0F3E"/>
<path d="M8.09615 7.67123H34.3975C36.1726 7.67123 37.6167 9.11534 37.6167 10.8904V30.6164C37.6167 32.3915 36.1726 33.8356 34.3975 33.8356H8.09615C6.32109 33.8356 4.87698 32.3915 4.87698 30.6164V10.8904C4.87698 9.11534 6.32109 7.67123 8.09615 7.67123ZM22.2742 29.4521V31.7808H27.8907V29.4521H22.2742ZM20.2194 29.4521H14.603V31.7808H20.2194V29.4521ZM34.3975 27.3973C34.8081 27.3973 35.2005 27.4753 35.5619 27.6162V24.8497C35.2005 24.9906 34.8081 25.0686 34.3975 25.0686H8.09615C7.68561 25.0686 7.29314 24.9906 6.93177 24.8497V27.6162C7.29314 27.4753 7.68561 27.3973 8.09615 27.3973H34.3975ZM35.5619 10.8904C35.5619 10.2484 35.0396 9.72603 34.3975 9.72603H8.09615C7.4541 9.72603 6.93177 10.2484 6.93177 10.8904V21.8493C6.93177 22.4914 7.4541 23.0137 8.09615 23.0137H34.3975C35.0396 23.0137 35.5619 22.4914 35.5619 21.8493V10.8904ZM35.5619 30.6164C35.5619 29.9744 35.0396 29.4521 34.3975 29.4521H29.9455V31.7808H34.3975C35.0396 31.7808 35.5619 31.2585 35.5619 30.6164ZM8.09615 31.7808H12.5482V29.4521H8.09615C7.4541 29.4521 6.93177 29.9744 6.93177 30.6164C6.93177 31.2585 7.4541 31.7808 8.09615 31.7808Z" fill="#9D0F3E"/>
</svg>
