<svg width="68" height="70" viewBox="0 0 68 70" fill="none" xmlns="http://www.w3.org/2000/svg">
<g opacity="0.28">
<path fill-rule="evenodd" clip-rule="evenodd" d="M47.2233 32.2222C50.5989 32.2222 53.3344 29.4866 53.3344 26.1111V12.7777C53.3344 9.40218 50.5989 6.66663 47.2233 6.66663H21.6678C18.2922 6.66663 15.5566 9.40218 15.5566 12.7777V26.1111C15.5566 29.4866 18.2922 32.2222 21.6678 32.2222H47.2233ZM47.2236 10C48.758 10 50.0014 11.2434 50.0014 12.7778V26.1111C50.0014 27.6456 48.758 28.8889 47.2236 28.8889H21.668C20.1336 28.8889 18.8902 27.6456 18.8902 26.1111V12.7778C18.8902 11.2434 20.1336 10 21.668 10H47.2236Z" fill="#616161"/>
<path fill-rule="evenodd" clip-rule="evenodd" d="M54.9993 56.6667C58.3749 56.6667 61.1105 53.9311 61.1105 50.5556V6.11111C61.1105 2.73556 58.3749 0 54.9993 0H12.7771C9.40157 0 6.66602 2.73556 6.66602 6.11111V50.5556C6.66602 53.9311 9.40157 56.6667 12.7771 56.6667H54.9993ZM55.0002 3.33334C56.5347 3.33334 57.778 4.57668 57.778 6.11112V50.5556C57.778 52.09 56.5347 53.3333 55.0002 53.3333H12.778C11.2436 53.3333 10.0002 52.09 10.0002 50.5556V6.11112C10.0002 4.57668 11.2436 3.33334 12.778 3.33334H55.0002Z" fill="#616161"/>
<path fill-rule="evenodd" clip-rule="evenodd" d="M24.0456 46.1288L24.6534 47.731C24.7367 47.9288 24.8334 48.1566 24.9467 48.4144C25.06 48.6732 25.1656 48.8644 25.2634 48.9888C25.3634 49.1144 25.4856 49.2121 25.63 49.2844C25.7745 49.3577 25.9489 49.3944 26.1523 49.3944C26.5012 49.3944 26.7978 49.271 27.0456 49.0244C27.2912 48.7766 27.4145 48.5055 27.4145 48.2099C27.4145 47.9255 27.2845 47.4699 27.0234 46.8421L23.6878 38.6044C23.5323 38.1932 23.4012 37.8632 23.3012 37.6155C23.1989 37.3699 23.0745 37.1388 22.9267 36.9232C22.7789 36.7099 22.5834 36.5344 22.3423 36.3977C22.1023 36.261 21.8012 36.1921 21.4423 36.1921C21.0867 36.1921 20.79 36.261 20.5489 36.3977C20.3067 36.5344 20.1134 36.7121 19.9656 36.9321C19.8167 37.1532 19.6778 37.4299 19.5478 37.7644C19.4805 37.9376 19.4176 38.0977 19.3598 38.2449C19.3061 38.3818 19.2567 38.5075 19.2123 38.6221L15.9478 46.9121C15.8123 47.2432 15.7167 47.5021 15.6589 47.6877C15.6012 47.8733 15.5723 48.0532 15.5723 48.2266C15.5723 48.5288 15.6978 48.7988 15.9478 49.0377C16.1967 49.2755 16.4834 49.3944 16.8089 49.3944C17.1923 49.3944 17.4678 49.2821 17.6356 49.0588C17.8045 48.8355 18.0067 48.4044 18.2456 47.7655L18.8556 46.1288H24.0456ZM23.3488 44.1877H19.5343L21.4243 38.9177L23.3488 44.1877Z" fill="#616161"/>
<path d="M36.0356 38.5434H33.2145V47.8178C33.2145 48.3523 33.0945 48.7489 32.8556 49.0067C32.6178 49.2656 32.3111 49.3945 31.9334 49.3945C31.5489 49.3945 31.2378 49.2634 30.9967 49.0023C30.7567 48.7411 30.6356 48.3467 30.6356 47.8178V38.5434H27.8145C27.3734 38.5434 27.0456 38.4478 26.83 38.2523C26.6156 38.0578 26.5078 37.8 26.5078 37.4811C26.5078 37.1511 26.62 36.8889 26.8434 36.6978C27.0667 36.5056 27.39 36.41 27.8145 36.41H36.0356C36.4823 36.41 36.8145 36.5089 37.0311 36.7067C37.2489 36.9045 37.3589 37.1623 37.3589 37.4811C37.3589 37.8 37.2478 38.0578 37.0267 38.2523C36.8067 38.4478 36.4756 38.5434 36.0356 38.5434Z" fill="#616161"/>
<path d="M43.2026 47.2511L41.156 39.1189V47.9311C41.156 48.4189 41.0471 48.7845 40.8304 49.0289C40.6126 49.2723 40.3237 49.3945 39.9637 49.3945C39.6149 49.3945 39.3304 49.2745 39.1093 49.0334C38.8904 48.7923 38.7793 48.4245 38.7793 47.9311V37.83C38.7793 37.2723 38.9249 36.8967 39.2149 36.7023C39.5049 36.5078 39.8971 36.41 40.3904 36.41H41.1904C41.6726 36.41 42.0226 36.4545 42.2415 36.5411C42.4582 36.6289 42.6193 36.7845 42.7237 37.0123C42.8293 37.2378 42.9471 37.6067 43.0804 38.1178L44.936 45.11L46.7904 38.1178C46.9237 37.6067 47.0437 37.2378 47.1482 37.0123C47.2515 36.7845 47.4126 36.6289 47.6315 36.5411C47.8482 36.4545 48.1982 36.41 48.6793 36.41H49.4804C49.9749 36.41 50.366 36.5078 50.6571 36.7023C50.9482 36.8967 51.0926 37.2723 51.0926 37.83V47.9311C51.0926 48.4189 50.9837 48.7845 50.7649 49.0289C50.5482 49.2723 50.256 49.3945 49.8904 49.3945C49.5482 49.3945 49.266 49.2723 49.0471 49.0289C48.8249 48.7845 48.7149 48.4189 48.7149 47.9311V39.1189L46.6682 47.2511C46.536 47.78 46.426 48.1678 46.3426 48.4145C46.2582 48.6611 46.1026 48.8867 45.876 49.09C45.6504 49.2923 45.336 49.3945 44.936 49.3945C44.6349 49.3945 44.3782 49.3278 44.1704 49.1978C43.9593 49.0678 43.7982 48.9011 43.6815 48.6978C43.566 48.4945 43.4737 48.2689 43.4071 48.0234C43.3415 47.7756 43.2715 47.52 43.2026 47.2511Z" fill="#616161"/>
<path d="M46.1929 20.0001H40.6374C39.7174 20.0001 38.9707 19.2545 38.9707 18.3334C38.9707 17.4123 39.7174 16.6667 40.6374 16.6667H46.1929C47.1129 16.6667 47.8596 17.4123 47.8596 18.3334C47.8596 19.2545 47.1129 20.0001 46.1929 20.0001Z" fill="#616161"/>
<path d="M46.1929 25.5556H40.6374C39.7174 25.5556 38.9707 24.8101 38.9707 23.889C38.9707 22.9678 39.7174 22.2223 40.6374 22.2223H46.1929C47.1129 22.2223 47.8596 22.9678 47.8596 23.889C47.8596 24.8101 47.1129 25.5556 46.1929 25.5556Z" fill="#616161"/>
<path d="M27.3043 20.0001H21.7487C20.8287 20.0001 20.082 19.2545 20.082 18.3334C20.082 17.4123 20.8287 16.6667 21.7487 16.6667H27.3043C28.2243 16.6667 28.9709 17.4123 28.9709 18.3334C28.9709 19.2545 28.2243 20.0001 27.3043 20.0001Z" fill="#616161"/>
<path d="M27.3043 25.5556H21.7487C20.8287 25.5556 20.082 24.8101 20.082 23.889C20.082 22.9678 20.8287 22.2223 21.7487 22.2223H27.3043C28.2243 22.2223 28.9709 22.9678 28.9709 23.889C28.9709 24.8101 28.2243 25.5556 27.3043 25.5556Z" fill="#616161"/>
<path fill-rule="evenodd" clip-rule="evenodd" d="M61.6667 69.9999C65.0422 69.9999 67.7778 67.2644 67.7778 63.8888V59.4444C67.7778 56.0688 65.0422 53.3333 61.6667 53.3333H6.11111C2.73556 53.3333 0 56.0688 0 59.4444V63.8888C0 67.2644 2.73556 69.9999 6.11111 69.9999H61.6667ZM61.6673 56.6666C63.2017 56.6666 64.4451 57.91 64.4451 59.4444V63.8889C64.4451 65.4233 63.2017 66.6666 61.6673 66.6666H6.11174C4.57729 66.6666 3.33396 65.4233 3.33396 63.8889V59.4444C3.33396 57.91 4.57729 56.6666 6.11174 56.6666H61.6673Z" fill="#616161"/>
</g>
</svg>
