<svg width="37" height="45" viewBox="0 0 37 45" fill="none" xmlns="http://www.w3.org/2000/svg">
<path d="M31.2489 5.39137H24.2443C23.8948 2.36143 21.3169 0 18.1947 0C15.0726 0 12.4951 2.36133 12.1456 5.39137H5.14064C2.30593 5.39137 0 7.69795 0 10.5326V10.7964C0 12.9626 1.3488 14.8166 3.24887 15.5721V39.8588C3.24887 42.6935 5.55508 45 8.38961 45H28C30.8346 45 33.1406 42.6933 33.1406 39.8588V15.5722C35.0406 14.8166 36.3895 12.9626 36.3895 10.7965V10.5327C36.3895 7.69795 34.0834 5.39137 31.2489 5.39137ZM18.1947 2.43819C19.9704 2.43819 21.4526 3.71097 21.7806 5.39137H14.6095C14.9373 3.71088 16.4196 2.43819 18.1947 2.43819ZM30.7024 39.8588C30.7024 41.3492 29.4898 42.5619 27.9999 42.5619H8.38951C6.89959 42.5619 5.68697 41.3491 5.68697 39.8588V15.9376H30.7024V39.8588ZM33.9513 10.7964C33.9513 12.2868 32.7387 13.4995 31.2488 13.4995H5.14064C3.65071 13.4995 2.4381 12.2868 2.4381 10.7964V10.5326C2.4381 9.04218 3.65071 7.82947 5.14064 7.82947H31.2489C32.7388 7.82947 33.9514 9.04218 33.9514 10.5326V10.7964H33.9513Z" fill="#AB2656"/>
<path d="M11.6585 39.4438C12.3318 39.4438 12.8776 38.8979 12.8776 38.2249V24.4986C12.8776 23.8255 12.3317 23.2795 11.6585 23.2795C10.9853 23.2795 10.4395 23.8255 10.4395 24.4986V38.2249C10.4394 38.898 10.9852 39.4438 11.6585 39.4438Z" fill="#AB2656"/>
<path d="M18.1946 39.4438C18.8679 39.4438 19.4138 38.8979 19.4138 38.2249V24.4986C19.4138 23.8255 18.8677 23.2795 18.1946 23.2795C17.5214 23.2795 16.9756 23.8255 16.9756 24.4986V38.2249C16.9756 38.898 17.5214 39.4438 18.1946 39.4438Z" fill="#AB2656"/>
<path d="M24.7309 39.4438C25.404 39.4438 25.9498 38.8979 25.9498 38.2249V24.4986C25.9498 23.8255 25.404 23.2795 24.7309 23.2795C24.0575 23.2795 23.5117 23.8255 23.5117 24.4986V38.2249C23.5116 38.898 24.0577 39.4438 24.7309 39.4438Z" fill="#AB2656"/>
</svg>
