<svg width="70" height="70" viewBox="0 0 70 70" fill="none" xmlns="http://www.w3.org/2000/svg">
<path d="M69.9859 26.7605C69.9787 26.6801 69.9627 26.6006 69.9381 26.5237C69.9221 26.4549 69.8998 26.3877 69.8716 26.3229C69.8389 26.2596 69.7998 26.1997 69.755 26.1444C69.71 26.0786 69.6579 26.018 69.5998 25.9635C69.5811 25.9472 69.573 25.9249 69.5532 25.9086L58.3328 17.1943V8.16259C58.3328 6.22953 56.7656 4.66235 54.8326 4.66235H42.1888L37.1262 0.731563C35.8756 -0.243854 34.1218 -0.243854 32.8712 0.731563L27.8075 4.66235H15.1637C13.2307 4.66235 11.6635 6.22939 11.6635 8.16259V17.1944L0.446683 25.9088C0.426858 25.9252 0.418654 25.9473 0.400059 25.9636C0.341951 26.018 0.289858 26.0787 0.244876 26.1445C0.20003 26.1999 0.160926 26.2596 0.128249 26.3231C0.0999465 26.3877 0.0777969 26.455 0.0618 26.5238C0.0374628 26.5997 0.0214659 26.6779 0.013946 26.7572C0.013946 26.7817 0 26.8027 0 26.8272V66.4998C0.00164071 67.2419 0.241731 67.9638 0.684859 68.559C0.691832 68.5695 0.693063 68.5824 0.701129 68.5917C0.709333 68.601 0.726834 68.6115 0.738455 68.6244C1.39392 69.4869 2.41335 69.9954 3.49662 70H66.4998C67.5873 69.9967 68.611 69.4858 69.2673 68.6186C69.2766 68.607 69.2907 68.6035 69.2987 68.5918C69.3069 68.5802 69.308 68.5697 69.3151 68.5592C69.7583 67.9638 69.9984 67.2419 70 66.4999V26.8305C69.9999 26.806 69.9872 26.7849 69.9859 26.7605ZM34.298 2.5726C34.7055 2.24883 35.2825 2.24883 35.6899 2.5726L38.3815 4.66222H31.6145L34.298 2.5726ZM3.79058 67.6666L34.2982 43.9688C34.7059 43.6455 35.2825 43.6455 35.6901 43.9688L66.2057 67.6666H3.79058ZM67.6665 65.8476L37.1262 42.1276C35.8753 41.153 34.1221 41.153 32.8712 42.1276L2.32981 65.8476V28.6074L21.449 43.4543C21.9584 43.8493 22.6915 43.7566 23.0865 43.2471C23.4815 42.7377 23.3888 42.0045 22.8794 41.6095L3.45574 26.5271L11.6637 20.1484V29.1639C11.6637 29.8083 12.1861 30.3306 12.8303 30.3306C13.4747 30.3306 13.997 29.8081 13.997 29.1639V8.16245C13.997 7.51805 14.5193 6.99575 15.1637 6.99575H54.8323C55.4767 6.99575 55.999 7.51805 55.999 8.16245V29.1639C55.999 29.8083 56.5213 30.3306 57.1657 30.3306C57.8101 30.3306 58.3324 29.8081 58.3324 29.1639V20.1484L66.5403 26.5271L47.0829 41.6365C46.7482 41.8901 46.5755 42.3041 46.631 42.7204C46.6865 43.1368 46.9614 43.4912 47.351 43.6483C47.7405 43.8054 48.1845 43.7411 48.5133 43.4798L67.6662 28.6074V65.8476H67.6665Z" fill="#AE335F"/>
<path d="M48.9975 27.9972V23.3302C48.9975 15.5977 42.7292 9.32928 34.9968 9.32928C27.2644 9.32928 20.9961 15.5977 20.9961 23.3302C20.9961 31.0627 27.2644 37.3312 34.9968 37.3312C35.6412 37.3312 36.1635 36.8089 36.1635 36.1645C36.1635 35.5201 35.6412 34.9978 34.9968 34.9978C28.5532 34.9978 23.3296 29.7741 23.3296 23.3304C23.3296 16.8867 28.5532 11.663 34.9968 11.663C41.4404 11.663 46.664 16.8867 46.664 23.3304V27.9973C46.664 29.2861 45.6193 30.3308 44.3305 30.3308C43.0417 30.3308 41.997 29.2861 41.997 27.9973V23.3304C41.997 22.686 41.4747 22.1637 40.8303 22.1637C40.186 22.1637 39.6637 22.686 39.6637 23.3304C39.6637 25.9078 37.5742 27.9973 34.9968 27.9973C32.4194 27.9973 30.3299 25.9078 30.3299 23.3304C30.3299 20.7529 32.4194 18.6634 34.9968 18.6634C35.6412 18.6634 36.1635 18.1411 36.1635 17.4967C36.1635 16.8523 35.6412 16.33 34.9968 16.33C31.8637 16.3231 29.1075 18.3987 28.2488 21.4119C27.3902 24.4251 28.6381 27.6419 31.3043 29.2876C33.9704 30.9333 37.4052 30.607 39.7138 28.4887C39.9679 30.9561 42.1124 32.7907 44.5893 32.6596C47.0664 32.5283 49.0053 30.4777 48.9975 27.9972Z" fill="#AE335F"/>
</svg>
