<svg width="31" height="30" viewBox="0 0 31 30" fill="none" xmlns="http://www.w3.org/2000/svg">
<path d="M6.87588 18.8894V30H9.21963L9.21957 16.5004L6.87588 18.8894Z" fill="white"/>
<path d="M11.4462 30H13.7899V18.009L11.4462 15.6653V30Z" fill="white"/>
<path d="M2.24695 29.9999H4.5907V21.2189L2.24695 23.6081V29.9999Z" fill="white"/>
<path d="M22.989 0V2.34375H26.0778L15.4158 13.0058L10.6868 8.2768L0 19.2812L1.68137 20.9141L10.7113 11.6158L15.4158 16.3204L27.6765 4.05966V6.97268H30.0203V0H22.989Z" fill="white"/>
<path d="M25.2742 9.77654V30H27.618V9.43359H25.6171L25.2742 9.77654Z" fill="white"/>
<path d="M16.0164 29.9999H18.3602V16.6906L16.0164 19.0343V29.9999Z" fill="white"/>
<path d="M20.6453 29.9999H22.989V12.0616L20.6453 14.4053V29.9999Z" fill="white"/>
</svg>
