<svg width="29" height="30" viewBox="0 0 29 30" fill="none" xmlns="http://www.w3.org/2000/svg">
<path d="M26.1593 6.5325L25.7363 6.67219L23.4836 6.88125L22.8473 7.93969L22.3856 7.78688L20.5928 6.10313L20.3327 5.2275L19.9844 4.29375L18.8576 3.24094L17.5283 2.97L17.4977 3.60375L18.8 4.9275L19.4372 5.70938L18.7208 6.09938L18.1376 5.92031L17.2637 5.54063L17.2934 4.80656L16.1468 4.31531L15.7661 6.04125L14.6105 6.31406L14.7248 7.27688L16.2305 7.57875L16.4906 6.04031L17.7335 6.23156L18.3113 6.58406H19.2383L19.8728 7.90781L21.5549 9.68531L21.4316 10.3763L20.0753 10.1963L17.7317 11.4291L16.0442 13.5375L15.8246 14.4713H15.2189L14.0903 13.9294L12.9941 14.4713L13.2668 15.6759L13.7438 15.1031L14.5826 15.0759L14.5241 16.1578L15.2189 16.3697L15.9128 17.1816L17.0459 16.8497L18.3401 17.0625L19.8431 17.4834L20.5937 17.5753L21.8663 19.08L24.3224 20.5847L22.7339 23.7459L21.0572 24.5578L20.4209 26.3644L17.9945 28.0519L17.7362 29.025C23.939 27.4688 28.5533 21.6647 28.5533 14.7253C28.5515 11.6944 27.6695 8.87344 26.1593 6.5325Z" fill="#717171"/>
<path d="M16.0436 22.4222L15.014 20.4337L15.959 18.3825L15.014 18.0881L13.9529 16.9781L11.6021 16.4287L10.8218 14.7281V15.7378H10.478L8.45209 12.8766V10.5262L6.96709 8.01094L4.60909 8.44875H3.02059L2.22139 7.90312L3.24109 7.06125L2.22409 7.30594C0.998291 9.48656 0.283691 12.0169 0.283691 14.7272C0.283691 22.8581 6.61159 29.4525 14.4182 29.4525C15.0194 29.4525 15.6089 29.3972 16.1921 29.3241L16.0445 27.54C16.0445 27.54 16.6934 24.8906 16.6934 24.8006C16.6925 24.7097 16.0436 22.4222 16.0436 22.4222Z" fill="#717171"/>
<path fill-rule="evenodd" clip-rule="evenodd" d="M5.5362 4.74844L8.0472 4.38375L9.2046 3.72281L10.5069 4.11375L12.5877 3.99375L13.3005 2.82656L14.34 3.00469L16.8645 2.75813L17.5602 1.95938L18.5412 1.27688L19.929 1.49437L20.4348 1.41469C18.6069 0.518438 16.5729 0 14.4174 0C10.0299 0 6.1068 2.08313 3.5166 5.35406H3.5238L5.5362 4.74844ZM15.0153 1.46438L16.4589 0.636566L17.3859 1.19438L16.044 2.25844L14.7624 2.3925L14.1855 2.0025L15.0153 1.46438ZM11.3763 1.86187L10.7391 1.58531C10.7196 1.75044 9.91438 2.299 9.82165 2.36218C9.81593 2.36607 9.81292 2.36812 9.81297 2.36812L10.7391 2.9325L12.6651 2.40562L12.2106 1.58531L11.3763 1.86187Z" fill="#717171"/>
</svg>
