<svg width="23" height="23" viewBox="0 0 23 23" fill="none" xmlns="http://www.w3.org/2000/svg">
<rect width="23" height="23" rx="5" fill="#AB2656"/>
<path d="M15.1106 9.84921C15.1106 10.4761 14.6026 10.9841 13.9757 10.9841H9.22965C8.60276 10.9841 8.09473 10.4761 8.09473 9.84921V7.37302C8.09473 6.74613 8.60276 6.2381 9.22965 6.2381H13.9757C14.6026 6.2381 15.1106 6.74613 15.1106 7.37302V9.84921ZM14.4916 7.37302C14.4916 7.08805 14.2606 6.85715 13.9757 6.85715H9.22965C8.94468 6.85715 8.71377 7.08805 8.71377 7.37302V9.84921C8.71377 10.1342 8.94468 10.3651 9.22965 10.3651H13.9757C14.2606 10.3651 14.4916 10.1342 14.4916 9.84921V7.37302Z" fill="white"/>
<path d="M16.5554 14.3889C16.5554 15.0158 16.0474 15.5238 15.4205 15.5238H7.57926C6.95237 15.5238 6.44434 15.0158 6.44434 14.3889V6.13492C6.44434 5.50803 6.95237 5 7.57926 5H15.4205C16.0474 5 16.5554 5.50803 16.5554 6.13492V14.3889ZM15.9364 6.13492C15.9364 5.84995 15.7055 5.61905 15.4205 5.61905H7.57926C7.29429 5.61905 7.06338 5.84995 7.06338 6.13492V14.3889C7.06338 14.6739 7.29429 14.9048 7.57926 14.9048H15.4205C15.7055 14.9048 15.9364 14.6739 15.9364 14.3889V6.13492Z" fill="white"/>
<path d="M9.78415 13.8643L9.67128 13.5668H8.70742L8.59413 13.8707C8.54977 13.9894 8.51221 14.0695 8.48085 14.1109C8.44969 14.1524 8.39851 14.1732 8.32732 14.1732C8.26686 14.1732 8.21362 14.1512 8.1674 14.107C8.12097 14.0626 8.09766 14.0125 8.09766 13.9564C8.09766 13.9242 8.10302 13.8908 8.11375 13.8563C8.12448 13.8218 8.14223 13.7738 8.1674 13.7123L8.77366 12.1727C8.79078 12.1285 8.81183 12.0755 8.83597 12.0134C8.86012 11.9513 8.88591 11.8999 8.91356 11.8588C8.94101 11.818 8.97691 11.785 9.02189 11.7596C9.06667 11.7342 9.12177 11.7214 9.1878 11.7214C9.25445 11.7214 9.31037 11.7342 9.35494 11.7596C9.39972 11.785 9.43604 11.8176 9.46348 11.8572C9.49093 11.8972 9.51404 11.9401 9.53302 11.9857C9.55159 12.0318 9.57594 12.093 9.60483 12.1694L10.2243 13.6993C10.2728 13.8158 10.2969 13.9005 10.2969 13.9533C10.2969 14.0082 10.274 14.0585 10.2284 14.1045C10.1824 14.1503 10.1273 14.1732 10.0625 14.1732C10.0248 14.1732 9.99236 14.1664 9.96553 14.1528C9.9387 14.1394 9.91601 14.1212 9.89743 14.0979C9.87928 14.0748 9.85967 14.0393 9.83863 13.9912C9.81758 13.9434 9.79963 13.9011 9.78415 13.8643ZM8.8335 13.2063H9.5419L9.1845 12.2276L8.8335 13.2063Z" fill="white"/>
<path d="M11.8984 12.158H11.3744V13.8804C11.3744 13.9797 11.3521 14.0533 11.3078 14.1012C11.2636 14.1493 11.2067 14.1732 11.1365 14.1732C11.0651 14.1732 11.0073 14.1489 10.9626 14.1004C10.918 14.0519 10.8955 13.9787 10.8955 13.8804V12.158H10.3716C10.2897 12.158 10.2288 12.1403 10.1887 12.104C10.1489 12.0679 10.1289 12.02 10.1289 11.9608C10.1289 11.8995 10.1497 11.8508 10.1912 11.8153C10.2327 11.7796 10.2927 11.7618 10.3716 11.7618H11.8984C11.9813 11.7618 12.043 11.7802 12.0832 11.8169C12.1237 11.8537 12.1441 11.9015 12.1441 11.9608C12.1441 12.02 12.1235 12.0679 12.0824 12.104C12.0416 12.1403 11.9801 12.158 11.8984 12.158Z" fill="white"/>
<path d="M13.2297 13.7752L12.8496 12.2649V13.9015C12.8496 13.9921 12.8294 14.06 12.7891 14.1053C12.7487 14.1505 12.695 14.1732 12.6282 14.1732C12.5634 14.1732 12.5106 14.151 12.4695 14.1062C12.4288 14.0614 12.4082 13.9931 12.4082 13.9015V12.0256C12.4082 11.922 12.4352 11.8522 12.4891 11.8161C12.5429 11.78 12.6158 11.7618 12.7074 11.7618H12.856C12.9455 11.7618 13.0105 11.7701 13.0512 11.7862C13.0914 11.8025 13.1213 11.8314 13.1407 11.8737C13.1603 11.9156 13.1822 11.9841 13.207 12.079L13.5516 13.3776L13.896 12.079C13.9207 11.9841 13.943 11.9156 13.9624 11.8737C13.9816 11.8314 14.0115 11.8025 14.0522 11.7862C14.0924 11.7701 14.1574 11.7618 14.2468 11.7618H14.3956C14.4874 11.7618 14.56 11.78 14.6141 11.8161C14.6681 11.8522 14.695 11.922 14.695 12.0256V13.9015C14.695 13.9921 14.6747 14.06 14.6341 14.1053C14.5939 14.1505 14.5396 14.1732 14.4717 14.1732C14.4081 14.1732 14.3557 14.1505 14.3151 14.1053C14.2738 14.06 14.2534 13.9921 14.2534 13.9015V12.2649L13.8733 13.7752C13.8487 13.8734 13.8283 13.9454 13.8128 13.9912C13.7971 14.037 13.7682 14.0789 13.7262 14.1167C13.6843 14.1543 13.6259 14.1732 13.5516 14.1732C13.4957 14.1732 13.448 14.1609 13.4094 14.1367C13.3702 14.1126 13.3403 14.0816 13.3186 14.0439C13.2972 14.0061 13.28 13.9642 13.2676 13.9186C13.2555 13.8726 13.2425 13.8251 13.2297 13.7752Z" fill="white"/>
<path d="M13.7846 8.71429H12.7529C12.582 8.71429 12.4434 8.57583 12.4434 8.40477C12.4434 8.23371 12.582 8.09525 12.7529 8.09525H13.7846C13.9555 8.09525 14.0942 8.23371 14.0942 8.40477C14.0942 8.57583 13.9555 8.71429 13.7846 8.71429Z" fill="white"/>
<path d="M13.7846 9.74603H12.7529C12.582 9.74603 12.4434 9.60757 12.4434 9.43651C12.4434 9.26544 12.582 9.12698 12.7529 9.12698H13.7846C13.9555 9.12698 14.0942 9.26544 14.0942 9.43651C14.0942 9.60757 13.9555 9.74603 13.7846 9.74603Z" fill="white"/>
<path d="M10.2768 8.71429H9.24507C9.07421 8.71429 8.93555 8.57583 8.93555 8.40477C8.93555 8.23371 9.07421 8.09525 9.24507 8.09525H10.2768C10.4477 8.09525 10.5863 8.23371 10.5863 8.40477C10.5863 8.57583 10.4477 8.71429 10.2768 8.71429Z" fill="white"/>
<path d="M10.2768 9.74603H9.24507C9.07421 9.74603 8.93555 9.60757 8.93555 9.43651C8.93555 9.26544 9.07421 9.12698 9.24507 9.12698H10.2768C10.4477 9.12698 10.5863 9.26544 10.5863 9.43651C10.5863 9.60757 10.4477 9.74603 10.2768 9.74603Z" fill="white"/>
<path d="M17.7934 16.8651C17.7934 17.492 17.2853 18 16.6584 18H6.34098C5.71409 18 5.20605 17.492 5.20605 16.8651V16.0397C5.20605 15.4128 5.71409 14.9048 6.34098 14.9048H16.6584C17.2853 14.9048 17.7934 15.4128 17.7934 16.0397V16.8651ZM17.1743 16.0397C17.1743 15.7547 16.9434 15.5238 16.6584 15.5238H6.34098C6.05601 15.5238 5.8251 15.7547 5.8251 16.0397V16.8651C5.8251 17.15 6.05601 17.3809 6.34098 17.3809H16.6584C16.9434 17.3809 17.1743 17.15 17.1743 16.8651V16.0397Z" fill="white"/>
</svg>
