<svg width="23" height="23" viewBox="0 0 23 23" fill="none" xmlns="http://www.w3.org/2000/svg">
<rect width="23" height="23" rx="5" fill="#169A62"/>
<g clip-path="url(#clip0)">
<path d="M12.9411 7.26681V9.13347H13.4077V7.26681H13.8744V9.13347H14.3411V7.26681H15.0411C15.1699 7.26681 15.2744 7.16227 15.2744 7.03347V6.10014C15.2744 6.00325 15.2147 5.91651 15.1241 5.88198L10.2241 4.01531C10.1707 3.9949 10.1116 3.9949 10.0581 4.01531L5.15814 5.88198C5.06755 5.91651 5.00781 6.00325 5.00781 6.10014V7.03347C5.00781 7.16227 5.11235 7.26681 5.24115 7.26681H5.94114V11.0001H5.70781C5.57895 11.0001 5.47448 11.1045 5.47448 11.2334V11.9334H5.24115C5.11235 11.9334 5.00781 12.0379 5.00781 12.1667V13.1001C5.00781 13.2288 5.11235 13.3334 5.24115 13.3334H12.0077V12.8667H5.47448V12.4001H12.0077V11.9334H5.94114V11.4667H12.0077V7.26681H12.9411ZM5.47448 6.26085L10.1411 4.48309L14.8077 6.26085V6.80014H5.47448V6.26085ZM10.6077 7.26681V11.0001H9.67447V7.26681H10.6077ZM8.27447 7.26681V11.0001H7.34114V7.26681H8.27447ZM6.40781 11.0001V7.26681H6.87447V11.0001H6.40781ZM8.74114 11.0001V7.26681H9.2078V11.0001H8.74114ZM11.5411 11.0001H11.0744V7.26681H11.5411V11.0001Z" fill="white"/>
<path d="M10.1414 6.33347C10.5279 6.33347 10.8413 6.02004 10.8413 5.63347C10.8413 5.2469 10.5279 4.93347 10.1414 4.93347C9.75483 4.93347 9.44141 5.2469 9.44141 5.63347C9.44141 6.02004 9.75483 6.33347 10.1414 6.33347ZM10.1414 5.40014C10.2703 5.40014 10.3747 5.50467 10.3747 5.63347C10.3747 5.76233 10.2703 5.8668 10.1414 5.8668C10.0125 5.8668 9.90807 5.76233 9.90807 5.63347C9.90807 5.50467 10.0125 5.40014 10.1414 5.40014Z" fill="white"/>
<path d="M17.6079 12.7702V9.83349C17.6079 9.70458 17.5034 9.60016 17.3746 9.60016H12.7079C12.5791 9.60016 12.4746 9.70458 12.4746 9.83349V17.7667C12.4746 17.8955 12.5791 18.0001 12.7079 18.0001H16.4412V17.8232C16.4396 17.2509 16.667 16.7019 17.0729 16.2983C17.1639 16.2072 17.1639 16.0595 17.0729 15.9684L15.4395 14.3351C15.2791 14.1675 15.2819 13.9022 15.446 13.7381C15.6101 13.574 15.8754 13.5711 16.0429 13.7318L17.6763 15.365L18.0062 15.0351L17.6079 14.6368V13.43L18.0629 13.885C18.3701 14.1906 18.5423 14.6064 18.5412 15.0397V18.0001H19.0079V15.0397C19.0095 14.4825 18.788 13.948 18.3927 13.5551L17.6079 12.7702ZM16.2079 12.8222C15.532 12.2593 14.5505 12.2593 13.8746 12.8222V11.4269C14.0737 11.3559 14.2305 11.1993 14.3013 11.0002H15.7811C15.8521 11.1993 16.0087 11.3559 16.2079 11.4269V12.8222ZM13.8746 14.7779C14.1999 15.0547 14.6143 15.2048 15.0413 15.2001C15.2201 15.2001 15.398 15.175 15.5699 15.1251L16.2079 15.7634V16.1732C16.0087 16.2443 15.8521 16.4009 15.7811 16.6001H14.3013C14.2305 16.4009 14.0737 16.2443 13.8746 16.1732V14.7779ZM15.1096 13.4013C14.7612 13.7504 14.7612 14.3155 15.1096 14.6646L15.1689 14.724C15.1266 14.7278 15.0845 14.733 15.0413 14.733C14.3979 14.733 13.8746 14.3144 13.8746 13.7996C13.8746 13.2848 14.3979 12.8663 15.0413 12.8663C15.3456 12.862 15.642 12.9636 15.8799 13.1535C15.5982 13.1081 15.3118 13.2004 15.1096 13.4018V13.4013ZM16.6746 13.7035V11.2334C16.6746 11.1046 16.5701 11.0002 16.4412 11.0002C16.3123 11.0002 16.2079 10.8956 16.2079 10.7668C16.2079 10.6379 16.1034 10.5335 15.9746 10.5335H14.108C13.9791 10.5335 13.8746 10.6379 13.8746 10.7668C13.8746 10.8956 13.7702 11.0002 13.6413 11.0002C13.5124 11.0002 13.4079 11.1046 13.4079 11.2334V16.3668C13.4079 16.4955 13.5124 16.6001 13.6413 16.6001C13.7702 16.6001 13.8746 16.7045 13.8746 16.8334C13.8746 16.9622 13.9791 17.0667 14.108 17.0667H15.9746C16.0197 17.0655 16.0635 17.0511 16.1004 17.0249C16.0474 17.1903 16.0112 17.3606 15.9923 17.5334H12.9413V10.0668H17.1413V14.1702L16.6746 13.7035Z" fill="white"/>
<path d="M14.8076 11.4667H15.2743V11.9334H14.8076V11.4667Z" fill="white"/>
<path d="M14.8076 15.6667H15.2743V16.1334H14.8076V15.6667Z" fill="white"/>
<path d="M8.50781 14.7335H8.97447V15.2002H8.50781V14.7335Z" fill="white"/>
<path d="M8.50781 13.8001H8.97447V14.2668H8.50781V13.8001Z" fill="white"/>
<path d="M8.50781 15.6667H8.97447V16.1334H8.50781V15.6667Z" fill="white"/>
<path d="M8.50781 16.6H8.97447V17.0667H8.50781V16.6Z" fill="white"/>
<path d="M9.44141 16.6H9.90806V17.0667H9.44141V16.6Z" fill="white"/>
<path d="M10.374 16.6H10.8406V17.0667H10.374V16.6Z" fill="white"/>
<path d="M11.3076 16.6H11.7743V17.0667H11.3076V16.6Z" fill="white"/>
</g>
<defs>
<clipPath id="clip0">
<rect width="14" height="14" fill="white" transform="translate(5 4)"/>
</clipPath>
</defs>
</svg>
