<svg width="23" height="23" viewBox="0 0 23 23" fill="none" xmlns="http://www.w3.org/2000/svg">
<rect width="23" height="23" rx="5" fill="#1E656D"/>
<path d="M5.36621 7.92806C5.36621 7.95859 5.36621 7.95859 5.36621 7.98912V8.01965V8.05018C5.36621 8.08071 5.36621 8.08071 5.39674 8.11124C5.39674 8.14177 5.39674 8.14177 5.42727 8.1723C5.42727 8.20283 5.4578 8.20283 5.4578 8.23336C5.4578 8.2639 5.48833 8.2639 5.48833 8.29443L5.51886 8.32496C5.54939 8.35549 5.54939 8.35549 5.57992 8.38602L8.72453 11.0727C8.84665 11.1948 8.9993 11.2253 9.15196 11.2253C9.33514 11.2253 9.54885 11.1337 9.67097 10.9811C9.91521 10.7063 9.88468 10.2789 9.60991 10.0346L7.86969 8.53867H15.9907C16.3571 8.53867 16.6624 8.23336 16.6624 7.867C16.6624 7.50064 16.3571 7.19534 15.9907 7.19534H7.93075L9.60991 5.79095C9.88468 5.54671 9.94574 5.11929 9.7015 4.84451C9.45726 4.56974 9.02983 4.50868 8.75506 4.75292L5.67151 7.31746C5.57992 7.37852 5.48833 7.47011 5.4578 7.5617C5.42727 7.59223 5.42727 7.62276 5.42727 7.65329C5.42727 7.65329 5.42727 7.65329 5.42727 7.68382C5.42727 7.68382 5.42727 7.68382 5.42727 7.71435C5.42727 7.74488 5.42727 7.77541 5.39674 7.80594V7.83647V7.867V7.89753V7.92806C5.36621 7.89753 5.36621 7.92806 5.36621 7.92806Z" fill="white"/>
<path d="M17.273 15.0417V15.0112V14.9806C17.273 14.9501 17.273 14.9196 17.2425 14.8891C17.2425 14.8891 17.2425 14.8891 17.2425 14.8585C17.2425 14.8585 17.2425 14.8585 17.2425 14.828C17.2425 14.7975 17.2119 14.7669 17.2119 14.7364C17.1509 14.6448 17.0898 14.5532 16.9982 14.4922L13.9147 11.9276C13.6399 11.6834 13.1819 11.7139 12.9682 12.0192C12.724 12.294 12.7545 12.7519 13.0598 12.9657L14.739 14.37H6.61795C6.25159 14.37 5.94629 14.6753 5.94629 15.0417C5.94629 15.4081 6.25159 15.7134 6.61795 15.7134H14.739L12.9988 17.2094C12.724 17.4536 12.6935 17.881 12.9377 18.1558C13.0598 18.3084 13.2735 18.4 13.4567 18.4C13.6094 18.4 13.762 18.339 13.8841 18.2474L17.0287 15.5607C17.0593 15.5302 17.0593 15.5302 17.0898 15.4997L17.1203 15.4691C17.1509 15.4386 17.1509 15.4386 17.1509 15.4081C17.1509 15.3775 17.1814 15.3775 17.1814 15.347C17.1814 15.3165 17.1814 15.3165 17.2119 15.2859C17.2119 15.2554 17.2425 15.2554 17.2425 15.2249V15.1944V15.1638C17.2425 15.1333 17.2425 15.1333 17.2425 15.1028V15.0722C17.273 15.0722 17.273 15.0722 17.273 15.0417Z" fill="white"/>
</svg>
