<svg width="19" height="20" viewBox="0 0 19 20" fill="none" xmlns="http://www.w3.org/2000/svg">
<path fill-rule="evenodd" clip-rule="evenodd" d="M2.21892 4.25231L2.4581 4.1237V7.79164C2.4581 7.97928 2.60992 8.1311 2.79757 8.1311H4.55453C4.74218 8.1311 4.894 7.97928 4.894 7.79164V6.23529H6.04069V7.79164C6.04069 7.97928 6.19278 8.1311 6.38016 8.1311H8.13712C8.32477 8.1311 8.47659 7.97928 8.47659 7.79164V4.12422L8.72108 4.2538C8.88732 4.34522 9.09617 4.28283 9.18482 4.11542C9.27373 3.94796 9.2081 3.74007 9.03908 3.65395L5.60553 1.83488C5.50576 1.7816 5.386 1.7816 5.28597 1.83488L1.89788 3.65395C1.49905 3.86784 1.82009 4.4662 2.21892 4.25231ZM5.44763 2.51963L7.79766 3.76484V7.45218H6.71963V5.89582C6.71963 5.70838 6.56761 5.55636 6.38016 5.55636H4.55453C4.36682 5.5561 4.21455 5.70812 4.21455 5.89582V7.45218H3.13704V3.75954L5.44763 2.51963Z" fill="#A62251"/>
<path fill-rule="evenodd" clip-rule="evenodd" d="M2.03062 9.91062H9.33429C9.7869 9.91062 9.7869 9.23169 9.33429 9.23169H2.03062C1.57801 9.23169 1.57801 9.91062 2.03062 9.91062Z" fill="#A62251"/>
<path fill-rule="evenodd" clip-rule="evenodd" d="M2.03062 11.5097H5.50607C5.95869 11.5097 5.95869 10.8308 5.50607 10.8308H2.03062C1.57801 10.8308 1.57801 11.5097 2.03062 11.5097Z" fill="#A62251"/>
<path fill-rule="evenodd" clip-rule="evenodd" d="M8.13593 12.4294H2.03063C1.57801 12.4294 1.57801 13.1084 2.03063 13.1084H8.13593C8.58855 13.1084 8.58855 12.4294 8.13593 12.4294Z" fill="#A62251"/>
<path fill-rule="evenodd" clip-rule="evenodd" d="M2.03062 14.7076H5.50607C5.95869 14.7076 5.95869 14.0286 5.50607 14.0286H2.03062C1.57801 14.0286 1.57801 14.7076 2.03062 14.7076Z" fill="#A62251"/>
<path fill-rule="evenodd" clip-rule="evenodd" d="M8.13593 15.6274H2.03063C1.57801 15.6274 1.57801 16.3064 2.03063 16.3064H8.13593C8.58855 16.3064 8.58855 15.6274 8.13593 15.6274Z" fill="#A62251"/>
<path fill-rule="evenodd" clip-rule="evenodd" d="M5.50646 17.2271H2.05748C1.60486 17.2271 1.60486 17.9061 2.05748 17.9061H5.50646C5.95908 17.9061 5.95908 17.2271 5.50646 17.2271Z" fill="#A62251"/>
<path fill-rule="evenodd" clip-rule="evenodd" d="M18.1266 14.0461C18.1238 11.7115 16.3259 9.77199 13.9984 9.59243V3.15217C13.9984 3.06223 13.9626 2.97584 13.8989 2.91222L11.0862 0.0995116C11.0225 0.0358863 10.9362 0 10.8462 0H0.339466C0.151822 0 0 0.15208 0 0.339465V19.1555C0 19.3429 0.151822 19.495 0.339466 19.495H13.6589C13.8464 19.495 13.9984 19.3429 13.9984 19.1555V18.4995C16.3257 18.3197 18.1235 16.3804 18.1266 14.0461ZM11.1857 1.15909L12.8393 2.81245H11.1857V1.15909ZM0.678931 18.816V0.678929H10.5068V3.15217C10.5068 3.33956 10.6588 3.49164 10.8462 3.49164H13.3195V9.59243C10.9909 9.76973 9.19209 11.7108 9.19209 14.0459C9.19209 16.3809 10.9909 18.322 13.3195 18.4993V18.8158L0.678931 18.816ZM13.6589 17.8348C12.1263 17.8348 10.745 16.9116 10.1585 15.4956C9.57196 14.08 9.8963 12.4503 10.9799 11.3668C12.0634 10.2832 13.6931 9.95912 15.109 10.5456C16.5247 11.1321 17.4479 12.5137 17.4476 14.0461C17.4454 16.1374 15.7503 17.8322 13.6589 17.8348Z" fill="#A62251"/>
<path fill-rule="evenodd" clip-rule="evenodd" d="M14.8066 11.9458C14.7338 11.9458 14.6748 12.0048 14.6748 12.0776V13.3276C14.6748 13.4347 14.5879 13.5216 14.4808 13.5216H13.6064C13.5348 13.5216 13.4691 13.4822 13.4353 13.4191L12.7022 12.0483C12.6685 11.9852 12.6027 11.9458 12.5312 11.9458H12.4765C12.382 11.9458 12.3055 12.0223 12.3055 12.1168V13.3276C12.3055 13.4347 12.2186 13.5216 12.1115 13.5216H11.9106C11.8379 13.5216 11.7791 13.5805 11.7791 13.6531C11.7791 13.7257 11.8379 13.7846 11.9106 13.7846H12.1115C12.2186 13.7846 12.3055 13.8715 12.3055 13.9786V14.1159C12.3055 14.223 12.2186 14.3099 12.1115 14.3099H11.9106C11.8379 14.3099 11.7791 14.3688 11.7791 14.4414C11.7791 14.514 11.8379 14.5729 11.9106 14.5729H12.1115C12.2186 14.5729 12.3055 14.6598 12.3055 14.7669V16.0173C12.3055 16.0899 12.3643 16.1487 12.4369 16.1487C12.5094 16.1487 12.5683 16.0899 12.5683 16.0173V14.7669C12.5683 14.6598 12.6551 14.5729 12.7623 14.5729H13.6375C13.7091 14.5729 13.7748 14.6123 13.8086 14.6754L14.5417 16.0462C14.5754 16.1093 14.6412 16.1487 14.7127 16.1487H14.7674C14.8619 16.1487 14.9384 16.0721 14.9384 15.9777V14.7669C14.9384 14.6598 15.0253 14.5729 15.1324 14.5729H15.3333C15.406 14.5729 15.4648 14.514 15.4648 14.4414C15.4648 14.3688 15.406 14.3099 15.3333 14.3099H15.1324C15.0253 14.3099 14.9384 14.223 14.9384 14.1159V13.9786C14.9384 13.8715 15.0253 13.7846 15.1324 13.7846H15.3333C15.406 13.7846 15.4648 13.7257 15.4648 13.6531C15.4648 13.5805 15.406 13.5216 15.3333 13.5216H15.1324C15.0253 13.5216 14.9384 13.4347 14.9384 13.3276V12.0776C14.9384 12.0048 14.8794 11.9458 14.8066 11.9458ZM12.8432 12.87L13.0448 13.2466C13.0935 13.3376 13.0592 13.4508 12.9683 13.4995C12.9411 13.514 12.9109 13.5216 12.8801 13.5216H12.7623C12.6551 13.5216 12.5683 13.4347 12.5683 13.3276V12.9389C12.5683 12.8582 12.6337 12.7928 12.7144 12.7928C12.7683 12.7928 12.8178 12.8225 12.8432 12.87ZM12.5683 14.1159V13.9786C12.5683 13.8715 12.6551 13.7846 12.7623 13.7846H13.2157C13.2873 13.7846 13.3531 13.824 13.3868 13.8871L13.4724 14.0472C13.5189 14.1342 13.4861 14.2423 13.3992 14.2888C13.3733 14.3026 13.3444 14.3099 13.3151 14.3099H12.7623C12.6551 14.3099 12.5683 14.223 12.5683 14.1159ZM14.4001 15.2243L14.1987 14.8476C14.1501 14.7566 14.1845 14.6435 14.2754 14.5949C14.3025 14.5805 14.3327 14.5729 14.3634 14.5729H14.4808C14.5879 14.5729 14.6748 14.6598 14.6748 14.7669V15.1556C14.6748 15.2362 14.6095 15.3015 14.5289 15.3015C14.475 15.3015 14.4255 15.2718 14.4001 15.2243ZM14.4808 14.3099H14.028C13.9564 14.3099 13.8907 14.2705 13.8569 14.2074L13.7713 14.0472C13.7248 13.9603 13.7576 13.8522 13.8445 13.8057C13.8704 13.7919 13.8993 13.7846 13.9287 13.7846H14.4808C14.5879 13.7846 14.6748 13.8715 14.6748 13.9786V14.1159C14.6748 14.223 14.5879 14.3099 14.4808 14.3099Z" fill="#A62251"/>
</svg>
