<svg width="53" height="50" viewBox="0 0 53 50" fill="none" xmlns="http://www.w3.org/2000/svg">
<path fill-rule="evenodd" clip-rule="evenodd" d="M45.3456 42.7071V49.8805H47.4932V42.7071H49.5679V40.5817H43.2588V42.7071H45.3456Z" fill="#9D0F3E"/>
<path fill-rule="evenodd" clip-rule="evenodd" d="M36.1543 50L35.6569 48.831H32.3082L31.8108 50H29.6875V49.6546L33.5094 40.5817H34.4436L38.2776 49.6546V50H36.1543ZM34.9532 46.7986L33.9704 44.3543L33.0119 46.7986H34.9532Z" fill="#9D0F3E"/>
<path fill-rule="evenodd" clip-rule="evenodd" d="M20.8441 40.5817H18.6602V49.8805H23.9258V47.7417H20.8441V40.5817Z" fill="#9D0F3E"/>
<path fill-rule="evenodd" clip-rule="evenodd" d="M11.5557 50L11.0582 48.831H7.70957L7.21212 50H5.08887V49.6546L8.91073 40.5817H9.84496L13.6789 49.6546V50H11.5557ZM10.3545 46.7986L9.37178 44.3543L8.41328 46.7986H10.3545Z" fill="#9D0F3E"/>
<path fill-rule="evenodd" clip-rule="evenodd" d="M31.9874 0C32.303 0 32.5924 0.161112 32.7502 0.431233L52.1231 33.5627C52.1968 33.6926 52.2388 33.8432 52.2388 33.9939C52.2388 34.4718 51.8444 34.8614 51.3604 34.8614H35.3697C35.0541 34.8666 34.7648 34.7004 34.607 34.4302L20.4994 10.2959C20.4205 10.166 20.3101 10.0569 20.1785 9.97899C19.7577 9.74004 19.2212 9.88031 18.9793 10.2959L8.0067 29.0642C7.93306 29.194 7.89097 29.3447 7.89097 29.4953C7.89097 29.9732 8.28548 30.3628 8.7694 30.3628C8.7694 30.3628 24.4139 30.3819 24.7572 30.3846C24.7628 30.3846 24.7685 30.385 24.7741 30.3859L25.5894 30.3864C25.9047 30.3865 26.1903 30.5539 26.3481 30.8244L27.8981 33.567C28.1402 33.9818 27.9968 34.5149 27.5787 34.754C27.447 34.8293 27.2941 34.8686 27.1437 34.8705L14.4113 34.8666H0.879259C0.726722 34.8666 0.574175 34.825 0.442673 34.7523C0.0218682 34.5133 -0.125415 33.9835 0.116545 33.5679L18.9793 1.29868C19.0582 1.16883 19.1686 1.05973 19.3001 0.981806C19.7209 0.742856 20.2574 0.883127 20.4994 1.29868L37.2476 29.9368C37.4001 30.2018 37.6895 30.368 38.005 30.368H43.4755C43.6281 30.368 43.7806 30.3316 43.9121 30.2537C44.3329 30.0148 44.4802 29.4849 44.2382 29.0693L28.1266 1.29868C28.0529 1.16883 28.0109 1.01823 28.0109 0.867541C28.0109 0.389641 28.4053 9.06143e-05 28.8893 0H31.9874Z" fill="#9D0F3E"/>
</svg>
