<svg width="70" height="70" viewBox="0 0 70 70" fill="none" xmlns="http://www.w3.org/2000/svg">
<g opacity="0.28" clip-path="url(#clip0)">
<path d="M50.8383 2.86102e-06H19.1615C16.5224 2.86102e-06 14.3624 2.15794 14.3624 4.79903V19.9899V50.0122V65.203C14.3624 67.8441 16.5224 70 19.1615 70H50.8383C53.4773 70 55.6373 67.8441 55.6373 65.203V50.0122V19.9899V4.79903C55.6373 2.15794 53.4773 2.86102e-06 50.8383 2.86102e-06ZM25.9926 64.4742H20.82C19.8679 64.4742 19.0945 63.7028 19.0945 62.7507C19.0945 61.7966 19.8679 61.0231 20.82 61.0231H25.9926C26.9446 61.0231 27.7181 61.7966 27.7181 62.7507C27.7181 63.7028 26.9446 64.4742 25.9926 64.4742ZM25.9926 57.8969H20.82C19.8679 57.8969 19.0945 57.1234 19.0945 56.1713C19.0945 55.2193 19.8679 54.4458 20.82 54.4458H25.9926C26.9446 54.4458 27.7181 55.2193 27.7181 56.1713C27.7181 57.1234 26.9446 57.8969 25.9926 57.8969ZM25.9926 51.3195H20.82C19.8679 51.3195 19.0945 50.5481 19.0945 49.596C19.0945 48.6399 19.8679 47.8685 20.82 47.8685H25.9926C26.9446 47.8685 27.7181 48.6399 27.7181 49.596C27.7181 50.5481 26.9446 51.3195 25.9926 51.3195ZM25.9926 44.7442H20.82C19.8679 44.7442 19.0945 43.9708 19.0945 43.0187C19.0945 42.0666 19.8679 41.2911 20.82 41.2911H25.9926C26.9446 41.2911 27.7181 42.0666 27.7181 43.0187C27.7181 43.9708 26.9446 44.7442 25.9926 44.7442ZM37.5861 64.4742H32.4156C31.4615 64.4742 30.6901 63.7028 30.6901 62.7507C30.6901 61.7966 31.4615 61.0231 32.4156 61.0231H37.5861C38.5403 61.0231 39.3117 61.7966 39.3117 62.7507C39.3096 63.7028 38.5382 64.4742 37.5861 64.4742ZM37.5861 57.8969H32.4156C31.4615 57.8969 30.6901 57.1234 30.6901 56.1713C30.6901 55.2193 31.4615 54.4458 32.4156 54.4458H37.5861C38.5403 54.4458 39.3117 55.2193 39.3117 56.1713C39.3117 57.1234 38.5382 57.8969 37.5861 57.8969ZM37.5861 51.3195H32.4156C31.4615 51.3195 30.6901 50.5481 30.6901 49.596C30.6901 48.6399 31.4615 47.8685 32.4156 47.8685H37.5861C38.5403 47.8685 39.3117 48.6399 39.3117 49.596C39.3096 50.5481 38.5382 51.3195 37.5861 51.3195ZM37.5861 44.7442H32.4156C31.4615 44.7442 30.6901 43.9708 30.6901 43.0187C30.6901 42.0666 31.4615 41.2911 32.4156 41.2911H37.5861C38.5403 41.2911 39.3117 42.0666 39.3117 43.0187C39.3117 43.9708 38.5382 44.7442 37.5861 44.7442ZM49.1797 64.4742H44.0051C43.0531 64.4742 42.2796 63.7028 42.2796 62.7507C42.2796 61.7966 43.0531 61.0231 44.0051 61.0231H49.1797C50.1318 61.0231 50.9053 61.7966 50.9053 62.7507C50.9032 63.7028 50.1298 64.4742 49.1797 64.4742ZM49.1797 57.8969H44.0051C43.0531 57.8969 42.2796 57.1234 42.2796 56.1713C42.2796 55.2193 43.0531 54.4458 44.0051 54.4458H49.1797C50.1318 54.4458 50.9053 55.2193 50.9053 56.1713C50.9053 57.1234 50.1298 57.8969 49.1797 57.8969ZM49.1797 51.3195H44.0051C43.0531 51.3195 42.2796 50.5481 42.2796 49.596C42.2796 48.6399 43.0531 47.8685 44.0051 47.8685H49.1797C50.1318 47.8685 50.9053 48.6399 50.9053 49.596C50.9032 50.5481 50.1298 51.3195 49.1797 51.3195ZM49.1797 44.7442H44.0051C43.0531 44.7442 42.2796 43.9708 42.2796 43.0187C42.2796 42.0666 43.0531 41.2911 44.0051 41.2911H49.1797C50.1318 41.2911 50.9053 42.0666 50.9053 43.0187C50.9053 43.9708 50.1298 44.7442 49.1797 44.7442ZM51.0068 37.3122H18.993V5.62526H51.0068V37.3122V37.3122Z" fill="#616161"/>
</g>
<defs>
<clipPath id="clip0">
<rect width="70" height="70" fill="white"/>
</clipPath>
</defs>
</svg>
