<svg width="56" height="70" viewBox="0 0 56 70" fill="none" xmlns="http://www.w3.org/2000/svg">
<g opacity="0.28">
<path d="M29.2807 20.5228H3.40855C1.57069 20.5228 0.0800781 22.0137 0.0800781 23.8513V66.6067C0.0800781 68.4444 1.57069 69.9354 3.40855 69.9354H29.2811C31.1191 69.9354 32.6096 68.4444 32.6096 66.6067V23.8513C32.609 22.0134 31.1187 20.5228 29.2807 20.5228ZM4.67958 26.6471C4.67958 26.1825 5.05535 25.8064 5.5197 25.8064H27.173C27.6375 25.8064 28.0131 26.1825 28.0131 26.6471V58.1481C28.0131 58.6128 27.6375 58.9885 27.173 58.9885H5.5197C5.05511 58.9885 4.67958 58.6128 4.67958 58.1481V26.6471ZM10.9026 64.8904C10.9026 65.3368 10.5405 65.699 10.0939 65.699H4.35475C3.90826 65.699 3.5464 65.3366 3.5464 64.8904V63.4726C3.5464 63.0264 3.90826 62.664 4.35475 62.664H10.0939C10.5404 62.664 10.9026 63.0264 10.9026 63.4726V64.8904ZM16.3467 66.4574C15.0884 66.4574 14.0705 65.4396 14.0705 64.1822C14.0705 62.9248 15.0885 61.9058 16.3467 61.9058C17.6027 61.9058 18.6231 62.9248 18.6231 64.1822C18.6234 65.4393 17.603 66.4574 16.3467 66.4574ZM29.144 64.8904C29.144 65.3368 28.7819 65.699 28.3355 65.699H22.5966C22.1501 65.699 21.7879 65.3366 21.7879 64.8904V63.4726C21.7879 63.0264 22.15 62.664 22.5966 62.664H28.3357C28.7822 62.664 29.1442 63.0264 29.1442 63.4726V64.8904H29.144Z" fill="#616161"/>
<path d="M30.2609 9.63391C28.9728 9.63391 27.9287 10.6779 27.9287 11.9662C27.9287 13.2541 28.9728 14.2985 30.2609 14.2985C32.8552 14.2985 35.2944 15.3086 37.1286 17.143C38.9622 18.9774 39.9722 21.4155 39.9722 24.0094C39.9722 25.2976 41.0163 26.3417 42.3045 26.3417C43.5922 26.3417 44.6367 25.2976 44.6367 24.0094C44.6377 20.1707 43.1423 16.561 40.4268 13.8449C37.7106 11.1292 34.1009 9.63391 30.2609 9.63391Z" fill="#616161"/>
<path d="M30.2623 0C28.9742 0 27.9301 1.04413 27.9301 2.33229C27.9301 3.62022 28.9742 4.66459 30.2623 4.66459C40.93 4.66459 49.6085 13.3432 49.6085 24.0096C49.6085 25.2978 50.6526 26.3419 51.9408 26.3419C53.2286 26.3419 54.2729 25.2978 54.2729 24.0096C54.2726 10.7704 43.5011 0 30.2623 0Z" fill="#616161"/>
</g>
</svg>
