<svg width="24" height="26" viewBox="0 0 24 26" fill="none" xmlns="http://www.w3.org/2000/svg">
<path fill-rule="evenodd" clip-rule="evenodd" d="M2.85904 5.48071L3.16729 5.31497V10.0421C3.16729 10.2839 3.36295 10.4796 3.60478 10.4796H5.86909C6.11092 10.4796 6.30659 10.2839 6.30659 10.0421V8.0363H7.7844V10.0421C7.7844 10.2839 7.9804 10.4796 8.2219 10.4796H10.4862C10.728 10.4796 10.9237 10.2839 10.9237 10.0421V5.31563L11.2388 5.48263C11.453 5.60046 11.7222 5.52004 11.8364 5.3043C11.951 5.08847 11.8664 4.82056 11.6486 4.70957L7.22358 2.36522C7.095 2.29655 6.94066 2.29655 6.81175 2.36522L2.44529 4.70957C1.9313 4.98523 2.34504 5.75637 2.85904 5.48071ZM7.02008 3.24769L10.0487 4.85248V9.60459H8.6594V7.59882C8.6594 7.35724 8.46348 7.16133 8.2219 7.16133H5.86909C5.62718 7.161 5.43093 7.35691 5.43093 7.59882V9.60459H4.04228V4.84565L7.02008 3.24769Z" fill="#4D4D4D"/>
<path fill-rule="evenodd" clip-rule="evenodd" d="M2.61717 12.7729H12.0299C12.6132 12.7729 12.6132 11.8979 12.0299 11.8979H2.61717C2.03386 11.8979 2.03386 12.7729 2.61717 12.7729Z" fill="#4D4D4D"/>
<path fill-rule="evenodd" clip-rule="evenodd" d="M2.61717 14.8339H7.09621C7.67953 14.8339 7.67953 13.959 7.09621 13.959H2.61717C2.03386 13.959 2.03386 14.8339 2.61717 14.8339Z" fill="#4D4D4D"/>
<path fill-rule="evenodd" clip-rule="evenodd" d="M10.4855 16.0186H2.61718C2.03386 16.0186 2.03386 16.8936 2.61718 16.8936H10.4855C11.0688 16.8936 11.0688 16.0186 10.4855 16.0186Z" fill="#4D4D4D"/>
<path fill-rule="evenodd" clip-rule="evenodd" d="M2.61717 18.9547H7.09621C7.67953 18.9547 7.67953 18.0796 7.09621 18.0796H2.61717C2.03386 18.0796 2.03386 18.9547 2.61717 18.9547Z" fill="#4D4D4D"/>
<path fill-rule="evenodd" clip-rule="evenodd" d="M10.4855 20.1399H2.61718C2.03386 20.1399 2.03386 21.0149 2.61718 21.0149H10.4855C11.0688 21.0149 11.0688 20.1399 10.4855 20.1399Z" fill="#4D4D4D"/>
<path fill-rule="evenodd" clip-rule="evenodd" d="M7.09676 22.2017H2.65185C2.06852 22.2017 2.06852 23.0768 2.65185 23.0768H7.09676C7.68008 23.0768 7.68008 22.2017 7.09676 22.2017Z" fill="#4D4D4D"/>
<path fill-rule="evenodd" clip-rule="evenodd" d="M23.3609 18.1021C23.3573 15.0934 21.0403 12.5938 18.0406 12.3624V4.06241C18.0406 3.94649 17.9945 3.83516 17.9124 3.75316L14.2875 0.128247C14.2055 0.0462489 14.0941 0 13.9782 0H0.437491C0.195663 0 0 0.195996 0 0.43749V24.6869C0 24.9284 0.195663 25.1244 0.437491 25.1244H17.6032C17.8447 25.1244 18.0406 24.9284 18.0406 24.6869V23.8415C21.0399 23.6098 23.357 21.1105 23.3609 18.1021ZM14.4157 1.4938L16.5468 3.62458H14.4157V1.4938ZM0.874983 24.2494V0.87498H13.5407V4.06241C13.5407 4.3039 13.7367 4.4999 13.9782 4.4999H17.1657V12.3624C14.1647 12.5909 11.8464 15.0924 11.8464 18.1018C11.8464 21.1112 14.1647 23.6127 17.1657 23.8413V24.2491L0.874983 24.2494ZM17.6032 22.9848C15.6279 22.9848 13.8477 21.7951 13.0919 19.9702C12.336 18.1458 12.754 16.0455 14.1505 14.6491C15.5469 13.2526 17.6472 12.835 19.4719 13.5909C21.2965 14.3467 22.4862 16.1272 22.4859 18.1021C22.483 20.7974 20.2984 22.9816 17.6032 22.9848Z" fill="#4D4D4D"/>
<path fill-rule="evenodd" clip-rule="evenodd" d="M19.082 15.395C18.9882 15.395 18.9121 15.4711 18.9121 15.5649V17.1758C18.9121 17.3139 18.8002 17.4258 18.6621 17.4258H17.5352C17.4429 17.4258 17.3582 17.375 17.3147 17.2937L16.37 15.5271C16.3265 15.4458 16.2417 15.395 16.1495 15.395H16.079C15.9573 15.395 15.8586 15.4937 15.8586 15.6154V17.1758C15.8586 17.3139 15.7467 17.4258 15.6086 17.4258H15.3497C15.2561 17.4258 15.1802 17.5017 15.1802 17.5953C15.1802 17.6889 15.2561 17.7648 15.3497 17.7648H15.6086C15.7467 17.7648 15.8586 17.8767 15.8586 18.0148V18.1918C15.8586 18.3298 15.7467 18.4417 15.6086 18.4417H15.3497C15.2561 18.4417 15.1802 18.5176 15.1802 18.6112C15.1802 18.7049 15.2561 18.7807 15.3497 18.7807H15.6086C15.7467 18.7807 15.8586 18.8927 15.8586 19.0307V20.6422C15.8586 20.7357 15.9344 20.8115 16.028 20.8115C16.1215 20.8115 16.1973 20.7357 16.1973 20.6422V19.0307C16.1973 18.8927 16.3092 18.7807 16.4473 18.7807H17.5753C17.6675 18.7807 17.7523 18.8315 17.7958 18.9128L18.7405 20.6794C18.784 20.7608 18.8687 20.8115 18.961 20.8115H19.0315C19.1532 20.8115 19.2519 20.7129 19.2519 20.5912V19.0307C19.2519 18.8927 19.3638 18.7807 19.5019 18.7807H19.7608C19.8544 18.7807 19.9303 18.7049 19.9303 18.6112C19.9303 18.5176 19.8544 18.4417 19.7608 18.4417H19.5019C19.3638 18.4417 19.2519 18.3298 19.2519 18.1918V18.0148C19.2519 17.8767 19.3638 17.7648 19.5019 17.7648H19.7608C19.8544 17.7648 19.9303 17.6889 19.9303 17.5953C19.9303 17.5017 19.8544 17.4258 19.7608 17.4258H19.5019C19.3638 17.4258 19.2519 17.3139 19.2519 17.1758V15.5649C19.2519 15.4711 19.1758 15.395 19.082 15.395ZM16.5516 16.5861L16.8114 17.0715C16.8742 17.1887 16.83 17.3346 16.7128 17.3973C16.6778 17.416 16.6388 17.4258 16.5992 17.4258H16.4473C16.3092 17.4258 16.1973 17.3139 16.1973 17.1758V16.6749C16.1973 16.5709 16.2816 16.4866 16.3856 16.4866C16.4551 16.4866 16.5189 16.5249 16.5516 16.5861ZM16.1973 18.1918V18.0148C16.1973 17.8767 16.3092 17.7648 16.4473 17.7648H17.0317C17.124 17.7648 17.2087 17.8156 17.2522 17.8969L17.3626 18.1033C17.4225 18.2153 17.3802 18.3547 17.2682 18.4146C17.2348 18.4324 17.1976 18.4417 17.1597 18.4417H16.4473C16.3092 18.4417 16.1973 18.3298 16.1973 18.1918ZM18.5581 19.6203L18.2986 19.1347C18.236 19.0175 18.2802 18.8718 18.3974 18.8091C18.4322 18.7905 18.4712 18.7807 18.5108 18.7807H18.6621C18.8002 18.7807 18.9121 18.8927 18.9121 19.0307V19.5316C18.9121 19.6355 18.8279 19.7197 18.724 19.7197C18.6546 19.7197 18.5909 19.6815 18.5581 19.6203ZM18.6621 18.4417H18.0785C17.9863 18.4417 17.9016 18.391 17.8581 18.3096L17.7477 18.1033C17.6878 17.9913 17.73 17.8519 17.8421 17.792C17.8754 17.7742 17.9127 17.7648 17.9505 17.7648H18.6621C18.8002 17.7648 18.9121 17.8767 18.9121 18.0148V18.1918C18.9121 18.3298 18.8002 18.4417 18.6621 18.4417Z" fill="#4D4D4D" stroke="#4D4D4D" stroke-width="0.1"/>
</svg>
