<svg width="24" height="26" viewBox="0 0 24 26" fill="none" xmlns="http://www.w3.org/2000/svg">
<path fill-rule="evenodd" clip-rule="evenodd" d="M23.3609 18.1021C23.3573 15.0934 21.0403 12.5938 18.0406 12.3624V4.06241C18.0406 3.94649 17.9945 3.83516 17.9124 3.75316L14.2875 0.128247C14.2055 0.0462489 14.0941 0 13.9782 0H0.437491C0.195663 0 0 0.195996 0 0.43749V24.6869C0 24.9284 0.195663 25.1244 0.437491 25.1244H17.6032C17.8447 25.1244 18.0406 24.9284 18.0406 24.6869V23.8415C21.0399 23.6098 23.357 21.1105 23.3609 18.1021ZM14.4157 1.4938L16.5468 3.62458H14.4157V1.4938ZM0.874983 24.2494V0.87498H13.5407V4.06241C13.5407 4.3039 13.7367 4.4999 13.9782 4.4999H17.1657V12.3624C14.1647 12.5909 11.8464 15.0924 11.8464 18.1018C11.8464 21.1112 14.1647 23.6127 17.1657 23.8413V24.2491L0.874983 24.2494ZM17.6032 22.9848C15.6279 22.9848 13.8477 21.7951 13.0919 19.9702C12.336 18.1458 12.754 16.0455 14.1505 14.6491C15.5469 13.2526 17.6472 12.835 19.4719 13.5909C21.2965 14.3467 22.4862 16.1272 22.4859 18.1021C22.483 20.7974 20.2984 22.9816 17.6032 22.9848Z" fill="white"/>
</svg>
