<svg width="67" height="67" viewBox="0 0 67 67" fill="none" xmlns="http://www.w3.org/2000/svg">
<path fill-rule="evenodd" clip-rule="evenodd" d="M60.6219 33.1913L63.6616 33.5709C65.5649 33.8084 67 35.43 67 37.3427V43.9218C67 45.8345 65.5647 47.4562 63.6615 47.6937L60.9413 48.0334C59.7547 51.3351 57.7497 54.2745 55.0927 56.6047V63.2161C55.0927 65.3025 53.3905 67 51.2983 67H43.7076C41.6152 67 39.913 65.3025 39.913 63.2161V61.772H31.5362V63.2161C31.5362 65.3025 29.834 67 27.7417 67H20.1509C18.0587 67 16.3565 65.3025 16.3565 63.2161V58.8826C10.0414 55.1512 6.15039 48.3807 6.15039 41.0275C6.15039 40.1921 6.20156 39.3686 6.29839 38.5587H5.82324C2.61235 38.5587 0 35.9538 0 32.7518C0 29.5497 2.61235 26.9448 5.82324 26.9448C6.54585 26.9448 7.13184 27.529 7.13184 28.2497C7.13184 28.9704 6.54585 29.5547 5.82324 29.5547C4.05533 29.5547 2.61719 30.9889 2.61719 32.7518C2.61719 34.5146 4.05533 35.9489 5.82324 35.9489H6.78205C9.05966 26.9574 17.239 20.2831 26.953 20.2831H28.5928C29.3154 20.2831 29.9014 20.8673 29.9014 21.588C29.9014 22.3087 29.3154 22.8929 28.5928 22.8929H26.953C16.9255 22.8929 8.76758 31.0281 8.76758 41.0275C8.76758 47.6851 12.4163 53.7962 18.2896 56.9761C18.7112 57.2043 18.9738 57.6444 18.9738 58.1229V63.2159C18.9738 63.8633 19.502 64.39 20.151 64.39H27.7419C28.3911 64.39 28.9193 63.8633 28.9193 63.2159V60.467C28.9193 59.7462 29.5053 59.162 30.2279 59.162H41.2219C41.9445 59.162 42.5305 59.7462 42.5305 60.467V63.2159C42.5305 63.8633 43.0586 64.39 43.7078 64.39H51.2986C51.9476 64.39 52.4758 63.8633 52.4758 63.2159V56.003C52.4758 55.6145 52.6494 55.2462 52.9495 54.9982C55.6718 52.749 57.665 49.7932 58.7141 46.4506C58.8672 45.9627 59.2919 45.6089 59.8005 45.5455L63.3367 45.104C63.9332 45.0295 64.3831 44.5213 64.3831 43.9218V37.3427C64.3831 36.7432 63.9333 36.2349 63.3367 36.1604L59.5206 35.684C59.0333 35.6231 58.6209 35.2951 58.4533 34.8347C57.5779 32.432 56.2283 30.288 54.521 28.501C54.3956 28.4115 54.289 28.3009 54.2034 28.1759C51.8613 25.8448 48.8898 24.1651 45.5588 23.3794C44.8555 23.2136 44.4202 22.5106 44.5865 21.8092C44.7529 21.1077 45.4578 20.6738 46.1612 20.8396C47.1363 21.0697 48.0925 21.3733 49.0227 21.742C50.3378 18.3277 53.6814 16 57.3914 16H57.396L57.6819 16.0001C58.0817 16.0004 58.4595 16.1828 58.7076 16.4955C58.9557 16.8081 59.0468 17.2167 58.9549 17.6048L56.7199 27.0466C58.3701 28.851 59.6978 30.9366 60.6219 33.1913ZM51 22.9611C52.1981 23.5471 53.3372 24.2296 54.4007 25L56 19C53.7089 19.4656 51.7877 20.9569 51 22.9611Z" fill="#AB2656"/>
<path d="M51.7069 33.293C51.521 33.107 51.263 33 51 33C50.737 33 50.479 33.107 50.293 33.293C50.107 33.479 50 33.737 50 34C50 34.263 50.1069 34.521 50.293 34.707C50.4791 34.893 50.737 35 51 35C51.263 35 51.521 34.893 51.7069 34.707C51.8929 34.521 52 34.263 52 34C52 33.737 51.8929 33.479 51.7069 33.293Z" fill="#AB2656"/>
<path d="M38.5 8C37.6717 8 37 8.52525 37 9.17322V13.8268C37 14.4748 37.6717 15 38.5 15C39.3283 15 40 14.4748 40 13.8268V9.17322C40 8.52537 39.3284 8 38.5 8Z" fill="#AB2656"/>
<path d="M39.5603 3.4395C39.2815 3.1605 38.8945 3 38.5 3C38.1054 3 37.7185 3.1605 37.4395 3.4395C37.1605 3.7185 37 4.1055 37 4.5C37 4.896 37.1603 5.2815 37.4395 5.5605C37.7185 5.8395 38.1054 6 38.5 6C38.8945 6 39.2815 5.8395 39.5603 5.5605C39.8393 5.2815 40 4.8945 40 4.5C40 4.1055 39.8393 3.72 39.5603 3.4395Z" fill="#AB2656"/>
<path d="M27.5 0C26.6717 0 26 0.605 26 1.35135V3.64865C26 4.395 26.6717 5 27.5 5C28.3283 5 29 4.395 29 3.64865V1.35135C29 0.605 28.3284 0 27.5 0Z" fill="#AB2656"/>
<path d="M14.9998 40.9771C14.9998 40.4374 14.3282 40 13.4999 40C12.6717 40 12 40.4374 12 40.9771L12.0001 41.029C12.0052 41.5665 12.6759 42 13.4999 42C13.5029 42 13.5061 42 13.5094 42C14.3376 41.9966 15.0051 41.5564 15 41.0168L14.9998 40.9771Z" fill="#AB2656"/>
<path d="M20.3837 51.3784C18.1533 49.8828 16.4123 47.585 15.4816 44.9084C15.2279 44.1791 14.4859 43.8145 13.8243 44.0941C13.1627 44.3735 12.8317 45.1909 13.0853 45.9201C14.2182 49.1783 16.3365 51.9745 19.0498 53.7937C19.2582 53.9334 19.4882 54 19.7155 54C20.1485 54 20.5713 53.7584 20.8129 53.321C21.1813 52.654 20.9889 51.7843 20.3837 51.3784Z" fill="#AB2656"/>
<path fill-rule="evenodd" clip-rule="evenodd" d="M22 11.5C22 8.46727 24.4673 6 27.5 6C30.5327 6 33 8.46727 33 11.5C33 14.5327 30.5327 17 27.5 17C24.4673 17 22 14.5327 22 11.5ZM25 12C25 13.6542 26.3458 15 28 15C29.6542 15 31 13.6542 31 12C31 10.3458 29.6542 9 28 9C26.3458 9 25 10.3458 25 12Z" fill="#AB2656"/>
<path fill-rule="evenodd" clip-rule="evenodd" d="M43.4667 27.381H44.6667C45.4031 27.381 46 27.9672 46 28.6905C46 29.4137 45.4029 30 44.6667 30H27.3333C26.5971 30 26 29.4137 26 28.6905C26 27.9672 26.5971 27.381 27.3333 27.381H33.9311C33.4039 26.5425 33.0988 25.5557 33.0989 24.5C33.0989 21.4673 35.6111 19 38.6989 19C41.7868 19 44.2989 21.4673 44.2989 24.5C44.2989 25.5557 43.9939 26.5425 43.4667 27.381ZM35 25C35 26.6542 36.3458 28 38 28C39.6541 28 41 26.6542 41 25C41 23.3458 39.6542 22 38 22C36.3458 22 35 23.3458 35 25Z" fill="#AB2656"/>
</svg>
