<svg width="89" height="46" viewBox="0 0 89 46" fill="none" xmlns="http://www.w3.org/2000/svg">
<path d="M87.2206 45.223C87.254 45.2164 87.2866 45.2074 87.3194 45.1989C87.3474 45.1917 87.3756 45.1858 87.4031 45.1774C87.4352 45.1676 87.4665 45.1555 87.4978 45.1442C87.5255 45.1342 87.5535 45.1252 87.581 45.1137C87.6105 45.1014 87.639 45.087 87.6677 45.0734C87.6957 45.0601 87.7242 45.0477 87.7517 45.0328C87.7791 45.0182 87.8051 45.0015 87.8318 44.9856C87.8592 44.9692 87.8869 44.9538 87.9136 44.9358C87.9421 44.9168 87.9686 44.8958 87.996 44.8752C88.0191 44.858 88.0427 44.8419 88.0653 44.8234C88.1069 44.7893 88.1464 44.7528 88.1849 44.7153C88.1919 44.7086 88.1993 44.703 88.2063 44.6961C88.2134 44.6889 88.2196 44.6809 88.2265 44.6735C88.2635 44.6355 88.2994 44.5965 88.3333 44.5554C88.3531 44.5313 88.3703 44.5061 88.3888 44.4812C88.4078 44.4556 88.4278 44.4307 88.4455 44.404C88.4645 44.3755 88.4812 44.346 88.4986 44.3167C88.5133 44.2921 88.5289 44.2679 88.5425 44.2425C88.5584 44.213 88.5718 44.1824 88.5859 44.1524C88.5985 44.1257 88.6118 44.0993 88.6234 44.0718C88.6357 44.0423 88.6454 44.0123 88.6562 43.9822C88.6667 43.953 88.678 43.924 88.687 43.8942C88.6963 43.8639 88.7029 43.8331 88.7106 43.8023C88.7181 43.772 88.7268 43.7422 88.7327 43.7117C88.7399 43.6755 88.7443 43.639 88.7494 43.6026C88.753 43.5769 88.7579 43.5515 88.7604 43.5256C88.7669 43.4617 88.7702 43.3978 88.7702 43.3336V2.18514C88.7702 1.1217 87.9085 0.26001 86.8451 0.26001H26.2035C26.1866 0.26001 26.1701 0.262062 26.1532 0.262575C26.1165 0.263602 26.0801 0.265143 26.0436 0.268223C26.0146 0.270533 25.9858 0.273871 25.9571 0.277721C25.9242 0.281828 25.8916 0.286705 25.859 0.292608C25.8285 0.297999 25.7982 0.304415 25.7682 0.311346C25.7376 0.318533 25.7071 0.326234 25.6768 0.334961C25.6468 0.343432 25.6173 0.352671 25.588 0.362425C25.558 0.372693 25.5279 0.383475 25.4984 0.395282C25.4704 0.40632 25.443 0.417612 25.4158 0.429933C25.3855 0.443537 25.3554 0.45817 25.3257 0.473314C25.3002 0.486405 25.2753 0.499752 25.2507 0.51387C25.2209 0.530811 25.1917 0.548779 25.1627 0.56726C25.1388 0.582661 25.1154 0.598575 25.0923 0.614746C25.0651 0.633997 25.0382 0.654019 25.0117 0.675067C24.9876 0.694318 24.964 0.714083 24.9406 0.734361C24.9175 0.754639 24.8947 0.774916 24.8724 0.796478C24.8469 0.820863 24.8226 0.846274 24.7984 0.871943C24.7864 0.884777 24.7735 0.896072 24.762 0.909163C24.7551 0.916863 24.7497 0.925335 24.743 0.933035C24.7189 0.961014 24.6963 0.990275 24.6737 1.01979C24.6573 1.04135 24.6403 1.06292 24.6249 1.08499C24.6049 1.11374 24.5864 1.14326 24.5679 1.17303C24.5528 1.19742 24.5371 1.22155 24.5233 1.24644C24.5071 1.27519 24.493 1.30471 24.4783 1.33423C24.465 1.36118 24.4511 1.38813 24.4391 1.4156C24.4265 1.44461 24.4155 1.47464 24.4044 1.50416C24.3934 1.53316 24.3821 1.56191 24.3726 1.59117C24.3631 1.62069 24.3554 1.65072 24.3472 1.68075C24.339 1.71156 24.3302 1.7421 24.3233 1.77316C24.3169 1.80216 24.3125 1.83168 24.3074 1.86095C24.3017 1.89432 24.2961 1.92768 24.292 1.96105C24.2887 1.98877 24.2871 2.01701 24.2851 2.04524C24.2825 2.08118 24.2802 2.11712 24.2797 2.15331C24.2794 2.16383 24.2781 2.1741 24.2781 2.18462V14.0568C24.2781 15.1202 25.1398 15.9819 26.2033 15.9819C27.2667 15.9819 28.1284 15.1202 28.1284 14.0568V6.46021L45.2443 21.614C45.155 21.6769 45.069 21.7465 44.9889 21.8263L28.1281 38.6871V26.0357C28.1281 24.9722 27.2664 24.1105 26.203 24.1105C25.1396 24.1105 24.2779 24.9722 24.2779 26.0357V28.3879H14.3314C13.2679 28.3879 12.4062 29.2496 12.4062 30.3131C12.4062 31.3765 13.2679 32.2382 14.3314 32.2382H24.2779V43.3349C24.2779 44.3983 25.1396 45.26 26.203 45.26H86.8446C86.908 45.26 86.9714 45.2567 87.0345 45.2505C87.064 45.2477 87.0925 45.242 87.1215 45.2379C87.1549 45.2333 87.1877 45.2295 87.2206 45.223ZM84.9197 38.6874L68.0586 21.8266C68.0479 21.8158 68.0363 21.8068 68.0253 21.7965L80.7011 11.0423C81.5117 10.3544 81.6113 9.13973 80.9234 8.32886C80.236 7.51851 79.0213 7.41841 78.21 8.10658L56.5507 26.4826L31.2818 4.11052H84.9197V38.6874V38.6874ZM47.7118 24.5495C47.8492 24.4122 47.9605 24.2592 48.0476 24.0964L55.2478 30.4712C55.6118 30.7933 56.0677 30.955 56.524 30.955C56.9671 30.955 57.4099 30.8028 57.7697 30.4979L65.1075 24.2723C65.1743 24.3698 65.2495 24.463 65.336 24.5495L82.1968 41.4103H30.851L47.7118 24.5495Z" fill="#169A62"/>
<path d="M1.92513 22.1849H34.4385C35.5019 22.1849 36.3636 21.3232 36.3636 20.2598C36.3636 19.1963 35.5019 18.3347 34.4385 18.3347H1.92513C0.861687 18.3347 0 19.1963 0 20.2598C0 21.3232 0.861687 22.1849 1.92513 22.1849Z" fill="#169A62"/>
<path d="M5.29378 11.5759H19.8927C20.9561 11.5759 21.8178 10.7142 21.8178 9.65078C21.8178 8.58733 20.9561 7.72565 19.8927 7.72565H5.29378C4.23034 7.72565 3.36865 8.58733 3.36865 9.65078C3.36865 10.7142 4.23034 11.5759 5.29378 11.5759Z" fill="#169A62"/>
<path d="M16.0427 36.5166H1.92513C0.861687 36.5166 0 37.3783 0 38.4417C0 39.5052 0.861687 40.3669 1.92513 40.3669H16.0427C17.1062 40.3669 17.9679 39.5052 17.9679 38.4417C17.9679 37.3783 17.1062 36.5166 16.0427 36.5166Z" fill="#169A62"/>
</svg>
