<svg width="30" height="30" viewBox="0 0 30 30" fill="none" xmlns="http://www.w3.org/2000/svg">
<path d="M0 30H30V0H0V30ZM28.2422 1.75781V28.2422H1.75781V22.9102H3.51562V26.4844H26.4844V3.51562H3.51562V7.08984H1.75781V1.75781H28.2422ZM5.27344 7.08984V5.27344H24.7266V12.3633C22.7879 12.3633 21.2109 13.9403 21.2109 15.8789C21.2109 17.8175 22.7879 19.3945 24.7266 19.3945V24.7266H5.27344V22.9102H7.03125V21.1523H5.27344V8.84766H7.03125V7.08984H5.27344ZM24.7266 17.6367C23.7572 17.6367 22.9688 16.8482 22.9688 15.8789C22.9688 14.9096 23.7572 14.1211 24.7266 14.1211V17.6367ZM3.51562 21.1523H1.75781V8.84766H3.51562V21.1523Z" fill="white"/>
<path d="M19.3945 7.08984H10.6055V12.3633H19.3945V7.08984ZM17.6367 10.6055H12.3633V8.84766H17.6367V10.6055Z" fill="white"/>
<path d="M10.6055 14.1211H12.3633V15.8789H10.6055V14.1211Z" fill="white"/>
<path d="M14.1211 14.1211H15.8789V15.8789H14.1211V14.1211Z" fill="white"/>
<path d="M17.6367 14.1211H19.3945V15.8789H17.6367V14.1211Z" fill="white"/>
<path d="M10.6055 17.6367H12.3633V19.3945H10.6055V17.6367Z" fill="white"/>
<path d="M14.1211 17.6367H15.8789V19.3945H14.1211V17.6367Z" fill="white"/>
<path d="M17.6367 17.6367H19.3945V19.3945H17.6367V17.6367Z" fill="white"/>
<path d="M10.6055 21.1523H12.3633V22.9102H10.6055V21.1523Z" fill="white"/>
<path d="M14.1211 21.1523H15.8789V22.9102H14.1211V21.1523Z" fill="white"/>
<path d="M17.6367 21.1523H19.3945V22.9102H17.6367V21.1523Z" fill="white"/>
</svg>
