<svg width="100" height="100" viewBox="0 0 100 100" fill="none" xmlns="http://www.w3.org/2000/svg">
<g opacity="0.131058">
<path fill-rule="evenodd" clip-rule="evenodd" d="M93.1818 81.8183H77.2726C67.2474 81.8183 59.0909 73.662 59.0909 63.6369C59.0909 53.6118 67.2474 45.4554 77.2726 45.4554H93.1818C94.438 45.4554 95.4545 44.4389 95.4545 43.1827V36.3646C95.4545 31.5988 91.7578 27.7229 87.0872 27.3471L74.0346 4.54913C72.8251 2.44064 70.8719 0.933636 68.5347 0.307865C66.2087 -0.313645 63.7763 0.01277 61.6944 1.22447L16.9495 27.2738H9.09096C4.07726 27.2738 0 31.3508 0 36.3646V90.9092C0 95.9228 4.07705 100 9.09096 100H86.3636C91.3773 100 95.4545 95.923 95.4545 90.9092V84.0911C95.4545 82.8349 94.438 81.8183 93.1818 81.8183ZM76.8533 18.6242L81.8054 27.2738H61.9963L76.8533 18.6242ZM63.9825 5.15274L25.9836 27.2738H34.9561L70.0931 6.81678L70.0884 6.80847C69.4869 5.7587 68.5192 5.0085 67.3584 4.69785C66.2108 4.39146 65.0102 4.55126 63.9825 5.15274Z" fill="black"/>
<path fill-rule="evenodd" clip-rule="evenodd" d="M77.2726 50H93.1817C96.9415 50 99.9999 53.0584 99.9999 56.8182V70.4545C99.9999 74.2143 96.9415 77.2727 93.1817 77.2727H77.2726C69.753 77.2727 63.6362 71.156 63.6362 63.6364C63.6362 56.1168 69.753 50 77.2726 50ZM72.7272 63.6364C72.7272 66.142 74.7669 68.1817 77.2726 68.1817C79.7785 68.1817 81.8182 66.142 81.8179 63.6364C81.8179 61.1307 79.7782 59.091 77.2726 59.091C74.7669 59.091 72.7272 61.1307 72.7272 63.6364Z" fill="black"/>
</g>
</svg>
