<svg width="46" height="45" viewBox="0 0 46 45" fill="none" xmlns="http://www.w3.org/2000/svg">
<path fill-rule="evenodd" clip-rule="evenodd" d="M38.4671 38.52V45H40.3206V38.52H42.1112V36.6H36.666V38.52H38.4671Z" fill="white"/>
<path fill-rule="evenodd" clip-rule="evenodd" d="M28.9023 41.8626H27.4131L28.1484 39.9L28.9023 41.8626ZM29.5041 44.0545H31.133V43.7771L28.1917 36.4918H27.475L24.543 43.7771V44.0545H26.1719L26.5535 43.1158H29.1225L29.5041 44.0545Z" fill="white"/>
<path fill-rule="evenodd" clip-rule="evenodd" d="M17.1759 36.6H15.291V45H19.8356V43.068H17.1759V36.6Z" fill="white"/>
<path fill-rule="evenodd" clip-rule="evenodd" d="M7.52736 41.8626H6.03808L6.77341 39.9L7.52736 41.8626ZM8.12913 44.0545H9.75803V43.7771L6.8167 36.4918H6.09999L3.16797 43.7771V44.0545H4.79687L5.1785 43.1158H7.7475L8.12913 44.0545Z" fill="white"/>
<path fill-rule="evenodd" clip-rule="evenodd" d="M27.6073 0C27.8797 0 28.1294 0.145539 28.2656 0.389551L44.9857 30.3186C45.0493 30.4359 45.0856 30.572 45.0856 30.7081C45.0856 31.1398 44.7451 31.4918 44.3275 31.4918H30.5264C30.254 31.4964 30.0044 31.3463 29.8682 31.1023L17.6924 9.30069C17.6243 9.18339 17.5289 9.08483 17.4154 9.01444C17.0522 8.79858 16.5892 8.9253 16.3804 9.30069L6.91031 26.2549C6.84675 26.3722 6.81043 26.5083 6.81043 26.6443C6.81043 27.0761 7.15092 27.428 7.56858 27.428C7.56858 27.428 21.0708 27.4452 21.3671 27.4477C21.3719 27.4477 21.3768 27.4481 21.3817 27.4488L22.0854 27.4493C22.3575 27.4494 22.604 27.6006 22.7402 27.845L24.0779 30.3225C24.2869 30.6972 24.1631 31.1787 23.8023 31.3947C23.6886 31.4628 23.5567 31.4983 23.4269 31.4999L12.4379 31.4964H0.758859C0.627209 31.4964 0.495551 31.4589 0.382056 31.3932C0.0188737 31.1774 -0.108241 30.6987 0.100586 30.3233L16.3804 1.17316C16.4485 1.05586 16.5438 0.957302 16.6573 0.886906C17.0205 0.671053 17.4835 0.797765 17.6924 1.17316L32.1472 27.0432C32.2788 27.2825 32.5285 27.4327 32.8008 27.4327H37.5223C37.6539 27.4327 37.7856 27.3998 37.8991 27.3295C38.2623 27.1136 38.3894 26.635 38.1805 26.2596L24.2751 1.17316C24.2115 1.05586 24.1752 0.919812 24.1752 0.783686C24.1752 0.351979 24.5157 8.18557e-05 24.9334 0H27.6073Z" fill="white"/>
</svg>
