<svg width="16" height="16" viewBox="0 0 16 16" fill="none" xmlns="http://www.w3.org/2000/svg">
<g clip-path="url(#clip0)">
<path d="M9.53833 10.906L9.43477 11.3294C9.12409 11.452 8.87591 11.5453 8.69111 11.6095C8.50611 11.6739 8.29115 11.7059 8.04624 11.7059C7.67012 11.7059 7.37758 11.6138 7.16893 11.4308C6.96028 11.247 6.85592 11.0142 6.85592 10.7317C6.85592 10.6224 6.8635 10.5099 6.87924 10.3953C6.89512 10.2806 6.92036 10.1514 6.9549 10.007L7.34317 8.63276C7.37771 8.50117 7.40707 8.37649 7.43059 8.25858C7.45443 8.1414 7.46593 8.03359 7.46593 7.93654C7.46593 7.76104 7.42959 7.63828 7.35725 7.56926C7.28491 7.50044 7.14688 7.4655 6.94195 7.4655C6.84158 7.4655 6.73841 7.48158 6.63326 7.51267C6.52764 7.54389 6.43737 7.57405 6.36157 7.60208L6.4654 7.1784C6.71975 7.07484 6.96287 6.98616 7.19543 6.91256C7.428 6.83876 7.64774 6.80183 7.85559 6.80183C8.22911 6.80183 8.51734 6.8921 8.71974 7.07265C8.92215 7.25333 9.02332 7.48756 9.02332 7.77618C9.02332 7.8359 9.01667 7.94112 9.00239 8.09151C8.98844 8.24224 8.96247 8.38034 8.92461 8.50595L8.538 9.87469C8.50631 9.98463 8.47781 10.1103 8.45304 10.2517C8.42746 10.3922 8.41524 10.4996 8.41524 10.5716C8.41524 10.7533 8.45576 10.8774 8.537 10.9434C8.61884 11.0093 8.7598 11.0422 8.96001 11.0422C9.05401 11.0422 9.16095 11.0255 9.27979 10.9927C9.3983 10.96 9.48472 10.9312 9.53833 10.906ZM9.63637 5.15968C9.63637 5.39815 9.5465 5.60182 9.36588 5.76928C9.18573 5.93734 8.96865 6.02144 8.71469 6.02144C8.45995 6.02144 8.24233 5.93734 8.06012 5.76928C7.87824 5.60175 7.7871 5.39815 7.7871 5.15968C7.7871 4.92167 7.87824 4.71767 8.06012 4.54808C8.242 4.37876 8.46001 4.29413 8.71469 4.29413C8.96858 4.29413 9.18573 4.37896 9.36588 4.54808C9.54663 4.71767 9.63637 4.92173 9.63637 5.15968Z" fill="#AB2656"/>
</g>
<circle cx="7.99902" cy="8" r="7" stroke="#AB2656"/>
<defs>
<clipPath id="clip0">
<rect width="7.41177" height="7.41177" fill="white" transform="translate(4.29297 4.29413)"/>
</clipPath>
</defs>
</svg>
