<svg width="30" height="30" viewBox="0 0 30 30" fill="none" xmlns="http://www.w3.org/2000/svg">
<path fill-rule="evenodd" clip-rule="evenodd" d="M15 30C23.2843 30 30 23.2843 30 15C30 6.71573 23.2843 0 15 0C6.71573 0 0 6.71573 0 15C0 23.2843 6.71573 30 15 30Z" fill="#B93E6B"/>
<path fill-rule="evenodd" clip-rule="evenodd" d="M8.58867 19.5968H22.379V21.0484H8.58867V19.5968ZM22.7927 12.8032C22.6403 12.2226 22.0378 11.8742 21.4572 12.0339L17.6032 13.0645L12.5951 8.39758L11.1943 8.76774L14.1991 13.9718L10.5919 14.9371L9.16204 13.8193L8.10962 14.1024L9.43059 16.396L9.98946 17.3613L11.1507 17.0492L15.0048 16.0185L18.162 15.1766L22.0161 14.146C22.604 13.979 22.9451 13.3839 22.7927 12.8032Z" fill="white"/>
</svg>
