<svg width="35" height="28" viewBox="0 0 35 28" fill="none" xmlns="http://www.w3.org/2000/svg">
<path d="M20.5925 0C20.7591 0 20.9117 0.0892152 20.995 0.238806L31.2156 18.5862C31.2545 18.6581 31.2766 18.7415 31.2766 18.8249C31.2766 19.0896 31.0685 19.3053 30.8132 19.3053H22.377C22.2104 19.3082 22.0578 19.2161 21.9746 19.0665L14.5318 5.70157C14.4902 5.62968 14.4319 5.56926 14.3624 5.5261C14.1405 5.39376 13.8574 5.47146 13.7298 5.70157L7.94094 16.095C7.90207 16.1669 7.87989 16.2503 7.87989 16.3337C7.87989 16.5984 8.088 16.8141 8.34332 16.8141C8.34332 16.8141 16.597 16.8247 16.7781 16.8262C16.781 16.8262 16.784 16.8265 16.787 16.8269L17.2171 16.8272C17.3834 16.8273 17.5341 16.9199 17.6174 17.0698L18.4351 18.5885C18.5629 18.8182 18.4872 19.1134 18.2666 19.2458C18.1971 19.2876 18.1165 19.3093 18.0371 19.3103L11.3198 19.3082H4.18067C4.1002 19.3082 4.01973 19.2852 3.95035 19.2449C3.72834 19.1126 3.65066 18.8192 3.7783 18.589L13.7298 0.719183C13.7714 0.647284 13.8296 0.586842 13.8991 0.543683C14.121 0.411375 14.4041 0.489068 14.5318 0.719183L23.3677 16.5783C23.4481 16.7249 23.6008 16.817 23.7672 16.817H26.6533C26.7338 16.817 26.8143 16.7969 26.8837 16.7537C27.1057 16.6214 27.1834 16.328 27.0557 16.0978L18.5557 0.719183C18.5168 0.647284 18.4946 0.563864 18.4946 0.480411C18.4946 0.215763 18.7027 6.43678e-05 18.958 0H20.5925ZM3.8983 27.6178H0V22.002H1.39381V26.5316H3.8983V27.6178ZM11.851 24.8118C11.851 25.7069 11.6042 26.4178 11.1105 26.9446C10.6169 27.4714 9.9345 27.7347 9.06336 27.7347C8.19465 27.7347 7.51348 27.4714 7.01984 26.9446C6.5262 26.4178 6.27938 25.7069 6.27938 24.8118C6.27938 23.9091 6.5262 23.1957 7.01984 22.6714C7.51348 22.1472 8.19465 21.8851 9.06336 21.8851C9.92966 21.8851 10.6108 22.1472 11.1069 22.6714C11.6029 23.1957 11.851 23.9091 11.851 24.8118ZM10.0035 26.2337C10.139 26.0627 10.2394 25.8609 10.3047 25.6283C10.3701 25.3957 10.4027 25.1223 10.4027 24.808C10.4027 24.4711 10.3652 24.1844 10.2902 23.9481C10.2152 23.7117 10.1172 23.5207 9.9962 23.3748C9.87279 23.224 9.73062 23.1146 9.56971 23.0467C9.40879 22.9788 9.24122 22.9449 9.06699 22.9449C8.89035 22.9449 8.72399 22.9775 8.56791 23.0429C8.41183 23.1083 8.26846 23.2164 8.13779 23.3673C8.0168 23.5081 7.91819 23.7023 7.84197 23.95C7.76575 24.1976 7.72763 24.4849 7.72763 24.8118C7.72763 25.1462 7.76454 25.4309 7.83834 25.666C7.91214 25.9011 8.00954 26.0928 8.13053 26.2412C8.25152 26.3895 8.39308 26.4989 8.55521 26.5693C8.71733 26.6397 8.88793 26.6749 9.06699 26.6749C9.24606 26.6749 9.41665 26.6391 9.57878 26.5674C9.74091 26.4958 9.88247 26.3845 10.0035 26.2337ZM19.7674 27.6178H18.3264L17.9525 26.4826H15.9489L15.575 27.6178H14.1704L16.1667 22.002H17.771L19.7674 27.6178ZM17.6149 25.4529L16.9507 23.4389L16.2865 25.4529H17.6149ZM27.3171 27.6178H25.9741L23.6802 23.7633V27.6178H22.4025V22.002H24.0685L26.0395 25.2191V22.002H27.3171V27.6178ZM34.8814 25.8527C34.8814 26.4059 34.6558 26.8553 34.2045 27.2011C33.7532 27.5468 33.1404 27.7196 32.366 27.7196C31.9184 27.7196 31.5282 27.6788 31.1955 27.5971C30.8627 27.5154 30.5512 27.4116 30.2608 27.2859V25.9395H30.4133C30.7012 26.1783 31.0237 26.3619 31.3806 26.4901C31.7375 26.6184 32.0805 26.6825 32.4096 26.6825C32.4943 26.6825 32.6056 26.6749 32.7435 26.6598C32.8815 26.6448 32.994 26.6196 33.0811 26.5844C33.1876 26.5392 33.2753 26.4826 33.3442 26.4147C33.4132 26.3468 33.4477 26.2462 33.4477 26.113C33.4477 25.9898 33.3975 25.8835 33.2971 25.7943C33.1966 25.705 33.0496 25.6365 32.8561 25.5887C32.6528 25.5384 32.438 25.4913 32.2118 25.4473C31.9855 25.4033 31.7732 25.3473 31.5748 25.2795C31.1198 25.1261 30.7926 24.918 30.5929 24.6553C30.3933 24.3925 30.2935 24.0663 30.2935 23.6765C30.2935 23.1536 30.5191 22.7267 30.9704 22.3961C31.4217 22.0655 32.0019 21.9001 32.7109 21.9001C33.0666 21.9001 33.4181 21.936 33.7653 22.0076C34.1125 22.0793 34.4132 22.1692 34.6673 22.2773V23.5709H34.5185C34.3007 23.3899 34.0339 23.2384 33.7181 23.1165C33.4023 22.9945 33.0799 22.9335 32.7508 22.9335C32.6346 22.9335 32.5191 22.9417 32.4042 22.9581C32.2892 22.9744 32.1785 23.0052 32.072 23.0505C31.9777 23.0882 31.8966 23.1454 31.8288 23.2221C31.7611 23.2988 31.7272 23.3861 31.7272 23.4842C31.7272 23.6325 31.7817 23.7463 31.8906 23.8255C31.9994 23.9047 32.2051 23.977 32.5076 24.0424C32.706 24.0851 32.8966 24.1266 33.0793 24.1668C33.262 24.2071 33.4586 24.2624 33.6691 24.3328C34.0829 24.4736 34.3884 24.6653 34.5856 24.908C34.7828 25.1506 34.8814 25.4655 34.8814 25.8527Z" fill="#4D4D4D"/>
</svg>
