<svg width="30" height="30" viewBox="0 0 30 30" fill="none" xmlns="http://www.w3.org/2000/svg">
<path d="M14.0323 0H0.483871C0.216774 0 0 0.216774 0 0.483871V7.25806C0 7.52516 0.216774 7.74194 0.483871 7.74194H2.90323V8.70968H1.45161C1.18452 8.70968 0.967742 8.92645 0.967742 9.19355V29.5161C0.967742 29.7832 1.18452 30 1.45161 30H13.0645C13.3316 30 13.5484 29.7832 13.5484 29.5161V9.19355C13.5484 8.92645 13.3316 8.70968 13.0645 8.70968H11.6129V7.74194H14.0323C14.2994 7.74194 14.5161 7.52516 14.5161 7.25806V0.483871C14.5161 0.216774 14.2994 0 14.0323 0ZM1.93548 29.0323V28.0645H12.5806V29.0323H1.93548ZM10.6452 27.0968H3.87097V23.2258H10.6452V27.0968ZM12.5806 27.0968H11.6129V22.7419C11.6129 22.4748 11.3961 22.2581 11.129 22.2581H3.3871C3.12 22.2581 2.90323 22.4748 2.90323 22.7419V27.0968H1.93548V9.67742H12.5806V27.0968ZM10.6452 8.70968H3.87097V7.74194H10.6452V8.70968ZM13.5484 6.77419H0.967742V0.967742H13.5484V6.77419Z" fill="#2B303A"/>
<path d="M2.90317 4.83871H3.87091V5.80645H4.83865V3.38709C4.83865 2.58677 4.18736 1.93548 3.38704 1.93548C2.58672 1.93548 1.93542 2.58677 1.93542 3.38709V5.80645H2.90317V4.83871ZM3.38704 2.90322C3.65365 2.90322 3.87091 3.12048 3.87091 3.38709V3.87097H2.90317V3.38709C2.90317 3.12048 3.12042 2.90322 3.38704 2.90322Z" fill="#2B303A"/>
<path d="M6.77402 5.80645H7.74176V2.90322H8.7095V1.93548H5.80627V2.90322H6.77402V5.80645Z" fill="#2B303A"/>
<path d="M10.6452 4.46903L10.696 4.57113C10.8601 4.89919 11.3977 4.89919 11.5617 4.57113L11.613 4.46903V5.80645H12.5807V2.41935C12.5807 2.19484 12.4264 1.99984 12.2081 1.94855C11.988 1.89726 11.7644 2.00226 11.6638 2.20306L11.1291 3.2729L10.5944 2.20306C10.4943 2.00274 10.2712 1.89774 10.0501 1.94855C9.83185 1.99984 9.67749 2.19484 9.67749 2.41935V5.80645H10.6452V4.46903Z" fill="#2B303A"/>
<path d="M3.38719 17.4194H11.1291C11.3962 17.4194 11.613 17.2026 11.613 16.9355V11.129C11.613 10.8619 11.3962 10.6452 11.1291 10.6452H3.38719C3.12009 10.6452 2.90332 10.8619 2.90332 11.129V16.9355C2.90332 17.2026 3.12009 17.4194 3.38719 17.4194ZM3.87106 11.6129H10.6453V16.4516H3.87106V11.6129Z" fill="#2B303A"/>
<path d="M3.38719 21.2903H8.2259C8.493 21.2903 8.70977 21.0735 8.70977 20.8065V18.871C8.70977 18.6039 8.493 18.3871 8.2259 18.3871H3.38719C3.12009 18.3871 2.90332 18.6039 2.90332 18.871V20.8065C2.90332 21.0735 3.12009 21.2903 3.38719 21.2903ZM3.87106 19.3548H7.74203V20.3226H3.87106V19.3548Z" fill="#2B303A"/>
<path d="M9.67749 18.3871H11.613V19.3548H9.67749V18.3871Z" fill="#2B303A"/>
<path d="M9.67749 20.3226H11.613V21.2903H9.67749V20.3226Z" fill="#2B303A"/>
<path d="M4.35498 24.1935H5.32272V26.129H4.35498V24.1935Z" fill="#2B303A"/>
<path d="M29.516 0H15.9676C15.7005 0 15.4838 0.216774 15.4838 0.483871V7.25806C15.4838 7.52516 15.7005 7.74194 15.9676 7.74194H18.387V8.70968H16.9354C16.6683 8.70968 16.4515 8.92645 16.4515 9.19355V29.5161C16.4515 29.7832 16.6683 30 16.9354 30H28.5483C28.8154 30 29.0322 29.7832 29.0322 29.5161V9.19355C29.0322 8.92645 28.8154 8.70968 28.5483 8.70968H27.0967V7.74194H29.516C29.7831 7.74194 29.9999 7.52516 29.9999 7.25806V0.483871C29.9999 0.216774 29.7831 0 29.516 0ZM17.4192 29.0323V28.0645H28.0644V29.0323H17.4192ZM26.1289 27.0968H19.3547V23.2258H26.1289V27.0968ZM28.0644 27.0968H27.0967V22.7419C27.0967 22.4748 26.8799 22.2581 26.6128 22.2581H18.8709C18.6038 22.2581 18.387 22.4748 18.387 22.7419V27.0968H17.4192V9.67742H28.0644V27.0968ZM26.1289 8.70968H19.3547V7.74194H26.1289V8.70968ZM29.0322 6.77419H16.4515V0.967742H29.0322V6.77419Z" fill="#2B303A"/>
<path d="M18.3869 4.83871H19.3547V5.80645H20.3224V3.38709C20.3224 2.58677 19.6711 1.93548 18.8708 1.93548C18.0705 1.93548 17.4192 2.58677 17.4192 3.38709V5.80645H18.3869V4.83871ZM18.8708 2.90322C19.1374 2.90322 19.3547 3.12048 19.3547 3.38709V3.87097H18.3869V3.38709C18.3869 3.12048 18.6042 2.90322 18.8708 2.90322Z" fill="#2B303A"/>
<path d="M22.2581 5.80645H23.2259V2.90322H24.1936V1.93548H21.2904V2.90322H22.2581V5.80645Z" fill="#2B303A"/>
<path d="M26.129 4.46903L26.1798 4.57113C26.3438 4.89919 26.8814 4.89919 27.0454 4.57113L27.0967 4.46903V5.80645H28.0645V2.41935C28.0645 2.19484 27.9101 1.99984 27.6919 1.94855C27.4722 1.89726 27.2482 2.00226 27.1475 2.20306L26.6129 3.2729L26.0782 2.20306C25.9775 2.00274 25.754 1.89774 25.5338 1.94855C25.3156 1.99984 25.1613 2.19484 25.1613 2.41935V5.80645H26.129V4.46903Z" fill="#2B303A"/>
<path d="M18.871 17.4194H26.6129C26.88 17.4194 27.0968 17.2026 27.0968 16.9355V11.129C27.0968 10.8619 26.88 10.6452 26.6129 10.6452H18.871C18.6039 10.6452 18.3871 10.8619 18.3871 11.129V16.9355C18.3871 17.2026 18.6039 17.4194 18.871 17.4194ZM19.3548 11.6129H26.129V16.4516H19.3548V11.6129Z" fill="#2B303A"/>
<path d="M18.871 21.2903H23.7097C23.9768 21.2903 24.1935 21.0735 24.1935 20.8065V18.871C24.1935 18.6039 23.9768 18.3871 23.7097 18.3871H18.871C18.6039 18.3871 18.3871 18.6039 18.3871 18.871V20.8065C18.3871 21.0735 18.6039 21.2903 18.871 21.2903ZM19.3548 19.3548H23.2258V20.3226H19.3548V19.3548Z" fill="#2B303A"/>
<path d="M25.1613 18.3871H27.0967V19.3548H25.1613V18.3871Z" fill="#2B303A"/>
<path d="M25.1613 20.3226H27.0967V21.2903H25.1613V20.3226Z" fill="#2B303A"/>
<path d="M19.8387 24.1935H20.8065V26.129H19.8387V24.1935Z" fill="#2B303A"/>
<path d="M4.83875 12.5806H9.67745V13.5484H4.83875V12.5806Z" fill="#2B303A"/>
<path d="M4.83875 14.5161H9.67745V15.4839H4.83875V14.5161Z" fill="#2B303A"/>
<path d="M20.3225 12.5806H25.1612V13.5484H20.3225V12.5806Z" fill="#2B303A"/>
<path d="M20.3225 14.5161H25.1612V15.4839H20.3225V14.5161Z" fill="#2B303A"/>
</svg>
