<svg width="70" height="70" viewBox="0 0 70 70" fill="none" xmlns="http://www.w3.org/2000/svg">
<path fill-rule="evenodd" clip-rule="evenodd" d="M52.5 10.2083C47.6675 10.2083 43.75 14.1257 43.75 18.9583C43.75 23.7907 47.6675 27.7083 52.5 27.7083C57.3325 27.7083 61.25 23.7907 61.25 18.9583C61.2452 14.1277 57.3305 10.213 52.5 10.2083ZM52.5 30.6249C46.0567 30.6249 40.8334 25.4015 40.8334 18.9583C40.8334 12.5148 46.0567 7.2915 52.5 7.2915C58.9433 7.2915 64.1666 12.5148 64.1666 18.9583C64.1594 25.3985 58.9403 30.6176 52.5 30.6249Z" fill="#C9CCD1"/>
<path fill-rule="evenodd" clip-rule="evenodd" d="M51.0416 23.3335C50.655 23.3334 50.284 23.1797 50.0106 22.9061L47.094 19.9895L49.156 17.9274L51.0416 19.813L55.844 15.0107L57.906 17.0729L52.0727 22.9061C51.7993 23.1797 51.4284 23.3334 51.0416 23.3335Z" fill="#C9CCD1"/>
<path fill-rule="evenodd" clip-rule="evenodd" d="M29.1666 40.8333H49.5834V37.9165H29.1666V40.8333Z" fill="#C9CCD1"/>
<path fill-rule="evenodd" clip-rule="evenodd" d="M32.0834 29.1666H16.0416V26.25H32.0834C33.6942 26.25 35 24.9442 35 23.3334C35 21.7226 33.6942 20.4166 32.0834 20.4166H16.0416C12.0166 20.4215 8.75478 23.6832 8.75 27.7084H5.83337C5.8398 22.0731 10.4065 17.5064 16.0416 17.5H32.0834C35.305 17.5 37.9166 20.1117 37.9166 23.3334C37.9166 26.555 35.305 29.1666 32.0834 29.1666Z" fill="#C9CCD1"/>
<path fill-rule="evenodd" clip-rule="evenodd" d="M7.29162 26.2501H0V24.7917C0 23.9863 0.652969 23.3335 1.45838 23.3335H7.29162V26.2501Z" fill="#C9CCD1"/>
<path fill-rule="evenodd" clip-rule="evenodd" d="M62.7084 70.0001H27.7084C23.6832 69.9953 20.4215 66.7335 20.4166 62.7085V27.7085H23.3334V62.7085C23.3334 65.1247 25.2922 67.0835 27.7084 67.0835H62.7084C65.1246 67.0835 67.0834 65.1247 67.0834 62.7085V42.2917H70V62.7085C69.9952 66.7335 66.7334 69.9953 62.7084 70.0001Z" fill="#C9CCD1"/>
<path fill-rule="evenodd" clip-rule="evenodd" d="M70 27.7084H67.0834V7.29162C67.0834 4.87539 65.1246 2.91662 62.7084 2.91662H34.1454L22.906 14.156L20.844 12.094L32.5106 0.427246C32.7841 0.153809 33.155 0.000136719 33.5416 0H62.7084C66.7334 0.00478516 69.9952 3.26662 70 7.29162V27.7084Z" fill="#C9CCD1"/>
<path fill-rule="evenodd" clip-rule="evenodd" d="M23.3334 18.9583H20.4166V13.125C20.4168 12.7382 20.5704 12.3674 20.844 12.094L32.5106 0.427217C33.0802 -0.142217 34.0036 -0.14208 34.573 0.427627C34.8463 0.700928 34.9999 1.07171 35 1.45835V10.2083C35 12.6246 33.0412 14.5833 30.625 14.5833H27.7084V11.6666H30.625C31.4304 11.6666 32.0834 11.0138 32.0834 10.2083V4.97872L23.3334 13.7287V18.9583Z" fill="#C9CCD1"/>
<path fill-rule="evenodd" clip-rule="evenodd" d="M16.0416 49.5834C10.4065 49.577 5.8398 45.0103 5.83337 39.375H8.74999C8.75478 43.4001 12.0166 46.6618 16.0416 46.6666V49.5834Z" fill="#C9CCD1"/>
<path fill-rule="evenodd" clip-rule="evenodd" d="M16.0416 49.5835H21.875V46.6667H16.0416V49.5835Z" fill="#C9CCD1"/>
<path fill-rule="evenodd" clip-rule="evenodd" d="M7.29162 43.7501H1.45838C0.652969 43.7501 0 43.0971 0 42.2917V40.8335H7.29162V43.7501Z" fill="#C9CCD1"/>
<path fill-rule="evenodd" clip-rule="evenodd" d="M45.484 53.1561L47.4687 55.1408L66.6721 35.9376C67.2202 35.3899 67.2205 34.5016 66.6728 33.9535C66.6725 33.9533 66.6724 33.953 66.6721 33.9527C66.1169 33.4223 65.2424 33.4223 64.6872 33.9527L45.484 53.1561ZM47.4687 58.6614C47.0819 58.6612 46.7112 58.5075 46.4377 58.234L42.3908 54.1871C41.8215 53.6177 41.8215 52.6945 42.3908 52.1251L62.6252 31.8907C64.3347 30.2594 67.0245 30.2594 68.7341 31.8907C70.421 33.5765 70.422 36.3104 68.7364 37.9974C68.7356 37.9982 68.7349 37.9989 68.7341 37.9996L48.4997 58.234C48.2263 58.5075 47.8555 58.6612 47.4687 58.6614Z" fill="#C9CCD1"/>
<path fill-rule="evenodd" clip-rule="evenodd" d="M39.375 62.7084C38.5695 62.7086 37.9163 62.0561 37.9159 61.2507C37.9159 61.0241 37.9685 60.8007 38.0697 60.5981L42.1181 52.5L44.7271 53.8053L42.6358 57.9862L46.8125 55.8994L48.125 58.5084L40.0268 62.5625C39.8235 62.6604 39.6005 62.7103 39.375 62.7084Z" fill="#C9CCD1"/>
<path fill-rule="evenodd" clip-rule="evenodd" d="M57.5677 39.0112L59.6303 36.949L63.6765 40.9957L61.6138 43.058L57.5677 39.0112Z" fill="#C9CCD1"/>
<path fill-rule="evenodd" clip-rule="evenodd" d="M29.1666 62.7085H39.375V59.7917H29.1666V62.7085Z" fill="#C9CCD1"/>
<path fill-rule="evenodd" clip-rule="evenodd" d="M29.1666 55.4166H37.9166V52.5H29.1666V55.4166Z" fill="#C9CCD1"/>
<path fill-rule="evenodd" clip-rule="evenodd" d="M29.1666 48.1249H42.2916V45.2083H29.1666V48.1249Z" fill="#C9CCD1"/>
<path fill-rule="evenodd" clip-rule="evenodd" d="M48.125 62.7085H61.25V59.7917H48.125V62.7085Z" fill="#C9CCD1"/>
<path fill-rule="evenodd" clip-rule="evenodd" d="M55.4166 55.4166H61.25V52.5H55.4166V55.4166Z" fill="#C9CCD1"/>
</svg>
