<svg width="20" height="19" viewBox="0 0 20 19" fill="none" xmlns="http://www.w3.org/2000/svg">
<mask id="mask0" mask-type="alpha" maskUnits="userSpaceOnUse" x="0" y="0" width="19" height="18">
<path d="M0 0H18.0148V17.1204H0V0Z" fill="#A62251"/>
</mask>
<g mask="url(#mask0)">
<path fill-rule="evenodd" clip-rule="evenodd" d="M0.279745 13.893C0.437437 13.893 0.56535 13.7653 0.56535 13.6074V5.28906H17.44V8.42846C17.44 8.58631 17.5679 8.71407 17.7256 8.71407C17.8834 8.71407 18.0112 8.58631 18.0112 8.42846V2.78404C18.0112 1.82654 17.2322 1.04752 16.2748 1.04752H15.5258V0.693791C15.5258 0.311195 15.2146 0 14.8321 0H14.3014C13.919 0 13.6078 0.311195 13.6078 0.693791V1.04752H11.7136V0.693791C11.7136 0.311195 11.4024 0 11.0198 0H10.4892C10.1068 0 9.7956 0.311195 9.7956 0.693791V1.04752H7.90124V0.693791C7.90124 0.311195 7.59004 0 7.20745 0H6.67698C6.29439 0 5.98319 0.311195 5.98319 0.693791V1.04752H4.08899V0.693791C4.08899 0.311195 3.77779 0 3.3952 0H2.86477C2.48218 0 2.17098 0.311195 2.17098 0.693791V1.04752H1.73069C0.773156 1.04752 -0.00585938 1.82654 -0.00585938 2.78404V13.6074C-0.00585938 13.7653 0.122053 13.893 0.279745 13.893ZM14.179 0.693791C14.179 0.626236 14.234 0.571209 14.3016 0.571209H14.8322C14.8997 0.571209 14.9546 0.626236 14.9546 0.693791V2.08133C14.9546 2.14889 14.8997 2.20392 14.8322 2.20392H14.3016C14.234 2.20392 14.179 2.14904 14.179 2.08133V0.693791ZM10.3668 0.693791C10.3668 0.626236 10.4217 0.571209 10.4892 0.571209H11.0198C11.0874 0.571209 11.1424 0.626236 11.1424 0.693791V2.08133C11.1424 2.14889 11.0874 2.20392 11.0198 2.20392H10.4892C10.4217 2.20392 10.3668 2.14904 10.3668 2.08133V0.693791ZM6.5544 0.693791C6.5544 0.626236 6.60947 0.571209 6.67698 0.571209H7.2076C7.27512 0.571209 7.33018 0.626236 7.33018 0.693791V2.08133C7.33018 2.14889 7.27512 2.20392 7.2076 2.20392H6.67698C6.60947 2.20392 6.5544 2.14904 6.5544 2.08133V0.693791ZM2.74219 0.693791C2.74219 0.626236 2.79722 0.571209 2.86477 0.571209H3.39535C3.4629 0.571209 3.51778 0.626236 3.51778 0.693791V2.08133C3.51778 2.14889 3.4629 2.20392 3.39535 2.20392H2.86477C2.79722 2.20392 2.74219 2.14904 2.74219 2.08133V0.693791ZM1.73069 1.61873H2.17098V2.08133C2.17098 2.46393 2.48218 2.77513 2.86477 2.77513H3.39535C3.77779 2.77513 4.08899 2.46393 4.08899 2.08133V1.61873H5.98335V2.08133C5.98335 2.46393 6.29454 2.77513 6.67698 2.77513H7.2076C7.59019 2.77513 7.90139 2.46393 7.90139 2.08133V1.61873H9.7956V2.08133C9.7956 2.46393 10.1068 2.77513 10.4893 2.77513H11.02C11.4024 2.77513 11.7136 2.46393 11.7136 2.08133V1.61873H13.6078V2.08133C13.6078 2.46393 13.919 2.77513 14.3016 2.77513H14.8322C15.2146 2.77513 15.5258 2.46393 15.5258 2.08133V1.61873H16.2748C16.9174 1.61873 17.4401 2.14143 17.4401 2.78404V4.71785H0.56535V2.78404C0.56535 2.14143 1.08808 1.61873 1.73069 1.61873Z" fill="#A62251"/>
<path fill-rule="evenodd" clip-rule="evenodd" d="M3.23099 16.5495H0.740588C0.645805 16.5495 0.568768 16.4725 0.568768 16.3777V14.9094C0.568768 14.7515 0.440855 14.6238 0.283163 14.6238C0.125471 14.6238 -0.00244141 14.7515 -0.00244141 14.9094V16.3777C-0.00244141 16.7874 0.330916 17.1207 0.740588 17.1207H3.23099C3.38868 17.1207 3.51659 16.9928 3.51659 16.8351C3.51659 16.6773 3.38868 16.5495 3.23099 16.5495Z" fill="#A62251"/>
</g>
<path fill-rule="evenodd" clip-rule="evenodd" d="M3.22173 6.12158H2.22896C2.07127 6.12158 1.94336 6.24949 1.94336 6.40718C1.94336 6.56499 2.07127 6.69278 2.22896 6.69278H3.22173C3.37942 6.69278 3.50733 6.56499 3.50733 6.40718C3.50733 6.24949 3.37942 6.12158 3.22173 6.12158Z" fill="#A62251"/>
<path fill-rule="evenodd" clip-rule="evenodd" d="M5.27975 6.69278H6.27251C6.4302 6.69278 6.55811 6.56499 6.55811 6.40718C6.55811 6.24949 6.4302 6.12158 6.27251 6.12158H5.27975C5.12205 6.12158 4.99414 6.24949 4.99414 6.40718C4.99414 6.56499 5.12205 6.69278 5.27975 6.69278Z" fill="#A62251"/>
<path fill-rule="evenodd" clip-rule="evenodd" d="M8.33052 6.69278H9.32316C9.48081 6.69278 9.60876 6.56499 9.60876 6.40718C9.60876 6.24949 9.48081 6.12158 9.32316 6.12158H8.33052C8.17272 6.12158 8.04492 6.24949 8.04492 6.40718C8.04492 6.56499 8.17272 6.69278 8.33052 6.69278Z" fill="#A62251"/>
<path fill-rule="evenodd" clip-rule="evenodd" d="M11.3818 6.69278H12.3746C12.5322 6.69278 12.6602 6.56499 12.6602 6.40718C12.6602 6.24949 12.5322 6.12158 12.3746 6.12158H11.3818C11.2241 6.12158 11.0962 6.24949 11.0962 6.40718C11.0962 6.56499 11.2241 6.69278 11.3818 6.69278Z" fill="#A62251"/>
<path fill-rule="evenodd" clip-rule="evenodd" d="M15.4247 6.12158H14.4321C14.2742 6.12158 14.1465 6.24949 14.1465 6.40718C14.1465 6.56499 14.2742 6.69278 14.4321 6.69278H15.4247C15.5824 6.69278 15.7103 6.56499 15.7103 6.40718C15.7103 6.24949 15.5824 6.12158 15.4247 6.12158Z" fill="#A62251"/>
<path fill-rule="evenodd" clip-rule="evenodd" d="M3.22173 7.55811H2.22896C2.07127 7.55811 1.94336 7.68586 1.94336 7.84371C1.94336 8.00151 2.07127 8.12931 2.22896 8.12931H3.22173C3.37942 8.12931 3.50733 8.00151 3.50733 7.84371C3.50733 7.68586 3.37942 7.55811 3.22173 7.55811Z" fill="#A62251"/>
<path fill-rule="evenodd" clip-rule="evenodd" d="M5.27975 8.12931H6.27251C6.4302 8.12931 6.55811 8.00151 6.55811 7.84371C6.55811 7.68586 6.4302 7.55811 6.27251 7.55811H5.27975C5.12205 7.55811 4.99414 7.68586 4.99414 7.84371C4.99414 8.00151 5.12205 8.12931 5.27975 8.12931Z" fill="#A62251"/>
<path fill-rule="evenodd" clip-rule="evenodd" d="M8.33052 8.12931H9.32316C9.48081 8.12931 9.60876 8.00151 9.60876 7.84371C9.60876 7.68586 9.48081 7.55811 9.32316 7.55811H8.33052C8.17272 7.55811 8.04492 7.68586 8.04492 7.84371C8.04492 8.00151 8.17272 8.12931 8.33052 8.12931Z" fill="#A62251"/>
<path fill-rule="evenodd" clip-rule="evenodd" d="M11.3818 8.12931H12.3746C12.5322 8.12931 12.6602 8.00151 12.6602 7.84371C12.6602 7.68586 12.5322 7.55811 12.3746 7.55811H11.3818C11.2241 7.55811 11.0962 7.68586 11.0962 7.84371C11.0962 8.00151 11.2241 8.12931 11.3818 8.12931Z" fill="#A62251"/>
<path fill-rule="evenodd" clip-rule="evenodd" d="M15.4247 7.55811H14.4321C14.2742 7.55811 14.1465 7.68586 14.1465 7.84371C14.1465 8.00151 14.2742 8.12931 14.4321 8.12931H15.4247C15.5824 8.12931 15.7103 8.00151 15.7103 7.84371C15.7103 7.68586 15.5824 7.55811 15.4247 7.55811Z" fill="#A62251"/>
<path fill-rule="evenodd" clip-rule="evenodd" d="M5.28693 13.7364L6.75539 15.2049C6.96781 15.4173 7.25013 15.5342 7.55063 15.5342C7.85112 15.5342 8.1336 15.4173 8.34587 15.2049L12.3674 11.1834C12.8059 10.7449 12.8059 10.0313 12.3674 9.59279C11.9289 9.15429 11.2153 9.15429 10.7768 9.59279L7.55063 12.8189L6.87736 12.1458C6.43902 11.7073 5.72543 11.7073 5.28678 12.1458C4.84839 12.5843 4.84839 13.2979 5.28693 13.7364ZM5.69077 12.5497C5.79862 12.4418 5.94039 12.3878 6.08213 12.3878C6.2239 12.3878 6.36568 12.4418 6.47352 12.5497L7.34861 13.4248C7.46019 13.5364 7.64092 13.5364 7.75249 13.4248L11.1806 9.99682C11.3966 9.78098 11.7477 9.78098 11.9634 9.99667C12.1792 10.2125 12.1792 10.5637 11.9634 10.7795L7.94198 14.8009C7.83741 14.9055 7.6985 14.963 7.55063 14.963C7.40276 14.963 7.26384 14.9055 7.15928 14.8009L5.69077 13.3324C5.47493 13.1166 5.47493 12.7655 5.69077 12.5497Z" fill="#A62251"/>
<path fill-rule="evenodd" clip-rule="evenodd" d="M18.0148 12.0089V9.72994C18.0148 9.5721 17.887 9.44434 17.7292 9.44434C17.5715 9.44434 17.4436 9.5721 17.4436 9.72994V11.6447C16.9228 11.3747 16.3319 11.2219 15.7059 11.2219C13.6165 11.2219 11.9167 12.9217 11.9167 15.0111C11.9167 15.5583 12.0335 16.0786 12.2431 16.549H4.53267C4.37498 16.549 4.24707 16.6768 4.24707 16.8346C4.24707 16.9923 4.37498 17.1202 4.53267 17.1202H12.5595C13.2403 18.1328 14.3966 18.8002 15.7059 18.8002C17.7953 18.8002 19.4951 17.1004 19.4951 15.0111C19.4951 13.7901 18.9143 12.7023 18.0148 12.0089ZM15.7059 18.229C13.9314 18.229 12.4879 16.7855 12.4879 15.0111C12.4879 13.2366 13.9316 11.7931 15.7059 11.7931C17.4802 11.7931 18.9239 13.2366 18.9239 15.0111C18.9239 16.7855 17.4802 18.229 15.7059 18.229Z" fill="#A62251"/>
<path fill-rule="evenodd" clip-rule="evenodd" d="M15.7062 12.2056C14.1593 12.2056 12.9009 13.4642 12.9009 15.0109C12.9009 16.5578 14.1593 17.8162 15.7062 17.8162C17.2531 17.8162 18.5114 16.5578 18.5114 15.0109C18.5114 13.4642 17.2529 12.2056 15.7062 12.2056ZM15.9619 17.2298C15.9808 17.1916 15.9918 17.1488 15.9918 17.1033V16.7553C15.9918 16.5976 15.8639 16.4697 15.7062 16.4697C15.5485 16.4697 15.4206 16.5976 15.4206 16.7553V17.1033C15.4206 17.1488 15.4314 17.1916 15.4505 17.2298C14.4226 17.1122 13.6049 16.2945 13.4873 15.2666C13.5254 15.2856 13.5683 15.2965 13.6139 15.2965H13.9617C14.1195 15.2965 14.2473 15.1687 14.2473 15.0109C14.2473 14.8531 14.1195 14.7253 13.9617 14.7253H13.6139C13.5683 14.7253 13.5254 14.7363 13.4873 14.7552C13.6049 13.7273 14.4226 12.9096 15.4505 12.792C15.4314 12.8302 15.4206 12.873 15.4206 12.9185V13.2665C15.4206 13.4243 15.5485 13.5521 15.7062 13.5521C15.8639 13.5521 15.9918 13.4243 15.9918 13.2665V12.9185C15.9918 12.873 15.9808 12.8302 15.9619 12.792C16.9898 12.9096 17.8075 13.7273 17.9252 14.7552C17.8869 14.7363 17.8441 14.7253 17.7985 14.7253H17.4506C17.2929 14.7253 17.165 14.8531 17.165 15.0109C17.165 15.1687 17.2929 15.2965 17.4506 15.2965H17.7985C17.8441 15.2965 17.8869 15.2856 17.9252 15.2666C17.8073 16.2945 16.9898 17.1122 15.9619 17.2298Z" fill="#A62251"/>
<path fill-rule="evenodd" clip-rule="evenodd" d="M16.3355 14.7254H15.9916V14.4326C15.9916 14.2749 15.8637 14.147 15.706 14.147C15.5482 14.147 15.4204 14.2749 15.4204 14.4326V15.011C15.4204 15.1689 15.5482 15.2966 15.706 15.2966H16.3355C16.4932 15.2966 16.6211 15.1689 16.6211 15.011C16.6211 14.8532 16.4932 14.7254 16.3355 14.7254Z" fill="#A62251"/>
</svg>
