<svg width="20" height="20" viewBox="0 0 20 20" fill="none" xmlns="http://www.w3.org/2000/svg">
<path d="M19.4199 5.9C19.2399 5.68 18.9599 5.54 18.6399 5.54H14.7199V4.92C14.7199 4.36 14.2799 3.94 13.7399 3.94H6.2799C5.7199 3.94 5.2999 4.38 5.2999 4.92V5.54H1.3799C0.819902 5.54 0.399902 5.98 0.399902 6.52V15.06C0.399902 15.62 0.839902 16.04 1.3799 16.04H18.6399C19.1999 16.04 19.6199 15.6 19.6199 15.06V6.58C19.6399 6.34 19.5799 6.1 19.4199 5.9ZM18.4999 14.96H1.4799V6.64H5.8199C6.1399 6.64 6.3999 6.4 6.3999 6.06V5.04H13.6199V6.06C13.6199 6.38 13.8599 6.64 14.1999 6.64H18.4999V14.96Z" fill="white"/>
<path d="M9.99983 7.34003C8.45983 7.34003 7.19983 8.60003 7.19983 10.14C7.19983 11.7 8.43983 12.92 9.99983 12.92C11.5398 12.92 12.7998 11.68 12.7998 10.14C12.7998 8.60003 11.5398 7.34003 9.99983 7.34003ZM9.99983 11.8C9.03983 11.8 8.29983 11.06 8.29983 10.12C8.29983 9.18003 9.05983 8.42003 9.99983 8.42003C10.9398 8.42003 11.6998 9.18003 11.6998 10.12C11.6998 11.06 10.9398 11.8 9.99983 11.8Z" fill="white"/>
<path d="M2.98004 8.44C3.22305 8.44 3.42004 8.243 3.42004 8C3.42004 7.75699 3.22305 7.56 2.98004 7.56C2.73703 7.56 2.54004 7.75699 2.54004 8C2.54004 8.243 2.73703 8.44 2.98004 8.44Z" fill="white"/>
</svg>
