<svg width="84" height="80" viewBox="0 0 84 80" fill="none" xmlns="http://www.w3.org/2000/svg">
<g id="check">
<path id="Shape" d="M76.5563 33.2078C74.6913 33.2078 73.1796 34.7197 73.1796 36.5845V39.9855C73.1745 48.857 69.7149 57.1956 63.4382 63.465C57.166 69.7298 48.8314 73.1793 39.967 73.1793C39.9605 73.1793 39.954 73.1793 39.9474 73.1793C21.6336 73.1688 6.74286 58.2612 6.75331 39.9473C6.75837 31.0759 10.218 22.7373 16.4949 16.4676C22.767 10.2028 31.1019 6.75331 39.966 6.75331C39.9726 6.75331 39.9791 6.75331 39.9856 6.75331C44.6668 6.75592 49.2085 7.72343 53.4844 9.62857C55.1883 10.3878 57.1838 9.62188 57.943 7.91853C58.7019 6.21518 57.9365 4.2191 56.233 3.45992C51.0875 1.16718 45.6225 0.00310204 39.9894 0C39.9809 0 39.9744 0 39.9659 0C29.2999 0 19.2692 4.15151 11.7221 11.6898C4.16915 19.234 0.00621067 29.2681 6.58367e-06 39.9437C-0.00603423 50.6189 4.14515 60.6578 11.6896 68.2108C19.2341 75.7638 29.2681 79.9267 39.9435 79.9329C39.9518 79.9329 39.9585 79.9329 39.967 79.9329C50.633 79.9329 60.6637 75.7816 68.2108 68.2431C75.7638 60.6988 79.9267 50.6646 79.9329 39.9874V36.5847C79.9329 34.7197 78.4212 33.2078 76.5563 33.2078Z" fill="#169A62"/>
<path id="Shape_2" d="M82.6028 4.66889C81.2841 3.35036 79.1461 3.35036 77.8274 4.66889L39.9663 42.5298L31.3771 33.9406C30.0586 32.6219 27.9205 32.6219 26.6019 33.9406C25.2832 35.2593 25.2832 37.3972 26.6019 38.7159L37.5789 49.6929C38.2382 50.3523 39.1025 50.682 39.9667 50.682C40.8308 50.682 41.695 50.3523 42.3544 49.6929L82.6028 9.44424C83.9214 8.12554 83.9214 5.98758 82.6028 4.66889Z" fill="#169A62"/>
</g>
</svg>
