<svg width="20" height="20" viewBox="0 0 20 20" fill="none" xmlns="http://www.w3.org/2000/svg">
<path fill-rule="evenodd" clip-rule="evenodd" d="M0 10C0 4.45455 4.45455 0 10 0C15.5455 0 20 4.45455 20 10C20 15.5455 15.5455 20 10 20C4.45455 20 0 15.5455 0 10ZM8.4998 14.4091L15.7725 6.86363C15.9543 6.68181 15.9543 6.40909 15.7725 6.27272L15.1362 5.63636C14.9543 5.45454 14.6816 5.45454 14.4998 5.63636H14.4543L8.36344 11.9545C8.27253 12.0455 8.13617 12.0455 8.04526 11.9545L5.54526 9.27272L5.4998 9.22727C5.31798 9.04545 5.04526 9.04545 4.86344 9.22727L4.22708 9.86363C4.13617 9.95454 4.09071 10.0909 4.09071 10.1818C4.09071 10.2727 4.13617 10.4091 4.22708 10.5L4.31798 10.5909L7.86344 14.4091C7.90889 14.5 8.04526 14.5455 8.18162 14.5455C8.31798 14.5455 8.40889 14.5 8.4998 14.4091Z" fill="#5ABD43"/>
</svg>
