<svg width="11" height="11" viewBox="0 0 11 11" fill="none" xmlns="http://www.w3.org/2000/svg">
<g clip-path="url(#clip0)">
<path d="M5.08 0C2.27889 0 0 2.27889 0 5.08C0 7.88111 2.27889 10.16 5.08 10.16C7.88111 10.16 10.16 7.88111 10.16 5.08C10.16 2.27889 7.88111 0 5.08 0ZM5.08 9.07906C2.87494 9.07906 1.08083 7.28517 1.08083 5.08C1.08083 2.87483 2.87494 1.08094 5.08 1.08094C7.28506 1.08094 9.07917 2.87483 9.07917 5.08C9.07917 7.28517 7.28506 9.07906 5.08 9.07906Z" fill="#9C9C9C"/>
<path d="M7.72756 4.92315H5.44459V2.1782C5.44459 1.9472 5.25731 1.75992 5.02631 1.75992C4.79532 1.75992 4.60803 1.9472 4.60803 2.1782V5.34143C4.60803 5.57243 4.79532 5.75971 5.02631 5.75971H7.72756C7.95855 5.75971 8.14584 5.57243 8.14584 5.34143C8.14584 5.11044 7.95855 4.92315 7.72756 4.92315Z" fill="#9C9C9C"/>
</g>
<defs>
<clipPath id="clip0">
<rect width="10.16" height="10.16" fill="white"/>
</clipPath>
</defs>
</svg>
