<svg width="37" height="49" viewBox="0 0 37 49" fill="none" xmlns="http://www.w3.org/2000/svg">
<path fill-rule="evenodd" clip-rule="evenodd" d="M4.93182 24.5V22.8667H9.86364V24.5H4.93182ZM11.5076 24.5V22.8667H31.2348V24.5H11.5076ZM4.93182 27.7667V26.1333H9.86364V27.7667H4.93182ZM11.5076 27.7667V26.1333H31.2348V27.7667H11.5076ZM5.89078 12.0444V9.66388H6.96459L8.71499 12.0444H10.9887V9.66388H12.1476V12.0444H13.0145V13.0174H12.1476V13.9905H13.0145V14.9635H12.1476V17.2055H11.0738L9.42521 14.9635H7.04964V17.2055H5.89078V14.9635H4.93182V13.9905H5.89078V13.0174H4.93182V12.0444H5.89078ZM7.04964 12.0444H7.27873L7.1347 11.8485H7.04964V12.0444ZM10.9887 13.0174H9.43049L10.146 13.9905H10.9887V13.0174ZM7.99423 13.0174H7.04964V13.9905H8.70972L7.99423 13.0174ZM10.9887 14.9635H10.8615L10.9036 15.0209H10.9887V14.9635ZM4.93182 31.0333V29.4H9.86364V31.0333H4.93182ZM11.5076 31.0333V29.4H31.2348V31.0333H11.5076ZM4.93182 34.3V32.6667H9.86364V34.3H4.93182ZM11.5076 34.3V32.6667H31.2348V34.3H11.5076ZM4.93182 37.5667V35.9333H9.86364V37.5667H4.93182ZM11.5076 37.5667V35.9333H31.2348V37.5667H11.5076ZM4.93182 40.8333V39.2H9.86364V40.8333H4.93182ZM11.5076 40.8333V39.2H31.2348V40.8333H11.5076ZM36.1667 9.79999V31.0333V48.1833C36.1667 48.5348 35.9403 48.8474 35.6043 48.9585C35.5207 48.9857 35.4331 49 35.3447 49C35.0862 49 34.8422 48.8787 34.687 48.6736L32.8788 46.2783L31.0706 48.6736C30.9089 48.8686 30.6675 48.9819 30.4129 48.9819C30.1582 48.9819 29.9168 48.8686 29.7552 48.6736L27.947 46.2783L26.1388 48.6736C25.9771 48.8686 25.7357 48.9819 25.4811 48.9819C25.2264 48.9819 24.985 48.8686 24.8233 48.6736L23.0151 46.2783L21.207 48.6736C21.0453 48.8686 20.8039 48.9819 20.5492 48.9819C20.2946 48.9819 20.0532 48.8686 19.8915 48.6736L18.0833 46.2783L16.2751 48.6736C16.1135 48.8686 15.8721 48.9819 15.6174 48.9819C15.3627 48.9819 15.1214 48.8686 14.9597 48.6736L13.1515 46.2783L11.3433 48.6736C11.1817 48.8686 10.9403 48.9819 10.6856 48.9819C10.4309 48.9819 10.1895 48.8686 10.0279 48.6736L8.2197 46.2783L6.4115 48.6736C6.24985 48.8686 6.00846 48.9819 5.75379 48.9819C5.49911 48.9819 5.25773 48.8686 5.09607 48.6736L3.28788 46.2783L1.47968 48.6736C1.2672 48.9548 0.897454 49.0691 0.561953 48.9579C0.226316 48.8469 0 48.5348 0 48.1833V0.816655C0 0.465216 0.226316 0.153113 0.561953 0.0420464C0.897454 -0.0691564 1.2672 0.0451769 1.47968 0.326382L3.28788 2.72167L5.09607 0.326382C5.25773 0.131335 5.49911 0.0180908 5.75379 0.0180908C6.00846 0.0180908 6.24985 0.131335 6.4115 0.326382L8.2197 2.72167L10.0279 0.326382C10.1895 0.131335 10.4309 0.0180908 10.6856 0.0180908C10.9403 0.0180908 11.1817 0.131335 11.3433 0.326382L13.1515 2.72167L14.9597 0.326382C15.1214 0.131335 15.3627 0.0180908 15.6174 0.0180908C15.8721 0.0180908 16.1135 0.131335 16.2751 0.326382L18.0833 2.72167L19.8915 0.326382C20.0532 0.131335 20.2946 0.0180908 20.5492 0.0180908C20.8039 0.0180908 21.0453 0.131335 21.207 0.326382L23.0151 2.72167L24.8233 0.326382C24.985 0.131335 25.2264 0.0180908 25.4811 0.0180908C25.7357 0.0180908 25.9771 0.131335 26.1388 0.326382L27.947 2.72167L29.7552 0.326382C29.9168 0.131335 30.1582 0.0180908 30.4129 0.0180908C30.6675 0.0180908 30.9089 0.131335 31.0706 0.326382L32.8788 2.72167L34.687 0.326382C34.8995 0.0451769 35.2692 -0.0691564 35.6047 0.0420464C35.9403 0.153113 36.1667 0.465216 36.1667 0.816655V9.79999ZM34.5227 45.7333V31.0333V9.79999V3.26665L33.5365 4.57359C33.3748 4.76864 33.1335 4.88189 32.8788 4.88189C32.6241 4.88189 32.3827 4.76864 32.2211 4.57359L30.4129 2.17831L28.6047 4.57359C28.443 4.76864 28.2016 4.88189 27.947 4.88189C27.6923 4.88189 27.4509 4.76864 27.2893 4.57359L25.4811 2.17831L23.6729 4.57359C23.5112 4.76864 23.2698 4.88189 23.0151 4.88189C22.7605 4.88189 22.5191 4.76864 22.3574 4.57359L20.5492 2.17831L18.741 4.57359C18.5794 4.76864 18.338 4.88189 18.0833 4.88189C17.8287 4.88189 17.5873 4.76864 17.4256 4.57359L15.6174 2.17831L13.8092 4.57359C13.6476 4.76864 13.4062 4.88189 13.1515 4.88189C12.8968 4.88189 12.6555 4.76864 12.4938 4.57359L10.6856 2.17831L8.87741 4.57359C8.71575 4.76864 8.47437 4.88189 8.2197 4.88189C7.96502 4.88189 7.72364 4.76864 7.56198 4.57359L5.75379 2.17831L3.94559 4.57359C3.78394 4.76864 3.54255 4.88189 3.28788 4.88189C3.0332 4.88189 2.79182 4.76864 2.63017 4.57359L1.64394 3.26665V45.7333L2.63017 44.4264C2.79182 44.2313 3.0332 44.1181 3.28788 44.1181C3.54255 44.1181 3.78394 44.2313 3.94559 44.4264L5.75379 46.8217L7.56198 44.4264C7.72364 44.2313 7.96502 44.1181 8.2197 44.1181C8.47437 44.1181 8.71575 44.2313 8.87741 44.4264L10.6856 46.8217L12.4938 44.4264C12.6555 44.2313 12.8968 44.1181 13.1515 44.1181C13.4062 44.1181 13.6476 44.2313 13.8092 44.4264L15.6174 46.8217L17.4256 44.4264C17.5873 44.2313 17.8287 44.1181 18.0833 44.1181C18.338 44.1181 18.5794 44.2313 18.741 44.4264L20.5492 46.8217L22.3574 44.4264C22.5191 44.2313 22.7605 44.1181 23.0151 44.1181C23.2698 44.1181 23.5112 44.2313 23.6729 44.4264L25.4811 46.8217L27.2893 44.4264C27.4509 44.2313 27.6923 44.1181 27.947 44.1181C28.2016 44.1181 28.443 44.2313 28.6047 44.4264L30.4129 46.8217L32.2211 44.4264C32.3827 44.2313 32.6241 44.1181 32.8788 44.1181C33.1335 44.1181 33.3748 44.2313 33.5365 44.4264L34.5227 45.7333Z" fill="#AB2656"/>
</svg>
