<svg width="24" height="26" viewBox="0 0 24 26" fill="none" xmlns="http://www.w3.org/2000/svg">
<path fill-rule="evenodd" clip-rule="evenodd" d="M20.3218 9.50747V10.4679C22.1128 10.5833 23.5309 12.079 23.5256 13.8948V15.3957C23.5256 17.2221 22.097 18.7177 20.2956 18.828C20.117 21.5674 18.7672 22.9267 17.6275 23.5932C16.8187 24.0655 16.0046 24.2492 15.4899 24.3226C15.2326 25.2568 14.3765 25.9495 13.3576 25.9495H11.7767C10.5582 25.9495 9.56554 24.9524 9.56554 23.7349C9.56554 22.5173 10.5582 21.5254 11.7767 21.5254H13.3523C14.3344 21.5254 15.1695 22.1657 15.4584 23.0526C16.5088 22.8794 18.7725 22.1185 19.0298 18.8332H18.1475C17.8008 18.8332 17.5172 18.5498 17.5172 18.2034V11.0871C17.5172 10.7408 17.8008 10.4574 18.1475 10.4574H19.0508V9.50747C19.0508 5.35628 16.0939 2.22846 12.1653 2.22846H11.3723C7.44894 2.22846 4.48675 5.35628 4.48675 9.50747V10.4574H5.39011C5.73675 10.4574 6.02037 10.7408 6.02037 11.0871V18.2087C6.02037 18.5551 5.73675 18.8384 5.39011 18.8384H3.45209C1.55608 18.8384 0.0119629 17.2955 0.0119629 15.401V13.9001C0.0119629 12.079 1.43528 10.5886 3.22625 10.4679V9.50747C3.22625 7.20883 4.04033 5.07289 5.51617 3.48798C7.02877 1.8611 9.1086 0.968933 11.3775 0.968933H12.1706C14.4395 0.968933 16.5193 1.8611 18.0319 3.48798C19.5078 5.07289 20.3218 7.20883 20.3218 9.50747ZM3.4626 17.5737H4.77039V11.7169H3.4626C2.25986 11.7169 1.28296 12.693 1.28296 13.8948V15.3957C1.28296 16.5975 2.25986 17.5737 3.4626 17.5737ZM13.358 24.69H11.7771C11.2518 24.69 10.8264 24.2649 10.8264 23.7401C10.8264 23.2153 11.2518 22.7902 11.7771 22.7902H13.358C13.8832 22.7902 14.3086 23.2153 14.3086 23.7401C14.3086 24.2649 13.8832 24.69 13.358 24.69ZM20.0907 17.5737C21.2935 17.5737 22.2704 16.5975 22.2704 15.3957V13.8948C22.2704 12.693 21.2935 11.7169 20.0907 11.7169H18.783V17.5737H20.0907Z" fill="white"/>
</svg>
