<svg width="105" height="69" viewBox="0 0 105 69" fill="none" xmlns="http://www.w3.org/2000/svg">
<g opacity="0.269531">
<path fill-rule="evenodd" clip-rule="evenodd" d="M2.17665 26.1617H102.299C103.605 26.1617 104.476 27.0186 104.476 28.3037V58.2905C104.476 64.2877 99.6872 69 93.5927 69H10.8828C4.78854 69 0 64.2879 0 58.2905V28.3037C0 27.0186 0.870699 26.1617 2.17665 26.1617ZM32.649 43.2971H15.2366C13.9307 43.2971 13.06 44.1538 13.06 45.4389C13.06 46.7241 13.9307 47.5809 15.2366 47.5811H32.649C33.9549 47.5811 34.8256 46.7243 34.8256 45.4391C34.8256 44.154 33.9549 43.2971 32.649 43.2971ZM45.7085 56.1489H15.2367C13.9307 56.1489 13.06 55.292 13.06 54.0069C13.06 52.7217 13.9307 51.8649 15.2367 51.8649H45.7085C47.0144 51.8649 47.8851 52.7217 47.8851 54.0069C47.8851 55.292 47.0144 56.1489 45.7085 56.1489ZM78.3567 54.8637C79.6626 55.7205 80.9686 56.1488 82.7097 56.1488C87.4982 56.1488 91.416 52.2933 91.416 47.5811C91.416 42.8688 87.4982 39.0133 82.7097 39.0133C80.9686 39.0133 79.6626 39.4416 78.3567 40.2985C77.0508 39.4416 75.7448 39.0133 74.0036 39.0133C69.2152 39.0133 65.2974 42.8688 65.2974 47.5811C65.2974 52.2933 69.2152 56.1488 74.0036 56.1488C75.7448 56.1488 77.0508 55.7205 78.3567 54.8637Z" fill="black"/>
<path d="M93.5928 0H10.8828C4.78853 0 0 4.71229 0 10.7097V14.9935C0 16.2787 0.870698 17.1355 2.17664 17.1355H102.299C103.605 17.1355 104.476 16.2787 104.476 14.9935V10.7097C104.476 4.71229 99.6871 0 93.5928 0Z" fill="black"/>
</g>
</svg>
