<svg width="34" height="28" viewBox="0 0 34 28" fill="none" xmlns="http://www.w3.org/2000/svg">
<path fill-rule="evenodd" clip-rule="evenodd" d="M32.9474 0.906055C32.401 0.336828 31.744 0.0522461 30.9767 0.0522461H3.0695C2.30208 0.0522461 1.64529 0.336764 1.09847 0.906055C0.551946 1.47541 0.278809 2.15956 0.278809 2.95903V25.0519C0.278809 25.8515 0.551946 26.5357 1.09847 27.105C1.64529 27.6743 2.30208 27.959 3.0695 27.959H30.9767C31.744 27.959 32.4009 27.6743 32.9474 27.105C33.4939 26.5358 33.7674 25.8516 33.7674 25.0519V2.95903C33.7674 2.15956 33.4939 1.47541 32.9474 0.906055ZM31.5349 25.0523C31.5349 25.21 31.4797 25.3459 31.3692 25.4613C31.2588 25.5758 31.128 25.6333 30.977 25.6333H3.06978C2.91871 25.6333 2.78785 25.5758 2.6774 25.4608C2.56701 25.3455 2.51172 25.2095 2.51172 25.0519V14.0056H31.5349V25.0523H31.5349ZM2.51172 7.02858H31.5349V2.95878C31.5349 2.80134 31.4797 2.66535 31.3692 2.55004C31.2588 2.43505 31.128 2.37772 30.977 2.37772H3.06978C2.91877 2.37772 2.78791 2.43531 2.6774 2.55004C2.56682 2.66535 2.51172 2.80134 2.51172 2.95878V7.02858Z" fill="#717171"/>
<rect x="4.74658" y="20.9821" width="4.46508" height="2.32578" fill="#717171"/>
<rect x="11.4414" y="20.9821" width="6.69764" height="2.32578" fill="#717171"/>
</svg>
