<svg width="168" height="226" viewBox="0 0 168 226" fill="none" xmlns="http://www.w3.org/2000/svg">
<rect width="168" height="226" fill="#C4C4C4"/>
<path d="M79.8221 109.789C78.8337 109.789 78.0296 110.593 78.0296 111.581C78.0296 112.57 78.8337 113.374 79.8221 113.374C80.8106 113.374 81.6147 112.57 81.6147 111.581C81.6147 110.593 80.8106 109.789 79.8221 109.789ZM79.8221 112.495C79.3184 112.495 78.9086 112.085 78.9086 111.581C78.9086 111.078 79.3184 110.668 79.8221 110.668C80.3259 110.668 80.7357 111.078 80.7357 111.581C80.7357 112.085 80.3259 112.495 79.8221 112.495Z" fill="#828282"/>
<path d="M84.4955 109.789C83.5071 109.789 82.7029 110.593 82.7029 111.581C82.7029 112.57 83.5071 113.374 84.4955 113.374C85.4839 113.374 86.2881 112.57 86.2881 111.581C86.2881 110.593 85.4839 109.789 84.4955 109.789ZM84.4955 112.495C83.9917 112.495 83.5819 112.085 83.5819 111.581C83.5819 111.078 83.9917 110.668 84.4955 110.668C84.9993 110.668 85.4091 111.078 85.4091 111.581C85.4091 112.085 84.9993 112.495 84.4955 112.495Z" fill="#828282"/>
<path d="M89.1689 109.789C88.1805 109.789 87.3763 110.593 87.3763 111.581C87.3763 112.57 88.1805 113.374 89.1689 113.374C90.1573 113.374 90.9615 112.57 90.9615 111.581C90.9615 110.593 90.1573 109.789 89.1689 109.789ZM89.1689 112.495C88.6651 112.495 88.2553 112.085 88.2553 111.581C88.2553 111.078 88.6652 110.668 89.1689 110.668C89.6726 110.668 90.0825 111.078 90.0825 111.581C90.0825 112.085 89.6726 112.495 89.1689 112.495Z" fill="#828282"/>
<path d="M79.8221 114.161C78.8337 114.161 78.0296 114.966 78.0296 115.954C78.0296 116.942 78.8337 117.747 79.8221 117.747C80.8106 117.747 81.6147 116.942 81.6147 115.954C81.6147 114.966 80.8106 114.161 79.8221 114.161ZM79.8221 116.868C79.3184 116.868 78.9086 116.458 78.9086 115.954C78.9086 115.45 79.3184 115.04 79.8221 115.04C80.3259 115.04 80.7357 115.45 80.7357 115.954C80.7357 116.458 80.3259 116.868 79.8221 116.868Z" fill="#828282"/>
<path d="M89.1689 114.161C88.1805 114.161 87.3763 114.966 87.3763 115.954C87.3763 116.942 88.1805 117.747 89.1689 117.747C90.1573 117.747 90.9615 116.942 90.9615 115.954C90.9614 114.966 90.1573 114.161 89.1689 114.161ZM89.1689 116.868C88.6651 116.868 88.2553 116.458 88.2553 115.954C88.2553 115.45 88.6652 115.04 89.1689 115.04C89.6726 115.04 90.0825 115.45 90.0825 115.954C90.0824 116.458 89.6726 116.868 89.1689 116.868Z" fill="#828282"/>
<path d="M84.4955 114.161C83.5071 114.161 82.7029 114.966 82.7029 115.954C82.7029 116.942 83.5071 117.747 84.4955 117.747C85.4839 117.747 86.2881 116.942 86.2881 115.954C86.2881 114.966 85.4839 114.161 84.4955 114.161ZM84.4955 116.868C83.9917 116.868 83.5819 116.458 83.5819 115.954C83.5819 115.45 83.9917 115.04 84.4955 115.04C84.9993 115.04 85.4091 115.45 85.4091 115.954C85.4091 116.458 84.9993 116.868 84.4955 116.868Z" fill="#828282"/>
<path d="M84.4955 118.534C83.5071 118.534 82.703 119.338 82.703 120.327C82.703 121.315 83.5071 122.119 84.4955 122.119C85.4839 122.119 86.2881 121.315 86.2881 120.327C86.2881 119.338 85.4839 118.534 84.4955 118.534ZM84.4955 121.24C83.9917 121.24 83.5819 120.83 83.5819 120.327C83.5819 119.823 83.9917 119.413 84.4955 119.413C84.9993 119.413 85.4091 119.823 85.4091 120.327C85.4091 120.83 84.9993 121.24 84.4955 121.24Z" fill="#828282"/>
<path d="M79.8221 118.534C78.8337 118.534 78.0296 119.338 78.0296 120.327C78.0296 121.315 78.8337 122.119 79.8221 122.119C80.8106 122.119 81.6147 121.315 81.6147 120.327C81.6147 119.338 80.8106 118.534 79.8221 118.534ZM79.8221 121.24C79.3184 121.24 78.9086 120.83 78.9086 120.327C78.9086 119.823 79.3184 119.413 79.8221 119.413C80.3259 119.413 80.7357 119.823 80.7357 120.327C80.7357 120.83 80.3259 121.24 79.8221 121.24Z" fill="#828282"/>
<path d="M75.7704 111.582L76.4164 110.935C76.5881 110.764 76.5881 110.486 76.4164 110.314C76.2448 110.142 75.9666 110.142 75.7949 110.314L75.1489 110.96L74.5029 110.314C74.3313 110.142 74.053 110.142 73.8814 110.314C73.7097 110.486 73.7097 110.764 73.8813 110.935L74.5274 111.582L73.8813 112.228C73.7096 112.399 73.7096 112.677 73.8813 112.849C73.9671 112.935 74.0796 112.978 74.192 112.978C74.3044 112.978 74.4169 112.935 74.5028 112.849L75.1488 112.203L75.7948 112.849C75.8806 112.935 75.993 112.978 76.1055 112.978C76.218 112.978 76.3305 112.935 76.4163 112.849C76.588 112.677 76.588 112.399 76.4163 112.228L75.7704 111.582Z" fill="#828282"/>
<path d="M75.7704 115.954L76.4164 115.308C76.5881 115.136 76.5881 114.858 76.4164 114.687C76.2448 114.515 75.9666 114.515 75.7949 114.687L75.1489 115.333L74.5029 114.687C74.3313 114.515 74.053 114.515 73.8814 114.687C73.7097 114.858 73.7097 115.136 73.8813 115.308L74.5274 115.954L73.8813 116.6C73.7096 116.772 73.7096 117.05 73.8813 117.222C73.9671 117.307 74.0796 117.35 74.192 117.35C74.3044 117.35 74.4169 117.307 74.5028 117.222L75.1488 116.576L75.7948 117.222C75.8806 117.307 75.993 117.35 76.1055 117.35C76.218 117.35 76.3305 117.307 76.4163 117.222C76.588 117.05 76.588 116.772 76.4163 116.6L75.7704 115.954Z" fill="#828282"/>
<path d="M76.4164 120.973L75.7704 120.327L76.4164 119.681C76.5879 119.509 76.5879 119.231 76.4163 119.059C76.2446 118.887 75.9664 118.887 75.7947 119.059L75.1487 119.705L74.5027 119.059C74.331 118.887 74.0528 118.887 73.8812 119.059C73.7095 119.231 73.7095 119.509 73.8812 119.681L74.5272 120.327L73.8812 120.973C73.7095 121.144 73.7095 121.422 73.8812 121.594C73.967 121.68 74.0795 121.723 74.1919 121.723C74.3044 121.723 74.4169 121.68 74.5027 121.594L75.1487 120.948L75.7947 121.594C75.8806 121.68 75.9931 121.723 76.1055 121.723C76.2179 121.723 76.3304 121.68 76.4163 121.594C76.588 121.422 76.588 121.144 76.4164 120.973Z" fill="#828282"/>
<path d="M98.9748 122.28L97.7762 115.973C97.7309 115.734 97.5004 115.578 97.2624 115.623C97.0239 115.668 96.8674 115.898 96.9127 116.137L98.1112 122.444C98.1782 122.797 97.8802 123.13 97.4742 123.13H90.9708L95.189 118.912C95.2662 118.835 95.3177 118.722 95.3177 118.602V107.743L96.5229 114.086C96.5682 114.324 96.7985 114.481 97.0367 114.436C97.2751 114.39 97.4317 114.16 97.3864 113.922L95.3148 103.02C95.285 102.371 94.7496 101.853 94.0938 101.853H90.2425V100.439C90.2425 100.197 90.0458 100 89.803 100C89.5603 100 89.3636 100.197 89.3636 100.439V101.853H86.4204V100.439C86.4204 100.197 86.2237 100 85.9809 100C85.7382 100 85.5415 100.197 85.5415 100.439V101.853H82.5983V100.439C82.5983 100.197 82.4016 100 82.1588 100C81.9161 100 81.7194 100.197 81.7194 100.439V101.853H78.7762V100.439C78.7762 100.197 78.5795 100 78.3367 100C78.094 100 77.8973 100.197 77.8973 100.439V101.853H74.9541V100.439C74.9541 100.197 74.7574 100 74.5147 100C74.2719 100 74.0752 100.197 74.0752 100.439V101.853H70.2238C69.549 101.853 69 102.402 69 103.076V123.974C69 124.648 69.549 125.197 70.2238 125.197H81.1334C81.3762 125.197 81.5729 125.001 81.5729 124.758C81.5729 124.515 81.3762 124.319 81.1334 124.319H70.2238C70.0337 124.319 69.879 124.164 69.879 123.974V107.559H94.4388V118.162H89.506C88.8312 118.162 88.2822 118.711 88.2822 119.386V124.318H83.1843C82.9415 124.318 82.7448 124.515 82.7448 124.758C82.7448 125.001 82.9415 125.197 83.1843 125.197H88.7217C88.835 125.197 88.9487 125.152 89.0324 125.069L90.0918 124.009H97.4742C98.4287 124.009 99.1455 123.178 98.9748 122.28ZM69.879 106.68V103.076C69.879 102.886 70.0337 102.732 70.2238 102.732H74.0752V104.706C74.0752 104.948 74.2719 105.145 74.5147 105.145C74.7574 105.145 74.9541 104.948 74.9541 104.706V102.732H77.8973V104.706C77.8973 104.948 78.094 105.145 78.3367 105.145C78.5795 105.145 78.7762 104.948 78.7762 104.706V102.732H81.7194V104.706C81.7194 104.948 81.9161 105.145 82.1588 105.145C82.4016 105.145 82.5983 104.948 82.5983 104.706V102.732H85.5415V104.706C85.5415 104.948 85.7382 105.145 85.9809 105.145C86.2237 105.145 86.4204 104.948 86.4204 104.706V102.732H89.3636V104.706C89.3636 104.948 89.5603 105.145 89.803 105.145C90.0458 105.145 90.2425 104.948 90.2425 104.706V102.732H94.0938C94.284 102.732 94.4387 102.886 94.4387 103.076V106.68H69.879V106.68ZM89.1611 123.697V119.386C89.1611 119.196 89.3158 119.041 89.5059 119.041H93.8172C93.3774 119.481 89.6018 123.256 89.1611 123.697Z" fill="#828282"/>
</svg>
