<svg width="20" height="15" viewBox="0 0 20 15" fill="none" xmlns="http://www.w3.org/2000/svg">
<path d="M1.83236 4.6236C2.07386 4.79401 2.80183 5.30014 4.0163 6.14173C5.23081 6.98333 6.16121 7.63133 6.80754 8.08578C6.87855 8.1356 7.02941 8.24388 7.2602 8.41079C7.49103 8.57781 7.68282 8.71278 7.83544 8.81573C7.98817 8.91864 8.1728 9.03409 8.38952 9.16189C8.60617 9.28958 8.81039 9.38563 9.00215 9.44921C9.19395 9.51332 9.37149 9.54507 9.53481 9.54507H9.54552H9.55627C9.71959 9.54507 9.89721 9.51328 10.089 9.44921C10.2807 9.38563 10.4851 9.28947 10.7016 9.16189C10.9181 9.03394 11.1028 8.9186 11.2555 8.81573C11.4082 8.71278 11.5999 8.57781 11.8308 8.41079C12.0615 8.24373 12.2126 8.1356 12.2836 8.08578C12.9369 7.63133 14.599 6.47715 17.2694 4.62337C17.7878 4.26131 18.2209 3.82443 18.5689 3.31304C18.9171 2.80187 19.091 2.26562 19.091 1.7046C19.091 1.23578 18.9223 0.834463 18.5849 0.500685C18.2475 0.166833 17.8479 0 17.3864 0H1.70449C1.15764 0 0.736811 0.184632 0.442064 0.553896C0.147355 0.923234 0 1.38489 0 1.93882C0 2.38626 0.195378 2.87112 0.585949 3.39312C0.976482 3.91514 1.39209 4.32534 1.83236 4.6236Z" fill="#AE335F"/>
<path d="M18.0256 5.76338C15.6963 7.33995 13.9275 8.56521 12.7203 9.43889C12.3155 9.73707 11.9871 9.96984 11.7349 10.1366C11.4827 10.3035 11.1472 10.474 10.7281 10.6479C10.3092 10.8221 9.9187 10.9089 9.55642 10.9089H9.54556H9.53485C9.17264 10.9089 8.78196 10.8221 8.36299 10.6479C7.94402 10.474 7.60838 10.3035 7.35625 10.1366C7.10419 9.96984 6.77567 9.73707 6.37088 9.43889C5.41201 8.73581 3.64711 7.51048 1.07611 5.76338C0.671175 5.49367 0.312509 5.18452 0 4.83656V13.2952C0 13.7642 0.166833 14.1653 0.500685 14.4991C0.834463 14.8331 1.23582 15 1.7046 15H17.3866C17.8553 15 18.2566 14.8331 18.5904 14.4991C18.9243 14.1652 19.0911 13.7643 19.0911 13.2952V4.83656C18.7856 5.17732 18.4306 5.48647 18.0256 5.76338Z" fill="#AE335F"/>
</svg>
