<svg width="65" height="81" viewBox="0 0 65 81" fill="none" xmlns="http://www.w3.org/2000/svg">
<g clip-path="url(#clip0)">
<path fill-rule="evenodd" clip-rule="evenodd" d="M63.542 13.4524L33.1967 0.168899C32.6808 -0.0565234 32.0943 -0.0565234 31.5784 0.168899L1.23305 13.4524C0.496451 13.7733 0.0194778 14.5019 0.0194778 15.3054V47.0667C0.0306421 54.2047 3.45996 60.9049 9.2435 65.0879L30.2163 80.215C31.5116 81.1523 33.2634 81.1523 34.5578 80.215L55.5306 65.0898C61.3151 60.9077 64.7454 54.2066 64.7565 47.0684V15.3054C64.7556 14.5019 64.2796 13.7733 63.542 13.4524ZM60.7101 47.0684C60.7008 52.9075 57.8948 58.3877 53.1645 61.8087L32.3876 76.794L11.6106 61.8087C6.88025 58.3877 4.07423 52.9075 4.06496 47.0684V16.6285L32.3876 4.23101L60.7101 16.6285V47.0684Z" fill="#C6C6C6"/>
<path fill-rule="evenodd" clip-rule="evenodd" d="M31.5783 9.00146L9.3252 18.745C8.58836 19.0661 8.11139 19.7935 8.11139 20.598V47.0684C8.11804 51.6087 10.2984 55.8693 13.9776 58.5279L31.2035 70.9529C31.9107 71.4624 32.8644 71.4624 33.5706 70.9529L50.7977 58.5279C54.4757 55.8693 56.6579 51.6087 56.6646 47.0684V20.598C56.6636 19.7935 56.1876 19.0661 55.4501 18.745L33.1967 9.00146C32.6808 8.77675 32.0943 8.77675 31.5783 9.00146ZM52.6182 21.9182V47.0684C52.6115 50.3077 51.0547 53.3484 48.4306 55.2458L32.3876 66.8184L16.3446 55.2458C13.7206 53.3484 12.1635 50.3077 12.1571 47.0684V21.9182L32.3876 13.0645L52.6182 21.9182Z" fill="#C6C6C6"/>
<path fill-rule="evenodd" clip-rule="evenodd" d="M21.4636 42.8875C20.5692 42.2167 19.3008 42.3984 18.6309 43.292C17.9609 44.1856 18.1409 45.4538 19.0355 46.1239L27.1283 52.1932C27.4782 52.4557 27.9041 52.5987 28.341 52.5987C28.4562 52.5977 28.5702 52.5885 28.6825 52.5697C29.231 52.4761 29.7163 52.1597 30.0251 51.6977L46.2092 27.4208C46.6102 26.8203 46.6603 26.0502 46.3391 25.4024C46.0199 24.7539 45.3778 24.3261 44.6569 24.2798C43.935 24.2325 43.2438 24.5739 42.8428 25.1751L27.8438 47.6743L21.4636 42.8875Z" fill="#C6C6C6"/>
</g>
<defs>
<clipPath id="clip0">
<rect width="64.8475" height="81" fill="white"/>
</clipPath>
</defs>
</svg>
