<svg width="10" height="12" viewBox="0 0 10 12" fill="none" xmlns="http://www.w3.org/2000/svg">
<path d="M8.93801 2.98668C8.8953 2.82659 8.80856 2.65601 8.74439 2.50667C7.97653 0.661332 6.29879 0 4.9441 0C3.1306 0 1.13324 1.21603 0.866577 3.72256V4.23465C0.866577 4.25603 0.873943 4.448 0.884405 4.54403C1.03389 5.73858 1.97648 7.00812 2.68044 8.20267C3.4378 9.48251 4.22368 10.7415 5.00227 12C5.48237 11.1787 5.96073 10.3467 6.42989 9.54668C6.55776 9.3119 6.70618 9.07727 6.83419 8.85318C6.9195 8.70397 7.08249 8.55476 7.15696 8.41594C7.91429 7.02936 9.13331 5.63206 9.13331 4.256V3.6907C9.13333 3.54152 8.94842 3.01885 8.93801 2.98668ZM4.9773 5.5574C4.44422 5.5574 3.86073 5.29085 3.57272 4.55472C3.52982 4.43754 3.53327 4.20271 3.53327 4.1812V3.85053C3.53327 2.9121 4.33009 2.48535 5.02328 2.48535C5.87667 2.48535 6.53669 3.16811 6.53669 4.0215C6.53669 4.87487 5.83069 5.5574 4.9773 5.5574Z" fill="#9C9C9C"/>
</svg>
