<svg width="42" height="42" viewBox="0 0 42 42" fill="none" xmlns="http://www.w3.org/2000/svg">
<path fill-rule="evenodd" clip-rule="evenodd" d="M20.801 0C32.27 0 41.602 9.332 41.602 20.801C41.602 32.27 32.27 41.602 20.801 41.602C9.332 41.602 0 32.27 0 20.801C0 9.332 9.332 0 20.801 0ZM20.801 40C31.387 40 40 31.387 40 20.801C40 10.215 31.387 1.602 20.801 1.602C10.215 1.602 1.602 10.215 1.602 20.801C1.602 31.387 10.215 40 20.801 40ZM22.1898 20.9966L28.2249 27.8674L28.796 28.5309C29.1168 28.9035 29.0747 29.4656 28.7021 29.7864C28.332 30.1049 27.7745 30.066 27.4524 29.6991L21 22.3515L14.5476 29.6991C14.2255 30.066 13.668 30.1049 13.2979 29.7864C12.9253 29.4656 12.8832 28.9035 13.204 28.5309L13.7751 27.8674L19.8102 20.9966L13.2266 13.4996C12.8964 13.1261 12.932 12.559 13.3011 12.2293C13.6657 11.8952 14.2293 11.9312 14.555 12.3047L21 19.6421L27.445 12.3047C27.7707 11.9312 28.3343 11.8952 28.6989 12.2293C29.068 12.559 29.1036 13.1261 28.7734 13.4996L22.1898 20.9966Z" fill="#FF0000"/>
</svg>
