<svg width="24" height="23" viewBox="0 0 24 23" fill="none" xmlns="http://www.w3.org/2000/svg">
<rect x="0.00390625" width="23" height="23" rx="5" fill="#169A62"/>
<g clip-path="url(#clip0)">
<g clip-path="url(#clip1)">
<path d="M12.9445 7.26681V9.13347H13.4112V7.26681H13.8778V9.13347H14.3445V7.26681H15.0445C15.1733 7.26681 15.2778 7.16227 15.2778 7.03347V6.10014C15.2778 6.00325 15.2181 5.91651 15.1275 5.88198L10.2276 4.01531C10.1741 3.9949 10.115 3.9949 10.0615 4.01531L5.16156 5.88198C5.07096 5.91651 5.01123 6.00325 5.01123 6.10014V7.03347C5.01123 7.16227 5.11576 7.26681 5.24456 7.26681H5.94456V11.0001H5.71123C5.58237 11.0001 5.4779 11.1045 5.4779 11.2334V11.9334H5.24456C5.11576 11.9334 5.01123 12.0379 5.01123 12.1667V13.1001C5.01123 13.2288 5.11576 13.3334 5.24456 13.3334H12.0112V12.8667H5.4779V12.4001H12.0112V11.9334H5.94456V11.4667H12.0112V7.26681H12.9445ZM5.4779 6.26085L10.1446 4.48309L14.8111 6.26085V6.80014H5.4779V6.26085ZM10.6112 7.26681V11.0001H9.67789V7.26681H10.6112ZM8.27789 7.26681V11.0001H7.34456V7.26681H8.27789ZM6.41123 11.0001V7.26681H6.87789V11.0001H6.41123ZM8.74455 11.0001V7.26681H9.21122V11.0001H8.74455ZM11.5445 11.0001H11.0778V7.26681H11.5445V11.0001Z" fill="white"/>
<path d="M10.1446 6.33347C10.5311 6.33347 10.8445 6.02004 10.8445 5.63347C10.8445 5.2469 10.5311 4.93347 10.1446 4.93347C9.758 4.93347 9.44458 5.2469 9.44458 5.63347C9.44458 6.02004 9.758 6.33347 10.1446 6.33347ZM10.1446 5.40014C10.2734 5.40014 10.3779 5.50467 10.3779 5.63347C10.3779 5.76233 10.2734 5.8668 10.1446 5.8668C10.0157 5.8668 9.91124 5.76233 9.91124 5.63347C9.91124 5.50467 10.0157 5.40014 10.1446 5.40014Z" fill="white"/>
<path d="M17.6113 12.7701V9.83343C17.6113 9.70451 17.5069 9.6001 17.378 9.6001H12.7114C12.5825 9.6001 12.478 9.70451 12.478 9.83343V17.7667C12.478 17.8954 12.5825 18 12.7114 18H16.4447V17.8232C16.443 17.2508 16.6704 16.7018 17.0763 16.2983C17.1674 16.2071 17.1674 16.0594 17.0763 15.9683L15.443 14.3351C15.2825 14.1675 15.2853 13.9022 15.4494 13.738C15.6135 13.574 15.8788 13.5711 16.0464 13.7317L17.6797 15.3649L18.0096 15.035L17.6113 14.6367V13.43L18.0663 13.8849C18.3735 14.1906 18.5457 14.6063 18.5446 15.0397V18H19.0113V15.0397C19.0129 14.4824 18.7914 13.9479 18.3962 13.555L17.6113 12.7701ZM16.2113 12.8221C15.5354 12.2593 14.554 12.2593 13.878 12.8221V11.4268C14.0771 11.3558 14.2339 11.1992 14.3047 11.0001H15.7845C15.8555 11.1992 16.0121 11.3558 16.2113 11.4268V12.8221ZM13.878 14.7778C14.2033 15.0547 14.6177 15.2047 15.0447 15.2C15.2235 15.2001 15.4014 15.1749 15.5733 15.1251L16.2113 15.7633V16.1731C16.0121 16.2442 15.8555 16.4009 15.7845 16.6H14.3047C14.2339 16.4009 14.0771 16.2442 13.878 16.1731V14.7778ZM15.113 13.4013C14.7646 13.7504 14.7646 14.3155 15.113 14.6645L15.1723 14.7239C15.1301 14.7277 15.0879 14.7329 15.0447 14.7329C14.4014 14.7329 13.878 14.3143 13.878 13.7996C13.878 13.2848 14.4014 12.8662 15.0447 12.8662C15.349 12.862 15.6454 12.9635 15.8833 13.1535C15.6016 13.108 15.3153 13.2004 15.113 13.4017V13.4013ZM16.678 13.7034V11.2334C16.678 11.1045 16.5735 11.0001 16.4447 11.0001C16.3157 11.0001 16.2113 10.8956 16.2113 10.7668C16.2113 10.6378 16.1069 10.5334 15.978 10.5334H14.1114C13.9825 10.5334 13.878 10.6378 13.878 10.7668C13.878 10.8956 13.7736 11.0001 13.6447 11.0001C13.5158 11.0001 13.4114 11.1045 13.4114 11.2334V16.3667C13.4114 16.4954 13.5158 16.6 13.6447 16.6C13.7736 16.6 13.878 16.7044 13.878 16.8334C13.878 16.9621 13.9825 17.0667 14.1114 17.0667H15.978C16.0231 17.0654 16.067 17.051 16.1038 17.0248C16.0508 17.1902 16.0146 17.3606 15.9957 17.5334H12.9447V10.0668H17.1447V14.1701L16.678 13.7034Z" fill="white"/>
<path d="M14.811 11.4668H15.2777V11.9335H14.811V11.4668Z" fill="white"/>
<path d="M14.811 15.6667H15.2777V16.1334H14.811V15.6667Z" fill="white"/>
<path d="M8.51123 14.7334H8.97789V15.2001H8.51123V14.7334Z" fill="white"/>
<path d="M8.51123 13.8002H8.97789V14.2669H8.51123V13.8002Z" fill="white"/>
<path d="M8.51123 15.6667H8.97789V16.1334H8.51123V15.6667Z" fill="white"/>
<path d="M8.51123 16.6001H8.97789V17.0668H8.51123V16.6001Z" fill="white"/>
<path d="M9.44458 16.6001H9.91124V17.0668H9.44458V16.6001Z" fill="white"/>
<path d="M10.3779 16.6001H10.8445V17.0668H10.3779V16.6001Z" fill="white"/>
<path d="M11.311 16.6001H11.7777V17.0668H11.311V16.6001Z" fill="white"/>
</g>
</g>
<defs>
<clipPath id="clip0">
<rect width="15" height="15" fill="white" transform="translate(4.00391 4)"/>
</clipPath>
<clipPath id="clip1">
<rect width="14" height="14" fill="white" transform="translate(5.00391 4)"/>
</clipPath>
</defs>
</svg>
