<svg width="34" height="34" viewBox="0 0 34 34" fill="none" xmlns="http://www.w3.org/2000/svg">
<path d="M24.3806 0.738678H21.4355C20.9782 0.738678 20.6084 1.1031 20.6084 1.55365C20.6084 2.0042 20.9782 2.36199 21.4355 2.36199H24.3806C27.0299 2.36199 29.1884 4.48886 29.1884 7.09942V11.2008L28.0991 10.1274C27.7763 9.80936 27.2585 9.80936 26.9358 10.1274C26.613 10.4454 26.613 10.9556 26.9358 11.2737L29.4304 13.7318C29.5851 13.8842 29.7935 13.9703 30.0154 13.9703C30.2306 13.9703 30.4458 13.8842 30.6004 13.7318L33.0951 11.2737C33.4178 10.9556 33.4178 10.4454 33.0951 10.1274C32.7723 9.80936 32.2546 9.80936 31.9318 10.1274L30.8425 11.2008V7.09942C30.8358 3.59438 27.9377 0.738678 24.3806 0.738678Z" fill="white"/>
<path d="M9.34579 33.1387H12.291C12.7482 33.1387 13.118 32.7743 13.118 32.3237C13.118 31.8732 12.7482 31.5154 12.291 31.5154H9.34579C6.69649 31.5154 4.53805 29.3885 4.53805 26.7779V22.6766L5.62736 23.75C5.78874 23.909 5.99718 23.9885 6.21236 23.9885C6.42753 23.9885 6.63597 23.909 6.79735 23.75C7.12011 23.4319 7.12011 22.9217 6.79735 22.6037L4.30271 20.1455C4.14805 19.9931 3.9396 19.907 3.71771 19.907C3.50254 19.907 3.28737 19.9931 3.13271 20.1455L0.638064 22.6037C0.315307 22.9217 0.315307 23.4319 0.638064 23.75C0.960822 24.068 1.47858 24.068 1.80134 23.75L2.89064 22.6766V26.7779C2.89064 30.283 5.78874 33.1387 9.34579 33.1387Z" fill="white"/>
<path d="M15.5581 15.2434H1.11818C0.71922 15.2434 0.395996 15.5686 0.395996 15.9705C0.395996 16.3716 0.71922 16.6969 1.11818 16.6969H15.5577C15.9567 16.6969 16.2799 16.3716 16.2799 15.9705C16.2796 15.5686 15.9564 15.2434 15.5581 15.2434Z" fill="white"/>
<path fill-rule="evenodd" clip-rule="evenodd" d="M1.29785 14.0808C1.29785 13.6793 1.62108 13.354 2.02003 13.354V13.3537H2.20058V6.81452H2.02003C1.82089 6.81452 1.65928 6.65188 1.65928 6.45148C1.65928 6.25108 1.82055 6.08844 2.02003 6.08844H14.6548C14.854 6.08844 15.0156 6.25108 15.0156 6.45148C15.0156 6.65188 14.8546 6.81452 14.6548 6.81452H14.4746V13.354H14.6548C15.0538 13.354 15.377 13.6793 15.377 14.0808C15.377 14.4822 15.0538 14.8079 14.6548 14.8079H2.02003C1.62108 14.8079 1.29785 14.4822 1.29785 14.0808ZM13.0309 13.3537V6.81451H10.865V13.3537H13.0309ZM9.42021 6.81451V13.3537H7.25435V6.81451H9.42021ZM5.81051 6.81451H3.64464V13.3537H5.81051V6.81451Z" fill="white"/>
<path d="M1.11819 5.43518H15.5578C15.5601 5.43518 15.5628 5.43518 15.5649 5.43518C15.9642 5.43518 16.287 5.1099 16.287 4.70842C16.287 4.38927 16.0828 4.11877 15.7992 4.02078L8.63483 0.776564C8.44651 0.691503 8.23114 0.691503 8.04248 0.776564L0.822016 4.04596C0.511302 4.18682 0.340561 4.52639 0.412239 4.86119C0.483578 5.19598 0.777725 5.43518 1.11819 5.43518Z" fill="white"/>
<path d="M32.4355 31.609H17.9956C17.5967 31.609 17.2734 31.9343 17.2734 32.3361C17.2734 32.7373 17.5967 33.0625 17.9956 33.0625H32.4352C32.8341 33.0625 33.1574 32.7373 33.1574 32.3361C33.157 31.9343 32.8338 31.609 32.4355 31.609Z" fill="white"/>
<path fill-rule="evenodd" clip-rule="evenodd" d="M18.1758 30.4464C18.1758 30.0449 18.499 29.7196 18.898 29.7196V29.7193H19.0785V23.1802H18.898C18.6988 23.1802 18.5372 23.0175 18.5372 22.8171C18.5372 22.6167 18.6985 22.4541 18.898 22.4541H31.5328C31.7319 22.4541 31.8935 22.6167 31.8935 22.8171C31.8935 23.0175 31.7326 23.1802 31.5328 23.1802H31.3525V29.7196H31.5328C31.9317 29.7196 32.2549 30.0449 32.2549 30.4464C32.2549 30.8479 31.9317 31.1735 31.5328 31.1735H18.898C18.499 31.1735 18.1758 30.8479 18.1758 30.4464ZM29.9084 29.7193V23.1802H27.7425V29.7193H29.9084ZM26.2977 23.1802V29.7193H24.1318V23.1802H26.2977ZM22.6875 23.1802H20.5216V29.7193H22.6875V23.1802Z" fill="white"/>
<path d="M17.9956 21.8008H32.4352C32.4376 21.8008 32.4403 21.8008 32.4423 21.8008C32.8416 21.8008 33.1645 21.4755 33.1645 21.0741C33.1645 20.7549 32.9603 20.4844 32.6766 20.3864L25.5123 17.1422C25.3239 17.0571 25.1086 17.0571 24.9199 17.1422L17.6995 20.4116C17.3887 20.5525 17.218 20.892 17.2897 21.2268C17.361 21.5616 17.6552 21.8008 17.9956 21.8008Z" fill="white"/>
</svg>
