<svg width="31" height="30" viewBox="0 0 31 30" fill="none" xmlns="http://www.w3.org/2000/svg">
<path d="M6.87588 18.8894V29.9999H9.21963L9.21957 16.5003L6.87588 18.8894Z" fill="#4D4D4D"/>
<path d="M11.4462 29.9999H13.7899V18.0089L11.4462 15.6653V29.9999Z" fill="#4D4D4D"/>
<path d="M2.24695 29.9999H4.5907V21.2189L2.24695 23.6081V29.9999Z" fill="#4D4D4D"/>
<path d="M22.989 0V2.34375H26.0778L15.4158 13.0058L10.6868 8.2768L0 19.2812L1.68137 20.9141L10.7113 11.6158L15.4158 16.3204L27.6765 4.05966V6.97268H30.0203V0H22.989Z" fill="#4D4D4D"/>
<path d="M25.2742 9.77653V30H27.618V9.43358H25.6171L25.2742 9.77653Z" fill="#4D4D4D"/>
<path d="M16.0164 29.9999H18.3602V16.6906L16.0164 19.0343V29.9999Z" fill="#4D4D4D"/>
<path d="M20.6453 30H22.989V12.0617L20.6453 14.4054V30Z" fill="#4D4D4D"/>
</svg>
