<svg width="20" height="19" viewBox="0 0 20 19" fill="none" xmlns="http://www.w3.org/2000/svg">
<mask id="mask0" mask-type="alpha" maskUnits="userSpaceOnUse" x="0" y="0" width="19" height="18">
<path d="M0 0H18.0191V17.1245H0V0Z" fill="#A62251"/>
</mask>
<g mask="url(#mask0)">
<path fill-rule="evenodd" clip-rule="evenodd" d="M0.279815 13.8964C0.437545 13.8964 0.565489 13.7686 0.565489 13.6107V5.29035H17.4442V8.43052C17.4442 8.5884 17.5722 8.71619 17.7299 8.71619C17.8878 8.71619 18.0156 8.5884 18.0156 8.43052V2.78472C18.0156 1.82698 17.2364 1.04778 16.2788 1.04778H15.5296V0.69396C15.5296 0.311271 15.2183 0 14.8357 0H14.3049C13.9224 0 13.6111 0.311271 13.6111 0.69396V1.04778H11.7165V0.69396C11.7165 0.311271 11.4052 0 11.0225 0H10.4918C10.1093 0 9.79799 0.311271 9.79799 0.69396V1.04778H7.90317V0.69396C7.90317 0.311271 7.5919 0 7.20921 0H6.67862C6.29593 0 5.98466 0.311271 5.98466 0.69396V1.04778H4.08999V0.69396C4.08999 0.311271 3.77872 0 3.39603 0H2.86547C2.48278 0 2.17151 0.311271 2.17151 0.69396V1.04778H1.73112C0.773346 1.04778 -0.00585938 1.82698 -0.00585938 2.78472V13.6107C-0.00585938 13.7686 0.122085 13.8964 0.279815 13.8964ZM14.1825 0.69396C14.1825 0.626389 14.2375 0.571349 14.3051 0.571349H14.8358C14.9034 0.571349 14.9583 0.626389 14.9583 0.69396V2.08184C14.9583 2.14941 14.9034 2.20445 14.8358 2.20445H14.3051C14.2375 2.20445 14.1825 2.14957 14.1825 2.08184V0.69396ZM10.3693 0.69396C10.3693 0.626389 10.4242 0.571349 10.4918 0.571349H11.0225C11.0901 0.571349 11.1451 0.626389 11.1451 0.69396V2.08184C11.1451 2.14941 11.0901 2.20445 11.0225 2.20445H10.4918C10.4242 2.20445 10.3693 2.14957 10.3693 2.08184V0.69396ZM6.556 0.69396C6.556 0.626389 6.61108 0.571349 6.67862 0.571349H7.20936C7.27689 0.571349 7.33197 0.626389 7.33197 0.69396V2.08184C7.33197 2.14941 7.27689 2.20445 7.20936 2.20445H6.67862C6.61108 2.20445 6.556 2.14957 6.556 2.08184V0.69396ZM2.74286 0.69396C2.74286 0.626389 2.7979 0.571349 2.86547 0.571349H3.39618C3.46375 0.571349 3.51864 0.626389 3.51864 0.69396V2.08184C3.51864 2.14941 3.46375 2.20445 3.39618 2.20445H2.86547C2.7979 2.20445 2.74286 2.14957 2.74286 2.08184V0.69396ZM1.73112 1.61913H2.17151V2.08184C2.17151 2.46453 2.48278 2.7758 2.86547 2.7758H3.39618C3.77872 2.7758 4.08999 2.46453 4.08999 2.08184V1.61913H5.98481V2.08184C5.98481 2.46453 6.29608 2.7758 6.67862 2.7758H7.20936C7.59205 2.7758 7.90332 2.46453 7.90332 2.08184V1.61913H9.79799V2.08184C9.79799 2.46453 10.1093 2.7758 10.4919 2.7758H11.0227C11.4052 2.7758 11.7165 2.46453 11.7165 2.08184V1.61913H13.6111V2.08184C13.6111 2.46453 13.9224 2.7758 14.3051 2.7758H14.8358C15.2183 2.7758 15.5296 2.46453 15.5296 2.08184V1.61913H16.2788C16.9215 1.61913 17.4444 2.14195 17.4444 2.78472V4.719H0.565489V2.78472C0.565489 2.14195 1.08835 1.61913 1.73112 1.61913Z" fill="#A62251"/>
<path fill-rule="evenodd" clip-rule="evenodd" d="M3.22713 16.5532H0.73613C0.641324 16.5532 0.564268 16.4761 0.564268 16.3813V14.9126C0.564268 14.7547 0.436324 14.627 0.278594 14.627C0.120864 14.627 -0.00708008 14.7547 -0.00708008 14.9126V16.3813C-0.00708008 16.7911 0.326359 17.1245 0.73613 17.1245H3.22713C3.38486 17.1245 3.51281 16.9966 3.51281 16.8388C3.51281 16.681 3.38486 16.5532 3.22713 16.5532Z" fill="#A62251"/>
</g>
<path fill-rule="evenodd" clip-rule="evenodd" d="M3.21764 6.12354H2.22464C2.06691 6.12354 1.93896 6.25148 1.93896 6.40921C1.93896 6.56705 2.06691 6.69488 2.22464 6.69488H3.21764C3.37537 6.69488 3.50332 6.56705 3.50332 6.40921C3.50332 6.25148 3.37537 6.12354 3.21764 6.12354Z" fill="#A62251"/>
<path fill-rule="evenodd" clip-rule="evenodd" d="M5.27591 6.69488H6.26892C6.42665 6.69488 6.55459 6.56705 6.55459 6.40921C6.55459 6.25148 6.42665 6.12354 6.26892 6.12354H5.27591C5.11818 6.12354 4.99023 6.25148 4.99023 6.40921C4.99023 6.56705 5.11818 6.69488 5.27591 6.69488Z" fill="#A62251"/>
<path fill-rule="evenodd" clip-rule="evenodd" d="M8.32791 6.69488H9.3208C9.47849 6.69488 9.60648 6.56705 9.60648 6.40921C9.60648 6.25148 9.47849 6.12354 9.3208 6.12354H8.32791C8.17007 6.12354 8.04224 6.25148 8.04224 6.40921C8.04224 6.56705 8.17007 6.69488 8.32791 6.69488Z" fill="#A62251"/>
<path fill-rule="evenodd" clip-rule="evenodd" d="M11.3797 6.69488H12.3727C12.5304 6.69488 12.6584 6.56705 12.6584 6.40921C12.6584 6.25148 12.5304 6.12354 12.3727 6.12354H11.3797C11.2219 6.12354 11.094 6.25148 11.094 6.40921C11.094 6.56705 11.2219 6.69488 11.3797 6.69488Z" fill="#A62251"/>
<path fill-rule="evenodd" clip-rule="evenodd" d="M15.4238 6.12354H14.4309C14.2731 6.12354 14.1453 6.25148 14.1453 6.40921C14.1453 6.56705 14.2731 6.69488 14.4309 6.69488H15.4238C15.5815 6.69488 15.7095 6.56705 15.7095 6.40921C15.7095 6.25148 15.5815 6.12354 15.4238 6.12354Z" fill="#A62251"/>
<path fill-rule="evenodd" clip-rule="evenodd" d="M3.21764 7.56006H2.22464C2.06691 7.56006 1.93896 7.68785 1.93896 7.84573C1.93896 8.00358 2.06691 8.13141 2.22464 8.13141H3.21764C3.37537 8.13141 3.50332 8.00358 3.50332 7.84573C3.50332 7.68785 3.37537 7.56006 3.21764 7.56006Z" fill="#A62251"/>
<path fill-rule="evenodd" clip-rule="evenodd" d="M5.27591 8.13141H6.26892C6.42665 8.13141 6.55459 8.00358 6.55459 7.84573C6.55459 7.68785 6.42665 7.56006 6.26892 7.56006H5.27591C5.11818 7.56006 4.99023 7.68785 4.99023 7.84573C4.99023 8.00358 5.11818 8.13141 5.27591 8.13141Z" fill="#A62251"/>
<path fill-rule="evenodd" clip-rule="evenodd" d="M8.32791 8.13141H9.3208C9.47849 8.13141 9.60648 8.00358 9.60648 7.84573C9.60648 7.68785 9.47849 7.56006 9.3208 7.56006H8.32791C8.17007 7.56006 8.04224 7.68785 8.04224 7.84573C8.04224 8.00358 8.17007 8.13141 8.32791 8.13141Z" fill="#A62251"/>
<path fill-rule="evenodd" clip-rule="evenodd" d="M11.3797 8.13141H12.3727C12.5304 8.13141 12.6584 8.00358 12.6584 7.84573C12.6584 7.68785 12.5304 7.56006 12.3727 7.56006H11.3797C11.2219 7.56006 11.094 7.68785 11.094 7.84573C11.094 8.00358 11.2219 8.13141 11.3797 8.13141Z" fill="#A62251"/>
<path fill-rule="evenodd" clip-rule="evenodd" d="M15.4238 7.56006H14.4309C14.2731 7.56006 14.1453 7.68785 14.1453 7.84573C14.1453 8.00358 14.2731 8.13141 14.4309 8.13141H15.4238C15.5815 8.13141 15.7095 8.00358 15.7095 7.84573C15.7095 7.68785 15.5815 7.56006 15.4238 7.56006Z" fill="#A62251"/>
<path fill-rule="evenodd" clip-rule="evenodd" d="M18.0141 12.0118V9.73221C18.0141 9.57432 17.8862 9.44653 17.7284 9.44653C17.5706 9.44653 17.4427 9.57432 17.4427 9.73221V11.6474C16.9218 11.3773 16.3307 11.2245 15.7045 11.2245C13.6147 11.2245 11.9145 12.9248 11.9145 15.0146C11.9145 15.562 12.0313 16.0825 12.2409 16.553H4.52859C4.37086 16.553 4.24292 16.6808 4.24292 16.8386C4.24292 16.9964 4.37086 17.1243 4.52859 17.1243H12.5574C13.2384 18.1371 14.3949 18.8047 15.7045 18.8047C17.7944 18.8047 19.4946 17.1045 19.4946 15.0146C19.4946 13.7934 18.9138 12.7053 18.0141 12.0118ZM15.7045 18.2334C13.9296 18.2334 12.4858 16.7895 12.4858 15.0146C12.4858 13.2398 13.9298 11.7959 15.7045 11.7959C17.4793 11.7959 18.9233 13.2398 18.9233 15.0146C18.9233 16.7895 17.4793 18.2334 15.7045 18.2334Z" fill="#A62251"/>
<path fill-rule="evenodd" clip-rule="evenodd" d="M15.7049 12.2085C14.1577 12.2085 12.8989 13.4674 12.8989 15.0145C12.8989 16.5618 14.1577 17.8205 15.7049 17.8205C17.2522 17.8205 18.5108 16.5618 18.5108 15.0145C18.5108 13.4674 17.252 12.2085 15.7049 12.2085ZM15.9607 17.234C15.9796 17.1958 15.9906 17.1529 15.9906 17.1074V16.7594C15.9906 16.6017 15.8627 16.4737 15.7049 16.4737C15.5472 16.4737 15.4193 16.6017 15.4193 16.7594V17.1074C15.4193 17.1529 15.4301 17.1958 15.4492 17.234C14.421 17.1163 13.6031 16.2984 13.4855 15.2703C13.5236 15.2893 13.5665 15.3002 13.6121 15.3002H13.96C14.1178 15.3002 14.2456 15.1724 14.2456 15.0145C14.2456 14.8567 14.1178 14.7288 13.96 14.7288H13.6121C13.5665 14.7288 13.5236 14.7398 13.4855 14.7587C13.6031 13.7306 14.421 12.9127 15.4492 12.795C15.4301 12.8333 15.4193 12.8761 15.4193 12.9217V13.2697C15.4193 13.4275 15.5472 13.5554 15.7049 13.5554C15.8627 13.5554 15.9906 13.4275 15.9906 13.2697V12.9217C15.9906 12.8761 15.9796 12.8333 15.9607 12.795C16.9888 12.9127 17.8067 13.7306 17.9244 14.7587C17.8862 14.7398 17.8433 14.7288 17.7978 14.7288H17.4498C17.2921 14.7288 17.1641 14.8567 17.1641 15.0145C17.1641 15.1724 17.2921 15.3002 17.4498 15.3002H17.7978C17.8433 15.3002 17.8862 15.2893 17.9244 15.2703C17.8066 16.2984 16.9888 17.1163 15.9607 17.234Z" fill="#A62251"/>
<path fill-rule="evenodd" clip-rule="evenodd" d="M16.3348 14.729H15.9908V14.4361C15.9908 14.2783 15.8628 14.1504 15.7051 14.1504C15.5473 14.1504 15.4194 14.2783 15.4194 14.4361V15.0147C15.4194 15.1726 15.5473 15.3004 15.7051 15.3004H16.3348C16.4925 15.3004 16.6204 15.1726 16.6204 15.0147C16.6204 14.8568 16.4925 14.729 16.3348 14.729Z" fill="#A62251"/>
</svg>
