<svg width="43" height="49" viewBox="0 0 43 49" fill="none" xmlns="http://www.w3.org/2000/svg">
<path d="M18.5117 24.8361C25.354 24.8357 27.8159 17.9272 28.4604 12.2523C29.2543 5.2615 25.9759 0 18.5117 0C11.0484 0 7.76843 5.2611 8.56297 12.2523C9.20808 17.9272 11.6693 24.8366 18.5117 24.8361Z" fill="#9B9B9B"/>
<path d="M33.4731 27.7118C33.6933 27.7118 33.912 27.7185 34.1293 27.7306C33.8036 27.2623 33.4267 26.8491 32.9857 26.517C31.6709 25.5275 29.9682 25.2028 28.4629 24.6063C27.7301 24.3161 27.0739 24.0278 26.458 23.6995C24.379 25.9986 21.668 27.2012 18.5109 27.2016C15.3549 27.2016 12.6441 25.9989 10.5654 23.6995C9.94943 24.0279 9.29312 24.3161 8.56052 24.6063C7.05521 25.2029 5.35251 25.5275 4.03768 26.517C1.76388 28.2284 1.17625 32.0783 0.71455 34.7045C0.333518 36.8723 0.0775382 39.0846 0.00282453 41.2866C-0.0550567 42.9922 0.780053 43.2314 2.19509 43.7463C3.96686 44.3906 5.79627 44.869 7.63799 45.2612C11.1948 46.0186 14.8611 46.6006 18.5116 46.6266C20.2804 46.6139 22.0528 46.47 23.8147 46.2397C22.5101 44.3336 21.745 42.0246 21.745 39.5386C21.7451 33.0172 27.0062 27.7118 33.4731 27.7118Z" fill="#9B9B9B"/>
<path fill-rule="evenodd" clip-rule="evenodd" d="M24.0906 39.5386C24.0906 34.3134 28.2914 30.0772 33.4731 30.0772C38.6548 30.0772 42.8557 34.3133 42.8558 39.5386C42.8558 44.7638 38.6549 49 33.4731 49C28.2914 49 24.0906 44.7638 24.0906 39.5386ZM35.0829 41.1618H37.578C38.4672 41.1618 39.1878 40.4352 39.1879 39.5384C39.1879 38.6419 38.4671 37.915 37.578 37.915H35.0829V35.3991C35.0829 34.5025 34.3623 33.7757 33.4732 33.7757C32.5841 33.7757 31.8633 34.5025 31.8633 35.3991V37.915H29.3683C28.4791 37.915 27.7584 38.6419 27.7584 39.5384C27.7584 40.4351 28.4792 41.1618 29.3683 41.1618H31.8633V43.6778C31.8633 44.5744 32.5841 45.3012 33.4732 45.3012C34.3622 45.3012 35.0829 44.5744 35.0829 43.6778V41.1618Z" fill="#9B9B9B"/>
</svg>
