<svg width="41" height="50" viewBox="0 0 41 50" fill="none" xmlns="http://www.w3.org/2000/svg">
<path d="M40.7407 3.71991C40.7407 1.66551 39.0752 0 37.0208 0H3.71991C1.66551 0 0 1.66551 0 3.71991V46.2801C0 48.3345 1.66551 50 3.71991 50H37.0208C39.0752 50 40.7407 48.3345 40.7407 46.2801V3.71991ZM20.4475 5.30532C27.7016 5.30532 33.6035 11.2069 33.6035 18.4611C33.6035 25.7153 27.7016 31.6171 20.4475 31.6171C13.1933 31.6171 7.29167 25.7153 7.29167 18.4611C7.29167 11.2069 13.1933 5.30532 20.4475 5.30532ZM10.0178 40.7407H9.02778V43.75H6.94444V35.8796H10.0634C11.8275 35.8796 13.216 36.4382 13.216 38.2817C13.216 40.1481 11.7023 40.7407 10.0178 40.7407ZM19.1676 43.75L18.5417 42.3611H15.4234L14.8315 43.75H12.7146L16.0947 35.8796H17.9838L21.3296 43.75H19.1676ZM25.4002 38.9252C26.4928 39.278 27.9037 39.7447 27.9037 41.3493C27.9037 43.2044 26.413 44.0352 24.8197 44.0352C23.6704 44.0352 22.5095 43.6141 21.8039 42.8743L23.0787 41.5771C23.4655 42.0664 24.1826 42.4308 24.8197 42.4308C25.4116 42.4308 25.935 42.2032 25.935 41.5544C25.935 40.94 25.3204 40.7465 24.2618 40.4051C23.2375 40.075 22.2021 39.5514 22.2021 38.0949C22.2021 36.3081 23.8181 35.5683 25.3204 35.5683C26.231 35.5683 27.2551 35.91 27.9606 36.5583L26.7204 37.8671C26.3903 37.4461 25.787 37.1729 25.2863 37.1729C24.7856 37.1729 24.1597 37.3435 24.1597 37.9808C24.1595 38.5155 24.6377 38.6863 25.4002 38.9252ZM32.1257 38.9252C33.2183 39.278 34.6292 39.7447 34.6292 41.3493C34.6292 43.2044 33.1384 44.0352 31.5451 44.0352C30.3958 44.0352 29.2349 43.6141 28.5294 42.8743L29.8042 41.5771C30.191 42.0664 30.9081 42.4308 31.5451 42.4308C32.137 42.4308 32.6604 42.2032 32.6604 41.5544C32.6604 40.94 32.0458 40.7465 30.9873 40.4051C29.963 40.075 28.9275 39.5514 28.9275 38.0949C28.9275 36.3081 30.5435 35.5683 32.0458 35.5683C32.9565 35.5683 33.9806 35.91 34.6861 36.5583L33.4458 37.8671C33.1157 37.4461 32.5125 37.1729 32.0118 37.1729C31.5111 37.1729 30.8852 37.3435 30.8852 37.9808C30.8852 38.5155 31.3632 38.6863 32.1257 38.9252Z" fill="#9B9B9B"/>
</svg>
