<svg width="15" height="15" viewBox="0 0 15 15" fill="none" xmlns="http://www.w3.org/2000/svg">
<path d="M11.4038 9.9228C10.9138 9.43899 10.302 9.43899 9.81505 9.9228C9.44361 10.2911 9.07217 10.6594 8.70697 11.034C8.60709 11.137 8.52281 11.1589 8.40108 11.0902C8.16073 10.9591 7.90478 10.853 7.6738 10.7094C6.59693 10.0321 5.69486 9.16119 4.89579 8.18109C4.49938 7.69415 4.14667 7.17289 3.90008 6.58607C3.85014 6.46746 3.8595 6.38943 3.95627 6.29267C4.32771 5.93371 4.68978 5.56539 5.05498 5.19707C5.56376 4.68517 5.56376 4.08587 5.05186 3.57084C4.76158 3.27743 4.47129 2.99027 4.181 2.69686C3.88135 2.39721 3.58482 2.09444 3.28205 1.79791C2.792 1.32034 2.18021 1.32034 1.69328 1.80103C1.31872 2.16935 0.959763 2.54704 0.578957 2.90911C0.226244 3.2431 0.0483268 3.652 0.0108705 4.12957C-0.0484353 4.90678 0.141967 5.6403 0.410404 6.35509C0.959763 7.83462 1.79629 9.14871 2.81073 10.3536C4.181 11.9829 5.81659 13.272 7.72999 14.2022C8.59148 14.6204 9.48419 14.9419 10.4549 14.995C11.1229 15.0325 11.7035 14.8639 12.1686 14.3426C12.4869 13.9868 12.8459 13.6622 13.183 13.322C13.6824 12.8163 13.6855 12.2045 13.1892 11.7051C12.5962 11.1089 12 10.5159 11.4038 9.9228Z" fill="#AE335F"/>
<path d="M10.8076 7.43509L11.9594 7.23844C11.7784 6.1803 11.279 5.22205 10.5205 4.46044C9.71827 3.65825 8.70383 3.15259 7.58639 2.99652L7.42408 4.15454C8.28869 4.27628 9.07527 4.66645 9.69642 5.2876C10.2832 5.87441 10.6672 6.61729 10.8076 7.43509Z" fill="#AE335F"/>
<path d="M12.6086 2.42842C11.2789 1.09872 9.59652 0.259073 7.73931 0L7.577 1.15802C9.18138 1.38276 10.6359 2.11004 11.7846 3.25558C12.8739 4.34493 13.5887 5.72145 13.8478 7.2353L14.9996 7.03866C14.6968 5.28446 13.8697 3.69256 12.6086 2.42842Z" fill="#AE335F"/>
</svg>
