<svg width="33" height="60" viewBox="0 0 33 60" fill="none" xmlns="http://www.w3.org/2000/svg">
<path d="M28.4664 0H4.87254C2.48269 0 0.544922 1.93777 0.544922 4.32762V55.6724C0.544922 58.0629 2.48205 60 4.87254 60H28.4664C30.8576 60 32.7953 58.0629 32.7953 55.6724V4.32762C32.7947 1.93777 30.8576 0 28.4664 0ZM13.7744 2.55858H19.5646C19.7726 2.55858 19.9419 2.72795 19.9419 2.9366C19.9419 3.14461 19.7726 3.31398 19.5646 3.31398H13.7744C13.5658 3.31398 13.397 3.14461 13.397 2.9366C13.397 2.72795 13.5664 2.55858 13.7744 2.55858ZM8.00298 1.65055C8.33657 1.65055 8.60704 1.92103 8.60704 2.25461C8.60704 2.5882 8.33721 2.85868 8.00298 2.85868C7.66875 2.85868 7.39892 2.5882 7.39892 2.25461C7.39892 1.92103 7.66939 1.65055 8.00298 1.65055ZM5.26602 1.28863C5.79989 1.28863 6.23201 1.72139 6.23201 2.25461C6.23201 2.78784 5.79989 3.2206 5.26602 3.2206C4.73215 3.2206 4.30003 2.78784 4.30003 2.25461C4.30003 1.72139 4.73215 1.28863 5.26602 1.28863ZM18.1806 57.8034H15.1597C14.2014 57.8034 13.4254 57.0273 13.4254 56.0704C13.4254 55.1128 14.2014 54.3367 15.1597 54.3367H18.1806C19.1389 54.3367 19.9149 55.1128 19.9149 56.0704C19.9149 57.0273 19.1389 57.8034 18.1806 57.8034ZM30.9619 52.967H2.37772V7.03238H30.9619V52.967Z" fill="#AB2656"/>
</svg>
