<svg width="125" height="11" viewBox="0 0 125 11" fill="none" xmlns="http://www.w3.org/2000/svg">
<path d="M1.254 10V6.29H3.844C5.692 6.29 6.77 5.002 6.77 3.476C6.77 1.95 5.72 0.661999 3.844 0.661999H0.092V10H1.254ZM3.704 5.254H1.254V1.698H3.704C4.81 1.698 5.566 2.426 5.566 3.476C5.566 4.526 4.81 5.254 3.704 5.254ZM11.1411 10.168C12.2471 10.168 13.1571 9.804 13.8291 9.132L13.3251 8.446C12.7931 8.992 12.0091 9.3 11.2391 9.3C9.78306 9.3 8.88706 8.236 8.80306 6.962H14.2771V6.696C14.2771 4.666 13.0731 3.07 11.0291 3.07C9.09706 3.07 7.69706 4.652 7.69706 6.612C7.69706 8.726 9.13906 10.168 11.1411 10.168ZM13.2411 6.192H8.80306C8.85906 5.156 9.57306 3.938 11.0151 3.938C12.5551 3.938 13.2271 5.184 13.2411 6.192ZM17.0277 10V5.212C17.3357 4.666 18.2177 4.134 18.8617 4.134C19.0297 4.134 19.1557 4.148 19.2817 4.176V3.098C18.3577 3.098 17.5737 3.616 17.0277 4.33V3.238H15.9777V10H17.0277ZM22.7408 10.168C24.4908 10.168 25.4008 9.258 25.4008 8.124C25.4008 5.492 21.2148 6.472 21.2148 4.988C21.2148 4.386 21.7888 3.924 22.7128 3.924C23.5808 3.924 24.3228 4.288 24.7288 4.778L25.2188 4.05C24.6728 3.504 23.8608 3.07 22.7128 3.07C21.1028 3.07 20.1928 3.966 20.1928 5.016C20.1928 7.522 24.3788 6.514 24.3788 8.152C24.3788 8.824 23.8188 9.314 22.7828 9.314C21.8588 9.314 21.0048 8.866 20.5568 8.348L20.0108 9.104C20.6968 9.832 21.6348 10.168 22.7408 10.168ZM30.0606 10.168C32.1186 10.168 33.4066 8.572 33.4066 6.612C33.4066 4.652 32.1186 3.07 30.0606 3.07C28.0026 3.07 26.7146 4.652 26.7146 6.612C26.7146 8.572 28.0026 10.168 30.0606 10.168ZM30.0606 9.23C28.6186 9.23 27.8066 7.998 27.8066 6.612C27.8066 5.24 28.6186 4.008 30.0606 4.008C31.5026 4.008 32.3006 5.24 32.3006 6.612C32.3006 7.998 31.5026 9.23 30.0606 9.23ZM40.7324 10V5.254C40.7324 3.784 39.9904 3.07 38.5764 3.07C37.5684 3.07 36.6444 3.658 36.1684 4.218V3.238H35.1184V10H36.1684V5.058C36.5604 4.512 37.3444 4.008 38.1704 4.008C39.0804 4.008 39.6824 4.386 39.6824 5.576V10H40.7324ZM48.1073 10V5.352C48.1073 3.714 46.9173 3.07 45.4893 3.07C44.3833 3.07 43.5153 3.434 42.7873 4.19L43.2773 4.918C43.8793 4.274 44.5373 3.98 45.3493 3.98C46.3293 3.98 47.0573 4.498 47.0573 5.408V6.626C46.5113 5.996 45.7413 5.702 44.8173 5.702C43.6693 5.702 42.4513 6.416 42.4513 7.928C42.4513 9.398 43.6693 10.168 44.8173 10.168C45.7273 10.168 46.4973 9.846 47.0573 9.23V10H48.1073ZM45.1953 9.412C44.2153 9.412 43.5293 8.796 43.5293 7.942C43.5293 7.074 44.2153 6.458 45.1953 6.458C45.9373 6.458 46.6513 6.738 47.0573 7.298V8.572C46.6513 9.132 45.9373 9.412 45.1953 9.412ZM51.2621 10V0.661999H50.2121V10H51.2621ZM58.17 10V0.661999H57.008V10H58.17ZM65.9296 10V5.254C65.9296 3.784 65.1876 3.07 63.7736 3.07C62.7656 3.07 61.8416 3.658 61.3656 4.218V3.238H60.3156V10H61.3656V5.058C61.7576 4.512 62.5416 4.008 63.3676 4.008C64.2776 4.008 64.8796 4.386 64.8796 5.576V10H65.9296ZM69.3706 10V4.162H70.7426V3.238H69.3706V2.72C69.3706 1.866 69.7486 1.39 70.4346 1.39C70.7846 1.39 71.0506 1.53 71.2746 1.726L71.7086 1.04C71.2886 0.647999 70.8126 0.521999 70.2806 0.521999C69.0766 0.521999 68.3206 1.334 68.3206 2.72V3.238H67.2006V4.162H68.3206V10H69.3706ZM74.9454 10.168C77.0034 10.168 78.2914 8.572 78.2914 6.612C78.2914 4.652 77.0034 3.07 74.9454 3.07C72.8874 3.07 71.5994 4.652 71.5994 6.612C71.5994 8.572 72.8874 10.168 74.9454 10.168ZM74.9454 9.23C73.5034 9.23 72.6914 7.998 72.6914 6.612C72.6914 5.24 73.5034 4.008 74.9454 4.008C76.3874 4.008 77.1854 5.24 77.1854 6.612C77.1854 7.998 76.3874 9.23 74.9454 9.23ZM81.0531 10V5.212C81.3611 4.666 82.2431 4.134 82.8871 4.134C83.0551 4.134 83.1811 4.148 83.3071 4.176V3.098C82.3831 3.098 81.5991 3.616 81.0531 4.33V3.238H80.0031V10H81.0531ZM93.8362 10V5.114C93.8362 3.756 93.1782 3.07 91.9462 3.07C90.9662 3.07 90.0562 3.714 89.6782 4.33C89.4822 3.63 88.8942 3.07 87.8582 3.07C86.8642 3.07 85.9542 3.784 85.6742 4.218V3.238H84.6242V10H85.6742V5.058C86.0382 4.512 86.7662 4.008 87.4522 4.008C88.3342 4.008 88.6982 4.554 88.6982 5.408V10H89.7482V5.044C90.0982 4.512 90.8402 4.008 91.5402 4.008C92.4082 4.008 92.7862 4.554 92.7862 5.408V10H93.8362ZM101.209 10V5.352C101.209 3.714 100.019 3.07 98.5909 3.07C97.4849 3.07 96.6169 3.434 95.8889 4.19L96.3789 4.918C96.9809 4.274 97.6389 3.98 98.4509 3.98C99.4309 3.98 100.159 4.498 100.159 5.408V6.626C99.6129 5.996 98.8429 5.702 97.9189 5.702C96.7709 5.702 95.5529 6.416 95.5529 7.928C95.5529 9.398 96.7709 10.168 97.9189 10.168C98.8289 10.168 99.5989 9.846 100.159 9.23V10H101.209ZM98.2969 9.412C97.3169 9.412 96.6309 8.796 96.6309 7.942C96.6309 7.074 97.3169 6.458 98.2969 6.458C99.0389 6.458 99.7529 6.738 100.159 7.298V8.572C99.7529 9.132 99.0389 9.412 98.2969 9.412ZM105.022 10.168C105.638 10.168 106.016 9.986 106.282 9.734L105.974 8.95C105.834 9.104 105.554 9.23 105.26 9.23C104.798 9.23 104.574 8.866 104.574 8.362V4.162H105.946V3.238H104.574V1.39H103.524V3.238H102.404V4.162H103.524V8.586C103.524 9.594 104.028 10.168 105.022 10.168ZM107.947 2.272C108.339 2.272 108.661 1.964 108.661 1.572C108.661 1.18 108.339 0.857999 107.947 0.857999C107.569 0.857999 107.247 1.18 107.247 1.572C107.247 1.964 107.569 2.272 107.947 2.272ZM108.479 10V3.238H107.429V10H108.479ZM113.527 10.168C115.585 10.168 116.873 8.572 116.873 6.612C116.873 4.652 115.585 3.07 113.527 3.07C111.469 3.07 110.181 4.652 110.181 6.612C110.181 8.572 111.469 10.168 113.527 10.168ZM113.527 9.23C112.085 9.23 111.273 7.998 111.273 6.612C111.273 5.24 112.085 4.008 113.527 4.008C114.969 4.008 115.767 5.24 115.767 6.612C115.767 7.998 114.969 9.23 113.527 9.23ZM124.199 10V5.254C124.199 3.784 123.457 3.07 122.043 3.07C121.035 3.07 120.111 3.658 119.635 4.218V3.238H118.585V10H119.635V5.058C120.027 4.512 120.811 4.008 121.637 4.008C122.547 4.008 123.149 4.386 123.149 5.576V10H124.199Z" fill="#4D4D4D"/>
</svg>
