<svg width="22" height="18" viewBox="0 0 22 18" fill="none" xmlns="http://www.w3.org/2000/svg">
<path d="M19.5572 1.6875H16.7498V0.5625C16.7498 0.251438 16.4602 0 16.102 0C15.7438 0 15.4542 0.251438 15.4542 0.5625V1.6875H11.5675V0.5625C11.5675 0.251438 11.2773 0 10.9198 0C10.5622 0 10.272 0.251438 10.272 0.5625V1.6875H6.3853V0.5625C6.3853 0.251438 6.0951 0 5.73752 0C5.37995 0 5.08975 0.251438 5.08975 0.5625V1.6875H2.28292C1.32875 1.6875 0.555298 2.35856 0.555298 3.18712V16.4998C0.555298 17.3284 1.32875 18 2.28292 18H19.5572C20.5114 18 21.2842 17.3284 21.2842 16.4998V3.18712C21.2842 2.35856 20.5114 1.6875 19.5572 1.6875ZM19.9886 16.4998C19.9886 16.7068 19.795 16.875 19.5572 16.875H2.28292C2.04454 16.875 1.85085 16.7068 1.85085 16.4998V3.18712C1.85085 2.98069 2.04454 2.8125 2.28292 2.8125H5.08975V3.9375C5.08975 4.24856 5.37995 4.5 5.73752 4.5C6.0951 4.5 6.3853 4.24856 6.3853 3.9375V2.8125H10.272V3.9375C10.272 4.24856 10.5622 4.5 10.9198 4.5C11.2773 4.5 11.5675 4.24856 11.5675 3.9375V2.8125H15.4542V3.9375C15.4542 4.24856 15.7438 4.5 16.102 4.5C16.4602 4.5 16.7498 4.24856 16.7498 3.9375V2.8125H19.5572C19.795 2.8125 19.9886 2.98069 19.9886 3.18712V16.4998Z" fill="#C4C4D0"/>
<path d="M7.68071 6.75H5.0896V8.4375H7.68071V6.75Z" fill="#C4C4D0"/>
<path d="M7.68071 9.5625H5.0896V11.25H7.68071V9.5625Z" fill="#C4C4D0"/>
<path d="M7.68071 12.375H5.0896V14.0625H7.68071V12.375Z" fill="#C4C4D0"/>
<path d="M12.2153 12.375H9.62415V14.0625H12.2153V12.375Z" fill="#C4C4D0"/>
<path d="M12.2153 9.5625H9.62415V11.25H12.2153V9.5625Z" fill="#C4C4D0"/>
<path d="M12.2153 6.75H9.62415V8.4375H12.2153V6.75Z" fill="#C4C4D0"/>
<path d="M16.7497 12.375H14.1586V14.0625H16.7497V12.375Z" fill="#C4C4D0"/>
<path d="M16.7497 9.5625H14.1586V11.25H16.7497V9.5625Z" fill="#C4C4D0"/>
<path d="M16.7497 6.75H14.1586V8.4375H16.7497V6.75Z" fill="#C4C4D0"/>
</svg>
