<svg width="42" height="42" viewBox="0 0 42 42" fill="none" xmlns="http://www.w3.org/2000/svg">
<path fill-rule="evenodd" clip-rule="evenodd" d="M20.9592 0C9.4902 0 0.158203 9.332 0.158203 20.801C0.158203 32.27 9.4902 41.602 20.9592 41.602C32.4282 41.602 41.7602 32.27 41.7602 20.801C41.7602 9.332 32.4282 0 20.9592 0ZM20.9592 40C10.3732 40 1.7602 31.387 1.7602 20.801C1.7602 10.215 10.3732 1.602 20.9592 1.602C31.5452 1.602 40.1582 10.215 40.1582 20.801C40.1582 31.387 31.5452 40 20.9592 40Z" fill="#27ED3A"/>
<path fill-rule="evenodd" clip-rule="evenodd" d="M30.7602 12.27L18.4632 26.102L11.0562 20.176C10.7132 19.898 10.2092 19.957 9.93123 20.301C9.65823 20.645 9.71323 21.148 10.0562 21.426L18.0562 27.824C18.2052 27.941 18.3812 28 18.5562 28C18.7792 28 18.9982 27.91 19.1582 27.73L31.9552 13.332C32.2522 13 32.2202 12.496 31.8882 12.203C31.5602 11.906 31.0532 11.938 30.7602 12.27Z" fill="#27ED3A"/>
</svg>
