<svg width="81" height="81" viewBox="0 0 81 81" fill="none" xmlns="http://www.w3.org/2000/svg">
<g clip-path="url(#clip0)">
<path d="M50.5367 22.4288C50.7575 22.1156 50.9329 21.7729 51.0568 21.4103C51.6125 21.5039 52.1425 21.7155 52.6092 22.0313C53.5485 22.6661 54.65 23.0181 55.7831 23.0471C56.1411 23.0458 56.4977 23.0128 56.8497 22.9495C58.3322 22.6964 59.6539 21.8645 60.5227 20.6371C60.9881 19.9034 61.7408 19.3998 62.5958 19.2489C63.4514 19.0986 64.3308 19.3141 65.0183 19.8448C66.2556 20.701 67.7816 21.0306 69.2615 20.761L68.7915 18.1019C67.9365 18.2528 67.0572 18.0366 66.3696 17.5066C63.7909 15.742 60.2748 16.3623 58.4548 18.9021C57.9894 19.6358 57.2366 20.1394 56.381 20.2904C55.9914 20.3688 55.5887 20.3589 55.2024 20.262C56.0013 20.0511 56.7403 19.6589 57.3625 19.1157C58.5201 18.1553 59.2485 16.7736 59.3876 15.2759C59.4238 14.4078 59.8239 13.5957 60.4904 13.038C61.1529 12.4738 62.0243 12.2206 62.8852 12.3413C64.3862 12.4777 65.8779 11.9978 67.0176 11.013L65.278 8.9458C64.605 9.48962 63.7421 9.74011 62.8825 9.64124C59.7672 9.40327 57.0316 11.6979 56.7251 14.8079C56.6895 15.6748 56.29 16.4869 55.6256 17.0452C54.9605 17.6029 54.0917 17.856 53.2314 17.7413C52.389 17.676 51.5419 17.7888 50.7463 18.0735C50.3745 17.4288 49.832 16.8989 49.1788 16.5422L55.2149 4.48443C55.4245 4.06453 55.4015 3.56619 55.1536 3.16738C54.9058 2.76924 54.4687 2.52797 54 2.53061C53.0488 2.53918 52.1359 2.15883 51.4727 1.47789C49.0891 -0.717851 45.4207 -0.717851 43.0378 1.47789C42.3681 2.1529 41.4564 2.53193 40.5059 2.53193C39.5547 2.53193 38.6437 2.1529 37.9739 1.47789C35.5884 -0.716533 31.9193 -0.716533 29.5337 1.47789C28.868 2.15949 27.9524 2.53984 26.9998 2.53061C26.5318 2.53061 26.0968 2.77253 25.8509 3.17068C25.6043 3.56817 25.5819 4.06585 25.7916 4.48443L31.8205 16.5422C30.7987 17.0874 30.0624 18.0478 29.802 19.1763C29.5417 20.3049 29.7823 21.4907 30.4625 22.4288C18.0844 25.7537 9.47212 36.9638 9.44971 49.781V74.0811C9.45366 77.8075 12.4734 80.8266 16.1998 80.8312H64.8001C68.5258 80.8266 71.5456 77.8075 71.5502 74.0811V49.781C71.5271 36.9638 62.9149 25.7537 50.5367 22.4288ZM31.2199 3.58531C31.8903 2.9103 32.802 2.53061 33.7538 2.53061C34.705 2.53061 35.6174 2.9103 36.2877 3.58531C38.672 5.77907 42.3404 5.77907 44.7253 3.58531C45.3944 2.9103 46.3047 2.53061 47.2553 2.53061C48.2051 2.53061 49.1161 2.9103 49.7852 3.58531C50.4299 4.15418 51.1721 4.60309 51.9763 4.90961L46.4155 16.0307H34.5838L29.0249 4.91093C29.8297 4.60375 30.5733 4.15484 31.2199 3.58531ZM33.7499 21.4308C33.0037 21.4308 32.3999 20.8263 32.3999 20.0807C32.3999 19.3352 33.0037 18.7307 33.7499 18.7307H47.25C47.9955 18.7307 48.6 19.3352 48.6 20.0807C48.6 20.8263 47.9955 21.4308 47.25 21.4308H33.7499ZM68.8501 74.0811C68.8501 76.3178 67.0367 78.1312 64.8001 78.1312H16.1998C13.9625 78.1312 12.1497 76.3178 12.1497 74.0811V49.781C12.1649 35.621 23.64 24.1466 37.7999 24.1308H43.2C57.3592 24.1466 68.8343 35.621 68.8501 49.781V74.0811Z" fill="#C6C6C6"/>
<path d="M31.4448 59.6259L47.6456 43.4258L49.5546 45.3348L33.3545 61.5355L31.4448 59.6259Z" fill="#C6C6C6"/>
<path d="M45.9001 53.831C43.6629 53.831 41.8501 55.6444 41.8501 57.881C41.8501 60.1176 43.6629 61.9311 45.9001 61.9311C48.1367 61.9311 49.9502 60.1176 49.9502 57.881C49.9502 55.6444 48.1367 53.831 45.9001 53.831ZM45.9001 59.231C45.1539 59.231 44.5501 58.6266 44.5501 57.881C44.5501 57.1355 45.1539 56.531 45.9001 56.531C46.6457 56.531 47.2501 57.1355 47.2501 57.881C47.2501 58.6266 46.6457 59.231 45.9001 59.231Z" fill="#C6C6C6"/>
<path d="M35.0998 51.131C37.3364 51.131 39.1499 49.3176 39.1499 47.081C39.1499 44.8443 37.3364 43.0309 35.0998 43.0309C32.8626 43.0309 31.0498 44.8443 31.0498 47.081C31.0498 49.3176 32.8626 51.131 35.0998 51.131ZM35.0998 45.7309C35.8454 45.7309 36.4498 46.3354 36.4498 47.081C36.4498 47.8265 35.8454 48.431 35.0998 48.431C34.3536 48.431 33.7498 47.8265 33.7498 47.081C33.7498 46.3354 34.3536 45.7309 35.0998 45.7309Z" fill="#C6C6C6"/>
<path d="M40.5002 33.5808C30.0614 33.5808 21.6001 42.0428 21.6001 52.481C21.6001 62.9192 30.0614 71.3811 40.5002 71.3811C50.9384 71.3811 59.4004 62.9192 59.4004 52.481C59.3892 42.0474 50.9338 33.592 40.5002 33.5808ZM40.5002 68.6811C31.5531 68.6811 24.3001 61.4281 24.3001 52.481C24.3001 43.5339 31.5531 36.2809 40.5002 36.2809C49.4467 36.2809 56.7004 43.5339 56.7004 52.481C56.6905 61.4241 49.4427 68.6712 40.5002 68.6811Z" fill="#C6C6C6"/>
</g>
<defs>
<clipPath id="clip0">
<rect width="81" height="81" fill="white"/>
</clipPath>
</defs>
</svg>
