<svg width="18" height="18" viewBox="0 0 18 18" fill="none" xmlns="http://www.w3.org/2000/svg">
<path d="M9 0C4.02918 0 0 4.02918 0 9C0 13.9708 4.02918 18 9 18C13.9708 18 18 13.9708 18 9C18 4.02918 13.9708 0 9 0ZM12.5961 5.86912C12.5961 5.86912 8.62594 12.7839 8.55732 12.8481C8.33062 13.0607 7.97459 13.0489 7.7625 12.8222L5.19076 10.4501C4.97815 10.2234 4.98994 9.86741 5.21665 9.65476C5.44335 9.44271 5.79938 9.45394 6.01144 9.68065L8.02406 11.5369L11.6212 5.30606C11.7765 5.03718 12.1207 4.94494 12.3896 5.10018C12.6591 5.256 12.7513 5.60027 12.5961 5.86912Z" fill="#DADADA"/>
</svg>
