<?xml version="1.0" encoding="UTF-8"?>
<svg width="47px" height="50px" viewBox="0 0 47 50" version="1.1" xmlns="http://www.w3.org/2000/svg" xmlns:xlink="http://www.w3.org/1999/xlink">
    <!-- Generator: Sketch 56.3 (81716) - https://sketch.com -->
    <title>Group Copy 2</title>
    <desc>Created with Sketch.</desc>
    <g id="Page-1" stroke="none" stroke-width="1" fill="none" fill-rule="evenodd">
        <g id="Group-Copy-2" fill="#FFFFFF">
            <path d="M28.6760407,0 C28.9589869,0 29.2183816,0.145904399 29.3598547,0.39052814 L46.7272377,30.3946599 C46.7932967,30.5122697 46.8309627,30.648696 46.8309627,30.7851224 C46.8309627,31.2179201 46.477362,31.5707413 46.0435057,31.5707413 L31.7081934,31.5707413 C31.4252472,31.5754434 31.1659345,31.4249107 31.0244614,31.1802788 L18.3773073,9.32401321 C18.3065707,9.20641985 18.2075231,9.10761844 18.0896015,9.03704601 C17.7123673,8.82065124 17.2314079,8.94768162 17.0145208,9.32401321 L7.1778317,26.3207186 C7.11181365,26.4383284 7.07408202,26.5747465 7.07408202,26.7111729 C7.07408202,27.1439706 7.42775658,27.4968 7.86158009,27.4968 C7.86158009,27.4968 21.8865625,27.5140656 22.1942911,27.5164946 C22.1992968,27.5165356 22.2043846,27.5169295 22.2094724,27.5176845 L22.9403894,27.518144 C23.2230074,27.5182507 23.4790376,27.6698665 23.6205107,27.9148514 L25.010049,30.3985414 C25.2271003,30.7741755 25.0985107,31.2569155 24.7237383,31.4734416 C24.6056526,31.5416917 24.4686108,31.5772733 24.3337846,31.5789474 L12.9194324,31.5754434 L0.788236593,31.5754434 C0.651490198,31.5754434 0.514735597,31.5378102 0.396846812,31.4719481 C0.0196043426,31.2555533 -0.112431753,30.77571 0.10448,30.399362 L17.0145208,1.17609777 C17.0852574,1.05850441 17.1842229,0.959703005 17.3021445,0.889130574 C17.6793788,0.672735805 18.1603381,0.799766181 18.3773073,1.17609777 L33.3916741,27.1110396 C33.5283877,27.3509612 33.7877824,27.5015021 34.0706465,27.5015021 L38.9748561,27.5015021 C39.1116517,27.5015021 39.2483653,27.468571 39.3662869,27.3980068 C39.7435212,27.181612 39.8755573,26.7017687 39.6585881,26.3254207 L25.2148732,1.17609777 C25.1488141,1.05850441 25.1111481,0.922119082 25.1111481,0.785651695 C25.1111481,0.352862157 25.4647488,8.20609667e-05 25.8986052,0 L28.6760407,0 Z" id="logo"></path>
            <g id="Group-2" transform="translate(3.684211, 35.789474)">
                <polygon id="Path" points="35.4947368 2.21052632 35.4947368 7.89473684 37.3578947 7.89473684 37.3578947 2.21052632 39.1578947 2.21052632 39.1578947 0.526315789 33.6842105 0.526315789 33.6842105 2.21052632"></polygon>
                <path d="M27.1087719,7.89473684 L26.677193,6.96842105 L23.7719298,6.96842105 L23.3403509,7.89473684 L21.4982456,7.89473684 L21.4982456,7.62105263 L24.8140351,0.431578947 L25.6245614,0.431578947 L28.9508772,7.62105263 L28.9508772,7.89473684 L27.1087719,7.89473684 Z M26.0666667,5.35789474 L25.2140351,3.42105263 L24.3824561,5.35789474 L26.0666667,5.35789474 Z" id="Combined-Shape"></path>
                <polygon id="Path" points="14.0912281 0.526315789 12.1964912 0.526315789 12.1964912 7.89473684 16.7649123 7.89473684 16.7649123 6.2 14.0912281 6.2"></polygon>
                <path d="M5.62105263,7.89473684 L5.18947368,6.96842105 L2.28421053,6.96842105 L1.85263158,7.89473684 L0.0105263158,7.89473684 L0.0105263158,7.62105263 L3.32631579,0.431578947 L4.13684211,0.431578947 L7.46315789,7.62105263 L7.46315789,7.89473684 L5.62105263,7.89473684 Z M4.57894737,5.35789474 L3.72631579,3.42105263 L2.89473684,5.35789474 L4.57894737,5.35789474 Z" id="Combined-Shape"></path>
            </g>
            <path d="M33.3799342,48.073088 C33.3799342,48.2170032 33.3596322,48.3465249 33.3190275,48.4616571 C33.2784229,48.5767892 33.2236846,48.6734166 33.1548109,48.7515419 C33.0818253,48.8327512 33.0016452,48.8936573 32.9142681,48.9342619 C32.826891,48.9748666 32.7307777,48.9951686 32.6259252,48.9951686 C32.5282684,48.9951686 32.4429486,48.9836041 32.369963,48.9604749 C32.2969774,48.9373457 32.2250209,48.9062502 32.1540913,48.8671875 L32.135588,48.9473684 L31.8642064,48.9473684 L31.8642064,46.5481086 L32.1540913,46.5481086 L32.1540913,47.4054276 C32.2353006,47.3386099 32.3216484,47.2838715 32.4131373,47.2412109 C32.5046263,47.1985504 32.6074213,47.1772204 32.7215255,47.1772204 C32.9250627,47.1772204 33.0856799,47.2553446 33.203382,47.4115954 C33.3210841,47.5678462 33.3799342,47.7883415 33.3799342,48.073088 Z M33.0807977,48.0807977 C33.0807977,47.8752046 33.0468753,47.7192131 32.9790296,47.6128187 C32.9111839,47.5064242 32.8017072,47.4532278 32.6505962,47.4532278 C32.566303,47.4532278 32.4809832,47.4714739 32.394634,47.5079667 C32.3082849,47.5444595 32.2281048,47.5914882 32.1540913,47.6490543 L32.1540913,48.6358964 C32.2363285,48.6729031 32.3070001,48.6986019 32.3661081,48.7129934 C32.4252162,48.7273849 32.4922899,48.7345806 32.5673314,48.7345806 C32.7276941,48.7345806 32.853361,48.6818981 32.9443359,48.5765317 C33.0353109,48.4711652 33.0807977,48.3059222 33.0807977,48.0807977 Z M35.3212377,47.2250206 L34.3158923,49.582648 L34.0059622,49.582648 L34.3266859,48.8641036 L33.6405222,47.2250206 L33.9550781,47.2250206 L34.4839638,48.5017475 L35.0174753,47.2250206 L35.3212377,47.2250206 Z M39.506065,46.6514186 L38.9093339,48.9473684 L38.5654811,48.9473684 L38.0828536,47.0415296 L37.6110197,48.9473684 L37.2748766,48.9473684 L36.667352,46.6514186 L36.980366,46.6514186 L37.4629934,48.5603413 L37.9379112,46.6514186 L38.2478413,46.6514186 L38.7273849,48.5788446 L39.2069285,46.6514186 L39.506065,46.6514186 Z M41.4689556,48.9473684 L39.9563117,48.9473684 L39.9563117,46.6514186 L41.4689556,46.6514186 L41.4689556,46.9228002 L40.261616,46.9228002 L40.261616,47.551912 L41.4689556,47.551912 L41.4689556,47.8232936 L40.261616,47.8232936 L40.261616,48.6759868 L41.4689556,48.6759868 L41.4689556,48.9473684 Z M43.9977385,48.9473684 L43.6924342,48.9473684 L43.6924342,46.9690584 L43.0540707,48.3151727 L42.8721217,48.3151727 L42.238384,46.9690584 L42.238384,48.9473684 L41.953125,48.9473684 L41.953125,46.6514186 L42.369449,46.6514186 L42.9815995,47.9296875 L43.5737048,46.6514186 L43.9977385,46.6514186 L43.9977385,48.9473684 Z M46.4247533,48.9473684 L46.0994038,48.9473684 L45.8742804,48.307463 L44.8812706,48.307463 L44.6561472,48.9473684 L44.3462171,48.9473684 L45.181949,46.6514186 L45.5890214,46.6514186 L46.4247533,48.9473684 Z M45.780222,48.0453331 L45.3777755,46.9181743 L44.973787,48.0453331 L45.780222,48.0453331 Z" id="by-WEMA" fill-opacity="0.601052989"></path>
        </g>
    </g>
</svg>