<svg width="119" height="61" viewBox="0 0 119 61" fill="none" xmlns="http://www.w3.org/2000/svg">
<path d="M116.294 60.2107C116.339 60.2018 116.382 60.1898 116.426 60.1786C116.464 60.169 116.501 60.1611 116.538 60.1498C116.581 60.1368 116.622 60.1207 116.664 60.1057C116.701 60.0923 116.738 60.0803 116.775 60.0649C116.814 60.0485 116.852 60.0293 116.891 60.0112C116.928 59.9934 116.966 59.977 117.003 59.9571C117.039 59.9376 117.074 59.9154 117.109 59.8942C117.146 59.8722 117.183 59.8517 117.218 59.8278C117.256 59.8024 117.292 59.7744 117.328 59.747C117.359 59.7241 117.391 59.7025 117.421 59.6779C117.476 59.6323 117.529 59.5837 117.58 59.5338C117.589 59.5249 117.599 59.5173 117.609 59.5081C117.618 59.4985 117.626 59.4879 117.636 59.478C117.685 59.4273 117.733 59.3753 117.778 59.3205C117.804 59.2884 117.827 59.2548 117.852 59.2216C117.877 59.1874 117.904 59.1542 117.928 59.1186C117.953 59.0806 117.975 59.0413 117.998 59.0023C118.018 58.9694 118.039 58.9372 118.057 58.9034C118.078 58.864 118.096 58.8233 118.115 58.7832C118.132 58.7476 118.149 58.7124 118.165 58.6758C118.181 58.6364 118.194 58.5964 118.209 58.5563C118.223 58.5173 118.238 58.4786 118.25 58.4389C118.262 58.3985 118.271 58.3575 118.281 58.3164C118.291 58.276 118.303 58.2363 118.311 58.1956C118.32 58.1473 118.326 58.0987 118.333 58.0501C118.338 58.0159 118.344 57.982 118.348 57.9475C118.356 57.8622 118.361 57.777 118.361 57.6915V2.82685C118.361 1.40893 117.212 0.26001 115.794 0.26001H34.9383C34.9158 0.26001 34.8939 0.262746 34.8713 0.26343C34.8223 0.264799 34.7737 0.266854 34.7251 0.270961C34.6865 0.274041 34.6481 0.278491 34.6098 0.283625C34.566 0.289101 34.5225 0.295603 34.4791 0.303475C34.4383 0.310662 34.3979 0.319217 34.3579 0.328458C34.3172 0.338041 34.2764 0.348309 34.2361 0.359945C34.196 0.371239 34.1567 0.383558 34.1176 0.396564C34.0776 0.410253 34.0376 0.42463 33.9982 0.440373C33.9609 0.45509 33.9243 0.470146 33.888 0.486574C33.8476 0.504713 33.8076 0.524223 33.7679 0.544416C33.734 0.56187 33.7008 0.579666 33.6679 0.59849C33.6282 0.621078 33.5892 0.645035 33.5505 0.669677C33.5187 0.690211 33.4876 0.71143 33.4568 0.732991C33.4205 0.758659 33.3846 0.785355 33.3493 0.813419C33.3171 0.839087 33.2856 0.865441 33.2545 0.892478C33.2237 0.919516 33.1932 0.946552 33.1635 0.975301C33.1296 1.00781 33.0971 1.0417 33.0649 1.07592C33.0488 1.09303 33.0317 1.10809 33.0163 1.12555C33.0071 1.13581 32.9999 1.14711 32.991 1.15738C32.9588 1.19468 32.9287 1.2337 32.8986 1.27305C32.8767 1.3018 32.8541 1.33055 32.8335 1.35998C32.8068 1.39832 32.7822 1.43767 32.7576 1.47738C32.7374 1.50989 32.7165 1.54206 32.698 1.57526C32.6765 1.61359 32.6576 1.65295 32.6381 1.6923C32.6203 1.72824 32.6018 1.76418 32.5858 1.8008C32.569 1.83947 32.5543 1.87951 32.5396 1.91887C32.5248 1.95755 32.5098 1.99588 32.4971 2.03489C32.4845 2.07425 32.4742 2.11429 32.4632 2.15433C32.4523 2.1954 32.4406 2.23613 32.4314 2.27754C32.4228 2.31622 32.417 2.35558 32.4102 2.39459C32.4027 2.43908 32.3951 2.48358 32.3896 2.52807C32.3852 2.56503 32.3831 2.60268 32.3804 2.64032C32.377 2.68824 32.3739 2.73615 32.3732 2.78441C32.3729 2.79844 32.3712 2.81213 32.3712 2.82616V18.6557C32.3712 20.0736 33.5201 21.2225 34.938 21.2225C36.3559 21.2225 37.5048 20.0736 37.5048 18.6557V8.52694L60.3261 28.7321C60.207 28.8159 60.0923 28.9087 59.9856 29.0151L37.5045 51.4961V34.6276C37.5045 33.2096 36.3556 32.0607 34.9377 32.0607C33.5197 32.0607 32.3708 33.2096 32.3708 34.6276V37.7639H19.1088C17.6909 37.7639 16.542 38.9128 16.542 40.3307C16.542 41.7487 17.6909 42.8976 19.1088 42.8976H32.3708V57.6932C32.3708 59.1111 33.5197 60.26 34.9377 60.26H115.793C115.878 60.26 115.962 60.2556 116.046 60.2474C116.086 60.2436 116.124 60.2361 116.162 60.2306C116.207 60.2244 116.251 60.2193 116.294 60.2107ZM113.227 51.4965L90.7452 29.0154C90.7308 29.0011 90.7154 28.9891 90.7007 28.9754L107.602 14.6364C108.683 13.7191 108.815 12.0996 107.898 11.0185C106.982 9.93801 105.362 9.80454 104.28 10.7221L75.4013 35.2234L41.7093 5.39403H113.227V51.4965V51.4965ZM63.6161 32.646C63.7992 32.4629 63.9477 32.2589 64.0637 32.0419L73.6641 40.5416C74.1494 40.9711 74.7572 41.1867 75.3657 41.1867C75.9564 41.1867 76.5468 40.9837 77.0266 40.5772L86.8104 32.2763C86.8994 32.4064 86.9996 32.5306 87.115 32.646L109.596 55.127H41.135L63.6161 32.646Z" fill="#169A62"/>
<path d="M2.56684 29.4932H45.918C47.3359 29.4932 48.4848 28.3443 48.4848 26.9264C48.4848 25.5085 47.3359 24.3595 45.918 24.3595H2.56684C1.14892 24.3595 0 25.5085 0 26.9264C0 28.3443 1.14892 29.4932 2.56684 29.4932Z" fill="#169A62"/>
<path d="M7.05854 15.3479H26.5237C27.9416 15.3479 29.0906 14.199 29.0906 12.781C29.0906 11.3631 27.9416 10.2142 26.5237 10.2142H7.05854C5.64062 10.2142 4.4917 11.3631 4.4917 12.781C4.4917 14.199 5.64062 15.3479 7.05854 15.3479Z" fill="#169A62"/>
<path d="M21.3903 48.6021H2.56684C1.14892 48.6021 0 49.751 0 51.169C0 52.5869 1.14892 53.7358 2.56684 53.7358H21.3903C22.8082 53.7358 23.9572 52.5869 23.9572 51.169C23.9572 49.751 22.8082 48.6021 21.3903 48.6021Z" fill="#169A62"/>
</svg>
