<svg width="57" height="60" viewBox="0 0 57 60" fill="none" xmlns="http://www.w3.org/2000/svg">
<path opacity="0.19" fill-rule="evenodd" clip-rule="evenodd" d="M54.2017 0H10.6513C9.13866 0 7.87815 1.2605 7.87815 2.77311V9.32773H4.28571C1.95378 9.32773 0 11.2185 0 13.6134C0 16.0084 1.89076 17.8992 4.28571 17.8992H7.87815V25.7143H4.28571C1.95378 25.7143 0 27.605 0 30C0 32.395 1.89076 34.2857 4.28571 34.2857H7.87815V42.1008H4.28571C1.95378 42.1008 0 43.9916 0 46.3866C0 48.7185 1.89076 50.6723 4.28571 50.6723H7.87815V57.2269C7.87815 58.7395 9.13866 60 10.6513 60H54.2017C55.7143 60 56.9748 58.7395 56.9748 57.2269V2.89916C56.9748 1.2605 55.7143 0 54.2017 0ZM32.458 13.9286C36.1765 13.9286 39.2017 16.9538 39.2017 20.6723C39.2017 24.3908 36.1765 27.416 32.458 27.416C28.7395 27.416 25.7143 24.3908 25.7143 20.6723C25.7143 16.9538 28.7395 13.9286 32.458 13.9286ZM42.0378 44.6849L42.542 35.4202C42.7311 32.2059 40.6513 29.4328 37.6891 28.5504C36.1134 29.5588 34.2857 30.1891 32.3319 30.1891C30.3782 30.1891 28.5504 29.5588 27.0378 28.5504C24.1387 29.4328 22.0588 32.2059 22.2479 35.4202L22.7521 44.6849C22.8151 45.3782 23.3824 45.9454 24.0756 45.9454H40.7143C41.4076 45.9454 41.9748 45.3782 42.0378 44.6849Z" fill="#717171"/>
</svg>
