<svg width="23" height="23" viewBox="0 0 23 23" fill="none" xmlns="http://www.w3.org/2000/svg">
<rect width="23" height="23" rx="5" fill="#43063C"/>
<path d="M14.0145 7.46391H13.4142V4.31904C13.4142 4.14284 13.2713 4 13.0951 4H9.90468C9.72847 4 9.58563 4.14284 9.58563 4.31904V7.46391H8.98535C8.45175 7.46391 8.01758 7.89802 8.01758 8.43165V18.0323C8.01758 18.5659 8.45172 19 8.98535 19H14.0145C14.548 19 14.9822 18.5659 14.9822 18.0323V8.43168C14.9822 7.89805 14.5481 7.46391 14.0145 7.46391ZM13.0792 9.347V11.4858H9.92066V9.347H13.0792ZM12.7761 4.63809V8.69645L10.2237 8.69642V4.63809H12.7761ZM14.3441 18.0323C14.3441 18.214 14.1962 18.3619 14.0145 18.3619H8.98535C8.80358 18.3619 8.65567 18.214 8.65567 18.0323V8.43165C8.65567 8.24988 8.80355 8.102 8.98535 8.102H9.58563V8.69721C9.50685 8.70116 9.43204 8.73383 9.37601 8.78986C9.31618 8.84968 9.28257 8.93084 9.28257 9.01547V11.8048C9.28257 11.981 9.42541 12.1239 9.60162 12.1239H13.3982C13.5744 12.1239 13.7173 11.981 13.7173 11.8048V9.01547C13.7173 8.84464 13.5829 8.7056 13.4142 8.69721V8.102H14.0145C14.1962 8.102 14.3441 8.24988 14.3441 8.43168V18.0323Z" fill="white"/>
<path d="M11.0231 13.1075H9.59346C9.41725 13.1075 9.27441 13.2503 9.27441 13.4265C9.27441 13.6027 9.41725 13.7456 9.59346 13.7456H11.0231C11.1993 13.7456 11.3421 13.6027 11.3421 13.4265C11.3421 13.2503 11.1993 13.1075 11.0231 13.1075Z" fill="white"/>
<path d="M13.4059 13.1075H11.9763C11.8001 13.1075 11.6572 13.2503 11.6572 13.4265C11.6572 13.6027 11.8001 13.7456 11.9763 13.7456H13.4059C13.5821 13.7456 13.7249 13.6027 13.7249 13.4265C13.7249 13.2503 13.582 13.1075 13.4059 13.1075Z" fill="white"/>
<path d="M11.0231 14.7617H9.59346C9.41725 14.7617 9.27441 14.9045 9.27441 15.0807C9.27441 15.2569 9.41725 15.3997 9.59346 15.3997H11.0231C11.1993 15.3997 11.3421 15.2569 11.3421 15.0807C11.3421 14.9045 11.1993 14.7617 11.0231 14.7617Z" fill="white"/>
<path d="M13.4059 14.7617H11.9763C11.8001 14.7617 11.6572 14.9045 11.6572 15.0807C11.6572 15.2569 11.8001 15.3997 11.9763 15.3997H13.4059C13.5821 15.3997 13.7249 15.2569 13.7249 15.0807C13.7249 14.9045 13.582 14.7617 13.4059 14.7617Z" fill="white"/>
<path d="M11.0231 16.4483H9.59346C9.41725 16.4483 9.27441 16.5911 9.27441 16.7673C9.27441 16.9436 9.41725 17.0864 9.59346 17.0864H11.0231C11.1993 17.0864 11.3421 16.9436 11.3421 16.7673C11.3421 16.5911 11.1993 16.4483 11.0231 16.4483Z" fill="white"/>
<path d="M13.4059 16.4483H11.9763C11.8001 16.4483 11.6572 16.5911 11.6572 16.7673C11.6572 16.9436 11.8001 17.0864 11.9763 17.0864H13.4059C13.5821 17.0864 13.7249 16.9436 13.7249 16.7673C13.7249 16.5911 13.582 16.4483 13.4059 16.4483Z" fill="white"/>
</svg>
